<?xml version="1.0" encoding="UTF-8" standalone="no"?>
<svg
   xmlns:dc="http://purl.org/dc/elements/1.1/"
   xmlns:cc="http://creativecommons.org/ns#"
   xmlns:rdf="http://www.w3.org/1999/02/22-rdf-syntax-ns#"
   xmlns:svg="http://www.w3.org/2000/svg"
   xmlns="http://www.w3.org/2000/svg"
   xmlns:sodipodi="http://sodipodi.sourceforge.net/DTD/sodipodi-0.dtd"
   xmlns:inkscape="http://www.inkscape.org/namespaces/inkscape"
   width="16"
   height="16"
   version="1.1"
   id="svg4"
   sodipodi:docname="dash-dots-symbolic.svg"
   inkscape:version="1.0.1 (3bc2e813f5, 2020-09-07)">
  <metadata
     id="metadata10">
    <rdf:RDF>
      <cc:Work
         rdf:about="">
        <dc:format>image/svg+xml</dc:format>
        <dc:type
           rdf:resource="http://purl.org/dc/dcmitype/StillImage" />
      </cc:Work>
    </rdf:RDF>
  </metadata>
  <defs
     id="defs8" />
  <sodipodi:namedview
     pagecolor="#ffffff"
     bordercolor="#666666"
     borderopacity="1"
     objecttolerance="10"
     gridtolerance="10"
     guidetolerance="10"
     inkscape:pageopacity="0"
     inkscape:pageshadow="2"
     inkscape:window-width="1366"
     inkscape:window-height="704"
     id="namedview6"
     showgrid="false"
     inkscape:zoom="20.759387"
     inkscape:cx="13.790753"
     inkscape:cy="8.8590187"
     inkscape:window-x="0"
     inkscape:window-y="27"
     inkscape:window-maximized="1"
     inkscape:current-layer="svg4"
     inkscape:document-rotation="0" />
  <path
     id="path104"
     d="m -7.5561005,-8.8761433 -1.4142141,1.4142134 1.4142141,1.4142136 1.4142136,-1.4142136 z m 2.8284272,2.828427 -1.4142136,1.4142136 1.4142136,1.4142135 1.4142134,-1.4142135 z m 2.828427,2.8284271 -1.4142136,1.4142136 1.4142136,1.4142136 1.41421364,-1.4142136 z M 0.92918094,-0.390862 -0.48503266,1.0233514 0.92918094,2.437565 2.3433951,1.0233514 Z M 3.7576071,2.437565 2.3433951,3.8517786 3.7576091,5.2659928 5.1718231,3.8517794 Z M 6.5860351,5.2659928 5.1718231,6.6802064 6.5860351,8.09442 8.0002491,6.6802064 Z M 9.4144631,8.09442 8.0002491,9.5086336 9.4144631,10.922848 10.828677,9.5086336 Z m 2.8284259,2.828428 -1.414212,1.414214 1.414212,1.414211 1.414215,-1.414211 z m 2.828429,2.828425 -1.414214,1.414214 1.414214,1.414214 1.414214,-1.414214 z m 2.828428,2.828428 -1.414214,1.414214 1.414214,1.414212 1.414211,-1.414212 z m 2.828426,2.828426 -1.414215,1.414214 1.414215,1.414214 1.414214,-1.414214 z m 2.828427,2.828428 -1.414214,1.414214 1.414214,1.414214 1.414215,-1.414214 z m 2.828426,2.828428 -1.414212,1.414214 1.414212,1.414212 1.414214,-1.414212 z"
     style="stroke-width:2" />
</svg>
