<?xml version="1.0" encoding="UTF-8" standalone="no"?>
<svg
   xmlns:dc="http://purl.org/dc/elements/1.1/"
   xmlns:cc="http://creativecommons.org/ns#"
   xmlns:rdf="http://www.w3.org/1999/02/22-rdf-syntax-ns#"
   xmlns:svg="http://www.w3.org/2000/svg"
   xmlns="http://www.w3.org/2000/svg"
   xmlns:sodipodi="http://sodipodi.sourceforge.net/DTD/sodipodi-0.dtd"
   xmlns:inkscape="http://www.inkscape.org/namespaces/inkscape"
   width="16"
   height="16"
   version="1.1"
   id="svg4"
   sodipodi:docname="dash-regular-symbolic.svg"
   inkscape:version="1.0.1 (3bc2e813f5, 2020-09-07)">
  <metadata
     id="metadata10">
    <rdf:RDF>
      <cc:Work
         rdf:about="">
        <dc:format>image/svg+xml</dc:format>
        <dc:type
           rdf:resource="http://purl.org/dc/dcmitype/StillImage" />
      </cc:Work>
    </rdf:RDF>
  </metadata>
  <defs
     id="defs8" />
  <sodipodi:namedview
     pagecolor="#ffffff"
     bordercolor="#666666"
     borderopacity="1"
     objecttolerance="10"
     gridtolerance="10"
     guidetolerance="10"
     inkscape:pageopacity="0"
     inkscape:pageshadow="2"
     inkscape:window-width="1366"
     inkscape:window-height="704"
     id="namedview6"
     showgrid="false"
     inkscape:zoom="20.759387"
     inkscape:cx="10.124182"
     inkscape:cy="6.4130307"
     inkscape:window-x="0"
     inkscape:window-y="27"
     inkscape:window-maximized="1"
     inkscape:current-layer="svg4"
     inkscape:document-rotation="0" />
  <path
     d="M 0.27222034,3.3777458 1.2737627,2.1708136 15.73139,13.442 14.850542,14.535339 Z"
     fill="#474747"
     id="path2"
     style="display:none;fill:#ffff00" />
  <path
     id="path104"
     d="m -26.644535,-27.948117 -1.414214,1.414214 2.828428,2.828425 1.414214,-1.414211 z m 5.656855,5.656853 -1.414214,1.414214 2.828427,2.828428 1.414214,-1.414214 z m 5.656854,5.656854 -1.414213,1.414215 2.828427,2.828427 1.414213,-1.414214 z m 5.6568541,5.656855 -1.4142131,1.4142135 2.8284272,2.8284271 1.4142135,-1.4142137 z m 5.6568546,5.656854 -1.4142136,1.4142136 2.8284287,2.8284285 1.4142136,-1.4142136 z M 1.6397394,0.33615475 0.22552496,1.7503683 3.0539514,4.5787949 4.4681654,3.1645815 Z m 5.656852,5.65685375 -1.414212,1.4142136 2.828426,2.8284269 1.4142136,-1.4142135 z m 5.6568556,5.6568545 -1.414214,1.414214 2.828426,2.828426 1.414214,-1.414213 z m 5.656854,5.656854 -1.414214,1.414214 2.828426,2.828428 1.414214,-1.414214 z m 5.656854,5.656854 -1.414214,1.414214 2.828428,2.828428 1.414212,-1.414214 z m 5.656854,5.656856 -1.414214,1.414214 2.828428,2.828426 1.414214,-1.414214 z m 5.656854,5.656854 -1.414214,1.414214 2.828428,2.828426 1.414214,-1.414214 z m 5.656855,5.656854 -1.414214,1.414214 2.828428,2.828426 1.414214,-1.414212 z"
     style="stroke-width:2.82842" />
</svg>
