<?xml version="1.0" encoding="UTF-8" standalone="no"?>
<svg
   xmlns:dc="http://purl.org/dc/elements/1.1/"
   xmlns:cc="http://creativecommons.org/ns#"
   xmlns:rdf="http://www.w3.org/1999/02/22-rdf-syntax-ns#"
   xmlns:svg="http://www.w3.org/2000/svg"
   xmlns="http://www.w3.org/2000/svg"
   xmlns:sodipodi="http://sodipodi.sourceforge.net/DTD/sodipodi-0.dtd"
   xmlns:inkscape="http://www.inkscape.org/namespaces/inkscape"
   width="16"
   height="16"
   version="1.1"
   id="svg4"
   sodipodi:docname="dash-alt-symbolic.svg"
   inkscape:version="1.0.1 (3bc2e813f5, 2020-09-07)">
  <path
     id="path104"
     d="m -7.5347176,-8.888334 -1.4142136,1.4142134 1.4142138,1.4142139 1.4142134,1.4142134 1.4142136,1.4142136 1.4142136,-1.4142136 -1.4142136,-1.4142134 -1.4142136,-1.4142137 z m 5.6568544,5.6568543 -1.4142136,1.4142136 1.4142136,1.41421367 1.41421357,-1.41421367 z M 0.95056377,-0.40305243 -0.46364963,1.0111611 0.95056377,2.4253745 2.3647774,3.8395881 3.7789904,5.2538017 5.1932044,3.8395881 3.7789904,2.4253745 2.3647774,1.0111611 Z M 6.6074184,5.2538019 5.1932044,6.6680155 6.6074184,8.0822291 8.0216324,6.6680155 Z m 2.828428,2.8284272 -1.414214,1.4142136 1.414214,1.4142143 1.4142116,1.414213 1.414215,1.414214 1.414214,-1.414214 -1.414214,-1.414213 -1.414215,-1.4142143 z m 5.6568546,5.6568549 -1.414214,1.414214 1.414214,1.414214 1.414212,-1.414214 z m 2.828426,2.828428 -1.414214,1.414212 1.414214,1.414214 1.414214,1.414214 1.414214,1.414214 1.414214,-1.414214 -1.414214,-1.414214 -1.414214,-1.414214 z m 5.656854,5.656854 -1.414212,1.414214 1.414212,1.414212 1.414214,-1.414212 z m 2.828428,2.828426 -1.414214,1.414214 1.414214,1.414214 1.414214,1.414214 1.414214,-1.414214 -1.414214,-1.414214 z"
     style="stroke-width:2" />
  <metadata
     id="metadata10">
    <rdf:RDF>
      <cc:Work
         rdf:about="">
        <dc:format>image/svg+xml</dc:format>
        <dc:type
           rdf:resource="http://purl.org/dc/dcmitype/StillImage" />
      </cc:Work>
    </rdf:RDF>
  </metadata>
  <defs
     id="defs8" />
  <sodipodi:namedview
     pagecolor="#ffffff"
     bordercolor="#666666"
     borderopacity="1"
     objecttolerance="10"
     gridtolerance="10"
     guidetolerance="10"
     inkscape:pageopacity="0"
     inkscape:pageshadow="2"
     inkscape:window-width="1366"
     inkscape:window-height="704"
     id="namedview6"
     showgrid="false"
     inkscape:zoom="20.759387"
     inkscape:cx="13.790753"
     inkscape:cy="8.8590187"
     inkscape:window-x="0"
     inkscape:window-y="27"
     inkscape:window-maximized="1"
     inkscape:current-layer="svg4"
     inkscape:document-rotation="0" />
</svg>
