<?xml version="1.0" encoding="UTF-8" standalone="no"?>
<svg
   xmlns:dc="http://purl.org/dc/elements/1.1/"
   xmlns:cc="http://creativecommons.org/ns#"
   xmlns:rdf="http://www.w3.org/1999/02/22-rdf-syntax-ns#"
   xmlns:svg="http://www.w3.org/2000/svg"
   xmlns="http://www.w3.org/2000/svg"
   xmlns:sodipodi="http://sodipodi.sourceforge.net/DTD/sodipodi-0.dtd"
   xmlns:inkscape="http://www.inkscape.org/namespaces/inkscape"
   width="16"
   height="16"
   version="1.1"
   id="svg4"
   sodipodi:docname="dash-long-symbolic.svg"
   inkscape:version="1.0.1 (3bc2e813f5, 2020-09-07)">
  <metadata
     id="metadata10">
    <rdf:RDF>
      <cc:Work
         rdf:about="">
        <dc:format>image/svg+xml</dc:format>
        <dc:type
           rdf:resource="http://purl.org/dc/dcmitype/StillImage" />
      </cc:Work>
    </rdf:RDF>
  </metadata>
  <defs
     id="defs8" />
  <sodipodi:namedview
     pagecolor="#ffffff"
     bordercolor="#666666"
     borderopacity="1"
     objecttolerance="10"
     gridtolerance="10"
     guidetolerance="10"
     inkscape:pageopacity="0"
     inkscape:pageshadow="2"
     inkscape:window-width="1366"
     inkscape:window-height="704"
     id="namedview6"
     showgrid="false"
     inkscape:zoom="20.759387"
     inkscape:cx="13.790753"
     inkscape:cy="8.8590187"
     inkscape:window-x="0"
     inkscape:window-y="27"
     inkscape:window-maximized="1"
     inkscape:current-layer="svg4"
     inkscape:document-rotation="0" />
  <path
     d="M 0.27222034,3.3777458 1.2737627,2.1708136 15.73139,13.442 14.850542,14.535339 Z"
     fill="#474747"
     id="path2"
     style="display:none;fill:#ffff00" />
  <path
     id="path104"
     d="m -10.458086,-11.752973 -1.414214,1.414214 1.414214,1.414213 1.4142135,1.4142136 1.4142136,1.4142136 1.4142137,-1.4142136 -1.4142137,-1.4142136 -1.4142136,-1.414213 z m 5.6568542,5.6568542 -1.4142134,1.4142136 1.4142134,1.4142136 1.4142136,1.4142134 1.4142136,1.41421353 1.41421299,-1.41421353 -1.41421299,-1.4142134 -1.4142136,-1.4142136 z M 0.85562244,-0.43926467 -0.55859161,0.97494898 0.85562244,2.3891632 2.2698364,3.8033768 3.6840504,5.2175904 5.0982644,3.8033768 3.6840504,2.3891632 2.2698364,0.97494978 Z M 6.5124784,5.2175904 5.0982644,6.631804 6.5124784,8.0460176 7.9266904,9.460231 9.3409044,10.874445 10.755118,9.460231 9.3409044,8.0460176 7.9266904,6.631804 Z m 5.6568546,5.6568546 -1.414215,1.414214 1.414215,1.414214 1.414212,1.414212 1.414214,1.414214 1.414214,-1.414214 -1.414214,-1.414212 -1.414214,-1.414214 z m 5.656854,5.656854 -1.414214,1.414214 1.414214,1.414214 1.414214,1.414212 1.414212,1.414214 1.414214,-1.414214 -1.414214,-1.414212 -1.414212,-1.414214 z m 5.656854,5.656854 -1.414214,1.414214 1.414214,1.414214 1.414214,1.414214 1.414212,-1.414214 -1.414212,-1.414214 z"
     style="stroke-width:2" />
</svg>
