<?xml version="1.0" encoding="UTF-8" standalone="no"?>
<svg
   xmlns:dc="http://purl.org/dc/elements/1.1/"
   xmlns:cc="http://creativecommons.org/ns#"
   xmlns:rdf="http://www.w3.org/1999/02/22-rdf-syntax-ns#"
   xmlns:svg="http://www.w3.org/2000/svg"
   xmlns="http://www.w3.org/2000/svg"
   xmlns:sodipodi="http://sodipodi.sourceforge.net/DTD/sodipodi-0.dtd"
   xmlns:inkscape="http://www.inkscape.org/namespaces/inkscape"
   width="16"
   height="16"
   version="1.1"
   id="svg4"
   sodipodi:docname="dash-none-symbolic.svg"
   inkscape:version="1.0.1 (3bc2e813f5, 2020-09-07)">
  <metadata
     id="metadata10">
    <rdf:RDF>
      <cc:Work
         rdf:about="">
        <dc:format>image/svg+xml</dc:format>
        <dc:type
           rdf:resource="http://purl.org/dc/dcmitype/StillImage" />
      </cc:Work>
    </rdf:RDF>
  </metadata>
  <defs
     id="defs8" />
  <sodipodi:namedview
     pagecolor="#ffffff"
     bordercolor="#666666"
     borderopacity="1"
     objecttolerance="10"
     gridtolerance="10"
     guidetolerance="10"
     inkscape:pageopacity="0"
     inkscape:pageshadow="2"
     inkscape:window-width="1366"
     inkscape:window-height="704"
     id="namedview6"
     showgrid="false"
     inkscape:zoom="20.759387"
     inkscape:cx="13.790753"
     inkscape:cy="8.8590187"
     inkscape:window-x="0"
     inkscape:window-y="27"
     inkscape:window-maximized="1"
     inkscape:current-layer="svg4"
     inkscape:document-rotation="0" />
  <path
     id="path104"
     d="m -10.024327,-11.487205 -1.414213,1.414213 1.414213,1.4142139 1.414214,1.4142136 1.4142136,1.4142136 1.4142136,1.4142135 1.4142134,1.4142136 1.4142136,1.4142134 1.4142136,1.41421365 1.414213,1.41421355 1.414214,1.4142142 1.414214,1.4142136 1.414214,1.4142136 1.414214,1.4142136 1.414214,1.4142136 1.414212,1.4142134 1.414214,1.4142132 1.4142142,1.414215 1.414213,1.414212 1.414212,1.414214 1.414214,1.414214 1.414214,1.414214 1.414214,1.414212 1.414214,1.414214 1.414212,1.414214 1.414214,1.414214 1.414214,1.414214 1.414214,1.414214 1.414212,-1.414214 L 25.331013,23.868135 23.916799,22.453921 22.502585,21.039707 21.088371,19.625493 19.674159,18.211281 18.259945,16.797067 16.845731,15.382853 15.431517,13.968639 14.017303,12.554427 12.603091,11.140212 11.188878,9.7259988 9.7746638,8.3117854 8.3604498,6.8975718 6.9462378,5.4833582 5.5320238,4.0691446 4.1178098,2.654931 2.7035958,1.2407176 1.2893818,-0.17349675 -0.1248322,-1.5877104 -1.5390452,-3.0019238 -2.9532588,-4.4161374 -4.3674724,-5.8303509 -5.7816858,-7.2445645 -7.1958994,-8.6587781 -8.610113,-10.072992 Z"
     style="stroke-width:2" />
</svg>
