<?xml version="1.0" encoding="UTF-8" standalone="no"?>
<svg
   xmlns:dc="http://purl.org/dc/elements/1.1/"
   xmlns:cc="http://creativecommons.org/ns#"
   xmlns:rdf="http://www.w3.org/1999/02/22-rdf-syntax-ns#"
   xmlns:svg="http://www.w3.org/2000/svg"
   xmlns="http://www.w3.org/2000/svg"
   xmlns:sodipodi="http://sodipodi.sourceforge.net/DTD/sodipodi-0.dtd"
   xmlns:inkscape="http://www.inkscape.org/namespaces/inkscape"
   width="16"
   height="15.974"
   version="1.1"
   id="svg6"
   sodipodi:docname="paint-symbolic.svg"
   inkscape:version="0.92.3 (2405546, 2018-03-11)">
  <metadata
     id="metadata12">
    <rdf:RDF>
      <cc:Work
         rdf:about="">
        <dc:format>image/svg+xml</dc:format>
        <dc:type
           rdf:resource="http://purl.org/dc/dcmitype/StillImage" />
        <dc:title />
      </cc:Work>
    </rdf:RDF>
  </metadata>
  <defs
     id="defs10" />
  <sodipodi:namedview
     pagecolor="#ffffff"
     bordercolor="#666666"
     borderopacity="1"
     objecttolerance="10"
     gridtolerance="10"
     guidetolerance="10"
     inkscape:pageopacity="0"
     inkscape:pageshadow="2"
     inkscape:window-width="1366"
     inkscape:window-height="704"
     id="namedview8"
     showgrid="false"
     inkscape:zoom="27.580455"
     inkscape:cx="6.4021627"
     inkscape:cy="8.3034082"
     inkscape:window-x="0"
     inkscape:window-y="27"
     inkscape:window-maximized="1"
     inkscape:current-layer="g18711" />
  <g
     transform="matrix(0.99905944,0,0,0.99416048,-140.88339,-175.90421)"
     style="color:#000000;display:inline;fill:#474747"
     id="g18711"
     inkscape:label="g18711">
    <title
       id="title7951">fill-tool</title>
    <path
       style="display:inline;fill:#2e3436;fill-opacity:1;stroke:none"
       d="m -92,-36.84375 -2.46875,1.8125 c 0.009,-0.01222 -0.02984,-0.01761 -0.28125,0.03125 -4,0.77746 -4.25,1.657281 -4.25,3 v 5 c 0,0.554 0.446,1 1,1 0.554,0 1,-0.446 1,-1 v -6.1875 l 1.28125,1.875 1.0625,1.5625 2.78125,4.15625 c 0.38364,0.5682 1.0736,0.76981 1.53125,0.4375 L -85.375,-28.75 c 0.45762,-0.33233 0.50866,-1.05678 0.125,-1.625 L -88,-34.4375 V -33 c 0,1.104569 -0.895431,2 -2,2 -1.104569,0 -2,-0.895431 -2,-2 z"
       transform="translate(241.0002,217)"
       id="rect18654"
       inkscape:connector-curvature="0" />
    <rect
       ry="1"
       rx="1"
       y="177"
       x="150.00273"
       height="8"
       width="1.9974687"
       id="rect18680"
       style="fill:#2e3436;fill-opacity:1;stroke:none" />
  </g>
</svg>
