<svg width="16" height="16">
  <path
     style="display:inline;opacity:1;vector-effect:none;fill:#2e3436;fill-opacity:1;stroke:none;stroke-width:1;stroke-linecap:butt;stroke-linejoin:miter;stroke-miterlimit:4;stroke-dasharray:none;stroke-dashoffset:0;stroke-opacity:1;marker:none"
     d="m 12.054822,3.1578946 c 0.55279,0 0.99781,0.44502 0.99781,0.99781 v 0.004 c 0,0.55279 -0.44502,0.99781 -0.99781,0.99781 H 2.0504416 c -0.55279,0 -0.99781,-0.44502 -0.99781,-0.99781 v -0.98838 z"
     id="rect33604" />
  <path
     style="display:inline;opacity:1;vector-effect:none;fill:#2e3436;fill-opacity:1;stroke:none;stroke-width:1;stroke-linecap:butt;stroke-linejoin:miter;stroke-miterlimit:4;stroke-dasharray:none;stroke-dashoffset:0;stroke-opacity:1;marker:none"
     d="m 4.0504416,1.1578946 h 0.004 c 0.55279,0 0.99782,0.44502 0.99782,0.99781 V 12.160085 c 0,0.55279 -0.44503,0.99781 -0.99782,0.99781 h -0.004 c -0.55279,0 -0.99781,-0.44502 -0.99781,-0.99781 V 1.1869546 c 0,0 0.44502,-0.0291 0.99781,-0.0291 z"
     id="rect33608" />
  <path
     id="path7845"
     d="m 4.0504416,13.157855 c -0.55279,0 -0.99781,-0.44502 -0.99781,-0.99781 v -0.004 c 0,-0.55279 0.44502,-0.99781 0.99781,-0.99781 H 14.054822 c 0.55279,0 0.99781,0.44502 0.99781,0.99781 v 0.98838 z"
     style="display:inline;opacity:1;vector-effect:none;fill:#2e3436;fill-opacity:1;stroke:none;stroke-width:1;stroke-linecap:butt;stroke-linejoin:miter;stroke-miterlimit:4;stroke-dasharray:none;stroke-dashoffset:0;stroke-opacity:1;marker:none" />
  <path
     id="path7847"
     d="m 12.054822,15.157855 h -0.004 c -0.55279,0 -0.99782,-0.44502 -0.99782,-0.99781 V 4.1556646 c 0,-0.55279 0.44503,-0.99781 0.99782,-0.99781 h 0.004 c 0.55279,0 0.99781,0.44502 0.99781,0.99781 V 15.128795 c 0,0 -0.44502,0.0291 -0.99781,0.0291 z"
     style="display:inline;opacity:1;vector-effect:none;fill:#2e3436;fill-opacity:1;stroke:none;stroke-width:1;stroke-linecap:butt;stroke-linejoin:miter;stroke-miterlimit:4;stroke-dasharray:none;stroke-dashoffset:0;stroke-opacity:1;marker:none" />
</svg>
