<svg width="16" height="16">
  <g
     transform="matrix(0.96280263,0,0,0.95071836,-77.69482,-206.00079)"
     style="color:#000000;display:inline;fill:#474747"
     id="g38589">
    <path
       style="color:#000000;font-style:normal;font-variant:normal;font-weight:normal;font-stretch:normal;font-size:medium;line-height:normal;font-family:sans-serif;font-variant-ligatures:normal;font-variant-position:normal;font-variant-caps:normal;font-variant-numeric:normal;font-variant-alternates:normal;font-feature-settings:normal;text-indent:0;text-align:start;text-decoration:none;text-decoration-line:none;text-decoration-style:solid;text-decoration-color:#000000;letter-spacing:normal;word-spacing:normal;text-transform:none;writing-mode:lr-tb;direction:ltr;text-orientation:mixed;dominant-baseline:auto;baseline-shift:baseline;text-anchor:start;white-space:normal;shape-padding:0;clip-rule:nonzero;display:inline;overflow:visible;visibility:visible;opacity:1;isolation:auto;mix-blend-mode:normal;color-interpolation:sRGB;color-interpolation-filters:linearRGB;solid-color:#000000;solid-opacity:1;vector-effect:none;fill:#2e3436;fill-opacity:1;fill-rule:nonzero;stroke:none;stroke-width:1;stroke-linecap:butt;stroke-linejoin:miter;stroke-miterlimit:4;stroke-dasharray:none;stroke-dashoffset:0;stroke-opacity:1;marker:none;color-rendering:auto;image-rendering:auto;shape-rendering:auto;text-rendering:auto;enable-background:new"
       d="m 94.359631,219.9934 c 0.166099,-1.29147 -0.226273,-1.71336 -1.192364,-1.87691 l -10.506979,-1.25796 c -1.319192,0.44412 -1.353822,0.74241 -1.013814,1.95263 l 5.450975,6.02534 c -6.138703,10.60469 -5.178389,7.74168 8.481583,7.38138 0.282726,-0.008 1.359865,0.16515 1.160845,-1.17613 -3.800207,-2.85876 -4.131348,-8.22525 -2.380246,-11.04835 z m 0.147081,10.8435 c -13.062467,1.56936 -9.571998,1.17357 -5.951795,-6.1338 -1.68035,-2.10044 -6.148301,-6.08227 -5.141028,-6.47041 l 9.709496,1.18224 c -1.375615,4.49119 -1.276821,7.91624 1.383327,11.42197 z"
       id="rect3916" />
  </g>
</svg>
