<svg width="16" height="16">
  <g fill="#474747"
     transform="matrix(0.96280263,0,0,0.95071836,-77.69482,-206.00079)"
     style="fill:#474747" >
    <circle
       r="2.015625"
       cy="-39.984375"
       cx="-176.01562"
       transform="matrix(0.99612528,0,0,0.99612528,258.326,260.83727)" />
    <circle
       r="2.015625"
       cy="-39.984375"
       cx="-176.01562"
       transform="matrix(0.98062141,0,0,0.98062141,255.56582,270.1861)" />
    <circle
       r="2.015625"
       cy="-39.984375"
       cx="-176.01562"
       transform="matrix(0.96899291,0,0,0.96899291,265.62057,267.7602)" />
    <circle
       r="2.015625"
       cy="-39.984375"
       cx="-176.01562"
       transform="matrix(0.96124033,0,0,0.96124033,263.27163,257.37209)" />
    <path
       d="M 94.666016,218.11719 82.25,220.375 V 221 232.60156 l 6.853516,-5.71094 6.779296,3.38868 z m -1.332032,1.76562 0.785157,7.83789 -5.222657,-2.61132 -5.146484,4.28906 v -7.77149 z" />
    <circle
       r="2.015625"
       cy="-39.984375"
       cx="-176.01562"
       transform="matrix(1.0116267,0,0,1.0116267,267.10136,266.50395)" />
  </g>
</svg>
