<?xml version="1.0" encoding="UTF-8" standalone="no"?>
<svg width="16" height="16">
  <g
     fill="#474747"
     transform="translate(-61.067997,-216.9322)">
    <path
       d="m 72.15645,218 c -0.07885,0.0161 -0.1595,0.0696 -0.21875,0.125 l -4.28125,4 4.03125,4.34375 4.15625,-3.875 c 0.23699,-0.22144 0.17839,-0.68283 -0.125,-1.03125 L 72.9377,218.34375 C 72.71016,218.08243 72.39301,217.95166 72.15645,218 Z" />
    <path
       d="m 66.5002,223.21875 -2.34375,2.1875 c -0.23699,0.22144 -0.20964,0.68283 0.09375,1.03125 l 2.8125,3.21875 c 0.30339,0.34842 0.73176,0.44019 0.96875,0.21875 l 2.46875,-2.3125 z" />
    <path
       d="m 69.7002,231 c -0.3878,0 -0.7,0.223 -0.7,0.5 0,0.277 0.3122,0.5 0.7,0.5 h 1.4 4.2 0.7 v -0.5 -0.5 h -0.7 -4.2 z" />
    <path
       d="m 64.3002,231 c 0.3878,0 0.7,0.223 0.7,0.5 0,0.277 -0.3122,0.5 -0.7,0.5 -2.1,0 -2,0 -2.3,0 v -0.5 -0.5 c 0,0 0.2,0 2.3,0 z" />
  </g>
</svg>
