<svg width="16" height="16">
  <g fill="#474747">
    <path
      d="M1.984 8.986A1 1 0 0 0 1 10v4a1 1 0 0 0 1 1h4a1 1 0 1 0 0-2H3v-3a1 1 0 0 0-1.016-1.014z" />
    <path
      d="M6.48 8.49a1 1 0 0 0-.687.303l-4.5 4.5a1 1 0 1 0 1.414 1.414l4.5-4.5A1 1 0 0 0 6.48 8.49z" />
    <path d="M1 14h1v1H1z" />
    <path d="M10 1a1 1 0 1 0 0 2h3v3a1 1 0 1 0 2 0V2a1 1 0 0 0-1-1z" />
    <path d="M14 1h1v1h-1z" />
    <path
      d="M13.984.99a1 1 0 0 0-.69.301l-4.5 4.469a1 1 0 1 0 1.411 1.418l4.5-4.469a1 1 0 0 0-.72-1.719z" />
    <path d="M1 9h1v1H1zM6 14h1v1H6zM14 6h1v1h-1zM9 1h1v1H9z" />
  </g>
</svg>
