<svg xmlns="http://www.w3.org/2000/svg" width="16" height="16">
    <g fill="#474747">
        <path d="M7.996 2.994C5.246 2.994 2.989 5.25 2.989 8c0 2.75 2.257 5.006 5.007 5.006 2.75 0 5.006-2.256 5.006-5.006 0-2.75-2.257-5.006-5.006-5.006z" style="line-height:normal;-inkscape-font-specification:Sans;text-indent:0;text-align:start;text-decoration-line:none;text-transform:none;marker:none" color="#bebebe" font-weight="400" font-family="Sans" overflow="visible"/>
        <path d="M14 7c.138.713.112 1.37 0 2l2-1zM2 7a5.387 5.387 0 0 0 0 2L0 8zM9 14a5.387 5.387 0 0 1-2 0l1 2zM9 2a5.387 5.387 0 0 0-2 0l1-2zM4.465 12.95a5.387 5.387 0 0 1-1.415-1.414l-.707 2.12zM12.95 4.464a5.387 5.387 0 0 0-1.414-1.414l2.121-.707zM3.05 4.464A5.387 5.387 0 0 1 4.465 3.05l-2.122-.707zM11.536 12.95a5.387 5.387 0 0 0 1.414-1.414l.707 2.12z" style="isolation:auto;mix-blend-mode:normal;marker:none" color="#000" overflow="visible"/>
    </g>
</svg>
