<svg width="16" height="16">
  <g fill="#474747"
     transform="matrix(0.99905944,0,0,0.99416048,-140.88339,-175.90421)" >
    <path
       d="m -92,-36.84375 -2.46875,1.8125 c 0.009,-0.01222 -0.02984,-0.01761 -0.28125,0.03125 -4,0.77746 -4.25,1.657281 -4.25,3 v 5 c 0,0.554 0.446,1 1,1 0.554,0 1,-0.446 1,-1 v -6.1875 l 1.28125,1.875 1.0625,1.5625 2.78125,4.15625 c 0.38364,0.5682 1.0736,0.76981 1.53125,0.4375 L -85.375,-28.75 c 0.45762,-0.33233 0.50866,-1.05678 0.125,-1.625 L -88,-34.4375 V -33 c 0,1.104569 -0.895431,2 -2,2 -1.104569,0 -2,-0.895431 -2,-2 z"
       transform="translate(241,217)" />
    <rect
       ry="1"
       rx="1"
       y="177"
       x="150"
       height="8"
       width="2" />
  </g>
</svg>
