<?xml version="1.0" encoding="UTF-8" standalone="no"?>
<svg width="16" height="16">
  <g fill="#474747">
    <path
       d="m 4.3752589,4.4262603 c 0.88516,-0.8824032 1.9032482,-1.6918026 3.1450999,-1.83304 1.4724222,-0.1674604 3.5854272,-0.3528389 4.5567022,0.7663995 1.054398,1.2150237 -1.317635,2.6180155 -1.308133,4.2267252 0.0085,1.4331952 2.607608,4.136412 1.207149,4.4411 C 6.3994362,13.240714 9.4344859,10.995609 7.8786642,10.928244 6.4098823,10.864656 4.0870567,12.85283 3.1619607,11.710218 2.3245629,10.675925 2.9220312,8.7774362 3.0675637,7.4546292 3.2117825,6.1437633 3.4412905,5.3573198 4.3752589,4.4262603 Z" />
    <path
       d="M 1,1 H 2 V 2 H 1 Z M 3,1 H 4 V 2 H 3 Z M 5,1 H 6 V 2 H 5 Z M 7,1 H 8 V 2 H 7 Z m 2,0 h 1 V 2 H 9 Z m 2,0 h 1 v 1 h -1 z m 2,0 h 1 v 1 h -1 z m 0,2 h 1 v 1 h -1 z m 0,2 h 1 v 1 h -1 z m 0,2 h 1 v 1 h -1 z m 0,2 h 1 v 1 h -1 z m 0,2 h 1 v 1 h -1 z m 0,2 h 1 v 1 h -1 z m -2,0 h 1 v 1 h -1 z m -2,0 h 1 v 1 H 9 Z m -2,0 h 1 v 1 H 7 Z m -2,0 h 1 v 1 H 5 Z m -2,0 h 1 v 1 H 3 Z m -2,0 h 1 v 1 H 1 Z m 0,-2 h 1 v 1 H 1 Z M 1,9 h 1 v 1 H 1 Z M 1,7 H 2 V 8 H 1 Z M 1,5 H 2 V 6 H 1 Z M 1,3 H 2 V 4 H 1 Z m 2,9 c -2,3 -1,1 0,0 z" />
  </g>
</svg>
