<?xml version="1.0" encoding="UTF-8" standalone="no"?>
<svg version="1.1" width="16" height="16">
  <path
     fill="#474747"
     d="M 3.3066406 0.064453125 C 2.7610571 -0.031747965 2.2446386 0.3294165 2.1484375 0.875 L 0.064453125 12.693359 C -0.031747965 13.238943 0.3294165 13.755361 0.875 13.851562 L 12.693359 15.935547 C 13.238943 16.031748 13.755361 15.670583 13.851562 15.125 L 15.935547 3.3066406 C 16.031748 2.7610571 15.670583 2.2446386 15.125 2.1484375 L 3.3066406 0.064453125 z M 7.46875 2.9980469 A 5.5028303 5.4937896 0 0 1 12.154297 5.4609375 L 12.154297 3.9160156 A 0.92236512 0.91576632 0 0 1 13.078125 3 L 14 3 L 14 8.4941406 L 8.4648438 8.4941406 L 8.4648438 7.578125 A 0.92236512 0.91576632 0 0 1 9.3886719 6.6621094 L 10.714844 6.6621094 C 10.474106 6.2454355 10.160288 5.7467871 9.7636719 5.5742188 C 8.1246286 4.3733397 5.8329198 4.6636988 4.6015625 6.2910156 C 3.3665515 7.9183322 3.685176 10.194263 5.3242188 11.414062 C 6.9623393 12.615858 9.2538309 12.324583 10.482422 10.697266 A 0.94450187 0.9377447 0 0 1 11.232422 10.326172 L 12.154297 10.326172 L 12.154297 11.242188 C 12.156143 11.435412 11.980469 11.629475 11.980469 11.785156 C 10.153262 14.204611 6.6654041 14.715562 4.2285156 12.902344 C 1.7925491 11.087295 1.277341 7.6225795 3.1054688 5.203125 A 5.5618617 5.4937896 0 0 1 6.765625 3 L 7.2851562 3 L 7.3535156 3 A 5.5028303 5.4937896 0 0 1 7.46875 2.9980469 z " />
</svg>
