<svg width="16" height="16">
  <g fill="#474747">
    <path
       d="M 3,3 h 9 L 12,12 3,12 Z" />
    <path
       d="M 1,1 H 2 V 2 H 1 Z M 3,1 H 4 V 2 H 3 Z M 5,1 H 6 V 2 H 5 Z M 7,1 H 8 V 2 H 7 Z m 2,0 h 1 V 2 H 9 Z m 2,0 h 1 v 1 h -1 z m 2,0 h 1 v 1 h -1 z m 0,2 h 1 v 1 h -1 z m 0,2 h 1 v 1 h -1 z m 0,2 h 1 v 1 h -1 z m 0,2 h 1 v 1 h -1 z m 0,2 h 1 v 1 h -1 z m 0,2 h 1 v 1 h -1 z m -2,0 h 1 v 1 h -1 z m -2,0 h 1 v 1 H 9 Z m -2,0 h 1 v 1 H 7 Z m -2,0 h 1 v 1 H 5 Z m -2,0 h 1 v 1 H 3 Z m -2,0 h 1 v 1 H 1 Z m 0,-2 h 1 v 1 H 1 Z M 1,9 h 1 v 1 H 1 Z M 1,7 H 2 V 8 H 1 Z M 1,5 H 2 V 6 H 1 Z M 1,3 H 2 V 4 H 1 Z m 2,9 c -2,3 -1,1 0,0 z" />
  </g>
</svg>
