<?xml version="1.0" encoding="UTF-8" standalone="no"?>
<svg version="1.1" width="16" height="16">
  <g fill="#474747">
    <path d="M5 1.762a.75.75 0 0 0-.57.25C4.18 2.302 2 4.908 2 7c0 .774.267 1.5.752 2.045C3.14 9.48 3.843 10 5 10c1.969 0 3-1.509 3-3C8 4.908 5.817 2.302 5.57 2.012A.745.745 0 0 0 5 1.762zM11 5.762a.75.75 0 0 0-.57.25C10.18 6.302 8 8.908 8 11c0 .774.266 1.5.751 2.045C9.138 13.48 9.843 14 11 14c1.969 0 3-1.509 3-3 0-2.092-2.183-4.698-2.431-4.988a.745.745 0 0 0-.569-.25z" />
  </g>
</svg>
