<?xml version="1.0" encoding="UTF-8" standalone="no"?>
<svg version="1.1" width="16" height="16">
  <g fill="#474747">
    <path
       d="m 1.884,14.821 h 1.612 v -3.25 c 0.403,0.364 0.936,0.559 1.56,0.559 1.703,0 2.925,-1.404 2.925,-3.393 0,-1.885 -1.131,-3.185 -2.756,-3.185 -0.767,0 -1.443,0.299 -1.924,0.832 L 3.002,5.682 H 1.884 Z M 4.757,6.956 c 0.949,0 1.547,0.728 1.547,1.911 0,1.144 -0.546,1.859 -1.469,1.859 -0.559,0 -1.053,-0.273 -1.339,-0.715 V 7.489 C 3.821,7.151 4.276,6.956 4.757,6.956 Z" />
    <path
       d="m 8.4914531,12 h 1.7939999 l 1.3,-1.924 1.274,1.924 h 1.898 l -2.275,-3.172 2.418,-3.146 h -1.846 l -1.365,2.002 -1.313,-2.002 H 8.4654531 l 2.3399999,3.224 z" />
  </g>
</svg>
