<?xml version="1.0" encoding="UTF-8" standalone="no"?>
<svg version="1.1" width="16" height="16">
  <g fill="#474747">
    <path
       d="m 4.055,8.62 c 1.456,0 2.392,-1.131 2.392,-2.938 0,-1.742 -0.91,-2.834 -2.34,-2.834 -1.469,0 -2.405,1.118 -2.405,2.912 0,1.755 0.923,2.86 2.353,2.86 z M 4.289,12 H 5.797 L 10.854,2.978 H 9.203 Z M 4.094,7.411 c -0.585,0 -0.949,-0.663 -0.949,-1.729 0,-1.014 0.351,-1.625 0.91,-1.625 0.585,0 0.949,0.65 0.949,1.716 0,1.014 -0.351,1.638 -0.91,1.638 z m 6.903,4.667 c 1.456,0 2.392,-1.131 2.392,-2.925 0,-1.742 -0.91,-2.847 -2.34,-2.847 -1.469,0 -2.405,1.131 -2.405,2.912 0,1.768 0.923,2.86 2.353,2.86 z m 0.039,-1.209 c -0.585,0 -0.949,-0.65 -0.949,-1.716 0,-1.014 0.351,-1.625 0.923,-1.625 0.572,0 0.936,0.637 0.936,1.703 0,1.027 -0.351,1.638 -0.91,1.638 z" />
  </g>
</svg>
