<?xml version="1.0" encoding="UTF-8"?>
<svg xmlns="http://www.w3.org/2000/svg" xmlns:xlink="http://www.w3.org/1999/xlink" width="128px" height="128px" viewBox="0 0 128 128" version="1.1">
<defs>
<radialGradient id="radial0" gradientUnits="userSpaceOnUse" cx="450.908936" cy="189.579361" fx="450.908936" fy="189.579361" r="21.166656" gradientTransform="matrix(0.000000696681,-0.31253,-0.562554,-0.000000406154,175.446522,254.381318)">
<stop offset="0" style="stop-color:rgb(0%,0%,0%);stop-opacity:0.313726;"/>
<stop offset="0.222222" style="stop-color:rgb(0%,0%,0%);stop-opacity:0.27451;"/>
<stop offset="1" style="stop-color:rgb(0%,0%,0%);stop-opacity:0;"/>
</radialGradient>
<radialGradient id="radial1" gradientUnits="userSpaceOnUse" cx="450.908936" cy="189.579361" fx="450.908936" fy="189.579361" r="21.166656" gradientTransform="matrix(-0.000000696681,0.31253,0.562554,0.000000406154,-53.726561,-30.109928)">
<stop offset="0" style="stop-color:rgb(0%,0%,0%);stop-opacity:0.313726;"/>
<stop offset="0.222222" style="stop-color:rgb(0%,0%,0%);stop-opacity:0.27451;"/>
<stop offset="1" style="stop-color:rgb(0%,0%,0%);stop-opacity:0;"/>
</radialGradient>
<radialGradient id="radial2" gradientUnits="userSpaceOnUse" cx="450.908936" cy="189.579361" fx="450.908936" fy="189.579361" r="21.166656" gradientTransform="matrix(-0.000000696681,-0.31253,0.562554,-0.000000406154,-53.726561,254.381318)">
<stop offset="0" style="stop-color:rgb(0%,0%,0%);stop-opacity:0.313726;"/>
<stop offset="0.222222" style="stop-color:rgb(0%,0%,0%);stop-opacity:0.27451;"/>
<stop offset="1" style="stop-color:rgb(0%,0%,0%);stop-opacity:0;"/>
</radialGradient>
<radialGradient id="radial3" gradientUnits="userSpaceOnUse" cx="450.908936" cy="189.579361" fx="450.908936" fy="189.579361" r="21.166656" gradientTransform="matrix(0.000000696681,0.31253,-0.562554,0.000000406154,175.446514,-30.10993)">
<stop offset="0" style="stop-color:rgb(0%,0%,0%);stop-opacity:0.313726;"/>
<stop offset="0.222222" style="stop-color:rgb(0%,0%,0%);stop-opacity:0.27451;"/>
<stop offset="1" style="stop-color:rgb(0%,0%,0%);stop-opacity:0;"/>
</radialGradient>
<linearGradient id="linear0" gradientUnits="userSpaceOnUse" x1="255.323059" y1="233.5" x2="255.323044" y2="254.666656" gradientTransform="matrix(0.0534402,0,0,0.250024,47.215459,53.755135)">
<stop offset="0" style="stop-color:rgb(0%,0%,0%);stop-opacity:0.27451;"/>
<stop offset="1" style="stop-color:rgb(0%,0%,0%);stop-opacity:0;"/>
</linearGradient>
<linearGradient id="linear1" gradientUnits="userSpaceOnUse" x1="222.222565" y1="233.5" x2="232.805893" y2="-168.666672" gradientTransform="matrix(0.250024,0,0,0.250024,-2.639226,53.755133)">
<stop offset="0" style="stop-color:rgb(87.843138%,87.843138%,87.843138%);stop-opacity:1;"/>
<stop offset="1" style="stop-color:rgb(93.333334%,93.333334%,93.333334%);stop-opacity:1;"/>
</linearGradient>
<linearGradient id="linear2" gradientUnits="userSpaceOnUse" x1="316.079865" y1="-15.06434" x2="316.079865" y2="-105.022667" gradientTransform="matrix(0.225801,0,0,0.218603,-24.12449,104.429038)">
<stop offset="0" style="stop-color:rgb(25.882354%,64.705884%,96.078432%);stop-opacity:1;"/>
<stop offset="1" style="stop-color:rgb(39.215687%,70.980394%,96.470588%);stop-opacity:1;"/>
</linearGradient>
<linearGradient id="linear3" gradientUnits="userSpaceOnUse" x1="316.079865" y1="-15.06434" x2="316.079865" y2="-105.022667" gradientTransform="matrix(0.250024,0,0,0.250024,-52.781228,78.300121)">
<stop offset="0" style="stop-color:rgb(93.725491%,32.549021%,31.37255%);stop-opacity:1;"/>
<stop offset="1" style="stop-color:rgb(89.803922%,45.09804%,45.09804%);stop-opacity:1;"/>
</linearGradient>
<linearGradient id="linear4" gradientUnits="userSpaceOnUse" x1="316.079865" y1="-15.06434" x2="316.079865" y2="-105.022667" gradientTransform="matrix(0.250024,0,0,0.250024,-40.926969,49.524331)">
<stop offset="0" style="stop-color:rgb(40.000001%,73.333335%,41.568628%);stop-opacity:1;"/>
<stop offset="1" style="stop-color:rgb(50.588238%,78.039217%,51.764709%);stop-opacity:1;"/>
</linearGradient>
<linearGradient id="linear5" gradientUnits="userSpaceOnUse" x1="316.079865" y1="-15.06434" x2="316.079865" y2="-105.022667" gradientTransform="matrix(0.250024,0,0,0.250024,-9.173937,44.232159)">
<stop offset="0" style="stop-color:rgb(49.411765%,34.117648%,76.078433%);stop-opacity:1;"/>
<stop offset="1" style="stop-color:rgb(58.431375%,45.882353%,80.392158%);stop-opacity:1;"/>
</linearGradient>
<radialGradient id="radial4" gradientUnits="userSpaceOnUse" cx="450.908936" cy="189.579361" fx="450.908936" fy="189.579361" r="21.166656" gradientTransform="matrix(0.000000348341,-0.156265,-0.281277,-0.000000203077,142.629574,175.320176)">
<stop offset="0" style="stop-color:rgb(0%,0%,0%);stop-opacity:0.313726;"/>
<stop offset="0.222222" style="stop-color:rgb(0%,0%,0%);stop-opacity:0.27451;"/>
<stop offset="1" style="stop-color:rgb(0%,0%,0%);stop-opacity:0;"/>
</radialGradient>
<radialGradient id="radial5" gradientUnits="userSpaceOnUse" cx="450.908936" cy="189.579361" fx="450.908936" fy="189.579361" r="21.166656" gradientTransform="matrix(-0.000000348341,0.156265,0.281277,0.000000203077,37.304276,33.074722)">
<stop offset="0" style="stop-color:rgb(0%,0%,0%);stop-opacity:0.313726;"/>
<stop offset="0.222222" style="stop-color:rgb(0%,0%,0%);stop-opacity:0.27451;"/>
<stop offset="1" style="stop-color:rgb(0%,0%,0%);stop-opacity:0;"/>
</radialGradient>
<radialGradient id="radial6" gradientUnits="userSpaceOnUse" cx="450.908936" cy="189.579361" fx="450.908936" fy="189.579361" r="21.166656" gradientTransform="matrix(-0.000000348341,-0.156265,0.281277,-0.000000203077,37.304276,175.320176)">
<stop offset="0" style="stop-color:rgb(0%,0%,0%);stop-opacity:0.313726;"/>
<stop offset="0.222222" style="stop-color:rgb(0%,0%,0%);stop-opacity:0.27451;"/>
<stop offset="1" style="stop-color:rgb(0%,0%,0%);stop-opacity:0;"/>
</radialGradient>
<radialGradient id="radial7" gradientUnits="userSpaceOnUse" cx="450.908936" cy="189.579361" fx="450.908936" fy="189.579361" r="21.166656" gradientTransform="matrix(0.000000348341,0.156265,-0.281277,0.000000203077,142.62957,33.074721)">
<stop offset="0" style="stop-color:rgb(0%,0%,0%);stop-opacity:0.313726;"/>
<stop offset="0.222222" style="stop-color:rgb(0%,0%,0%);stop-opacity:0.27451;"/>
<stop offset="1" style="stop-color:rgb(0%,0%,0%);stop-opacity:0;"/>
</radialGradient>
<linearGradient id="linear6" gradientUnits="userSpaceOnUse" x1="187.386063" y1="195.040436" x2="256.177734" y2="75.889771" gradientTransform="matrix(0.216527,-0.125012,0.125012,0.216527,6.487791,85.391422)">
<stop offset="0" style="stop-color:rgb(100%,65.490198%,14.901961%);stop-opacity:1;"/>
<stop offset="1" style="stop-color:rgb(100%,71.764708%,30.19608%);stop-opacity:1;"/>
</linearGradient>
<linearGradient id="linear7" gradientUnits="userSpaceOnUse" x1="221.971863" y1="92.80275" x2="264.305206" y2="19.479267" gradientTransform="matrix(0.216527,-0.125012,0.125012,0.216527,6.487789,85.391422)">
<stop offset="0" style="stop-color:rgb(74.117649%,74.117649%,74.117649%);stop-opacity:1;"/>
<stop offset="1" style="stop-color:rgb(87.843138%,87.843138%,87.843138%);stop-opacity:1;"/>
</linearGradient>
<linearGradient id="linear8" gradientUnits="userSpaceOnUse" x1="243.416672" y1="64.166664" x2="243.416672" y2="-41.666668" gradientTransform="matrix(1,0,0,1,0,-31.74999)">
<stop offset="0" style="stop-color:rgb(38.039216%,38.039216%,38.039216%);stop-opacity:1;"/>
<stop offset="1" style="stop-color:rgb(45.882353%,45.882353%,45.882353%);stop-opacity:1;"/>
</linearGradient>
<linearGradient id="linear9" gradientUnits="userSpaceOnUse" x1="316.079865" y1="-15.06434" x2="316.079865" y2="-105.022667" gradientTransform="matrix(0.210518,0,0,0.204439,25.345785,68.150601)">
<stop offset="0" style="stop-color:rgb(100%,65.490198%,14.901961%);stop-opacity:1;"/>
<stop offset="1" style="stop-color:rgb(100%,71.764708%,30.19608%);stop-opacity:1;"/>
</linearGradient>
</defs>
<g id="surface1">
<path style=" stroke:none;fill-rule:nonzero;fill:url(#radial0);" d="M 70.121094 112.136719 L 80.707031 112.136719 L 80.707031 106.84375 L 70.121094 106.84375 Z M 70.121094 112.136719 "/>
<path style=" stroke:none;fill-rule:nonzero;fill:url(#radial1);" d="M 51.597656 112.136719 L 41.015625 112.136719 L 41.015625 117.429688 L 51.597656 117.429688 Z M 51.597656 112.136719 "/>
<path style=" stroke:none;fill-rule:nonzero;fill:url(#radial2);" d="M 51.597656 112.136719 L 41.015625 112.136719 L 41.015625 106.84375 L 51.597656 106.84375 Z M 51.597656 112.136719 "/>
<path style=" stroke:none;fill-rule:nonzero;fill:url(#radial3);" d="M 70.121094 112.136719 L 80.707031 112.136719 L 80.707031 117.429688 L 70.121094 117.429688 Z M 70.121094 112.136719 "/>
<path style=" stroke:none;fill-rule:nonzero;fill:url(#linear0);" d="M 51.597656 110.8125 L 70.121094 110.8125 L 70.121094 117.429688 L 51.597656 117.429688 Z M 51.597656 110.8125 "/>
<path style=" stroke:none;fill-rule:nonzero;fill:url(#linear1);" d="M 60.867188 11.585938 C 33.015625 11.585938 10.589844 34.007812 10.589844 61.859375 C 10.589844 89.710938 33.015625 112.136719 60.867188 112.136719 C 64.855469 112.136719 68.730469 111.675781 72.445312 110.804688 C 87.328125 106.84375 52.929688 80.382812 74.097656 75.089844 C 95.265625 69.796875 111.140625 77.738281 111.140625 61.859375 C 111.140625 34.007812 88.71875 11.585938 60.867188 11.585938 Z M 60.867188 11.585938 "/>
<path style=" stroke:none;fill-rule:nonzero;fill:url(#linear2);" d="M 51.964844 98.066406 C 49.035156 99.058594 52.894531 100.179688 49.851562 100.078125 C 46.808594 99.976562 48.792969 98.613281 45.789062 97.882812 C 42.785156 97.152344 43.28125 101.492188 40.730469 100.089844 C 38.175781 98.683594 42.433594 97.390625 40.414062 95.042969 C 38.390625 92.695312 38.410156 97.085938 37.253906 94.378906 C 36.09375 91.671875 38.714844 93.558594 38.648438 90.667969 C 38.578125 87.777344 35.203125 89.816406 36.695312 87.25 C 38.191406 84.683594 37.984375 88.097656 40.292969 85.996094 C 42.601562 83.898438 40.691406 82.960938 43.34375 81.566406 C 46 80.175781 42.125 82.003906 45.300781 82.074219 C 48.476562 82.144531 48.136719 80.84375 51.015625 81.839844 C 53.894531 82.832031 51.140625 82.417969 53.707031 83.882812 C 56.277344 85.347656 54.222656 83.449219 55.867188 85.753906 C 57.515625 88.0625 55.496094 85.113281 56.195312 87.839844 C 56.890625 90.566406 57.742188 87.234375 58.105469 90.144531 C 58.46875 93.054688 57.382812 91.261719 56.425781 93.949219 C 55.46875 96.632812 58.789062 95.203125 56.4375 97.054688 C 54.085938 98.90625 54.890625 97.070312 51.964844 98.066406 Z M 51.964844 98.066406 "/>
<path style=" stroke:none;fill-rule:nonzero;fill:url(#linear3);" d="M 31.753906 69.796875 C 28.550781 71.070312 30.027344 74.230469 26.679688 74.457031 C 23.332031 74.683594 28.179688 73.1875 24.667969 72.367188 C 21.15625 71.542969 22.84375 74.238281 19.507812 72.765625 C 16.175781 71.292969 22.8125 70.472656 20.324219 68.089844 C 17.835938 65.710938 17.09375 68.589844 16.328125 65.253906 C 15.5625 61.914062 18.71875 65.550781 18.550781 61.851562 C 18.378906 58.148438 15.226562 61.070312 16.277344 57.890625 C 17.328125 54.710938 16.183594 58.957031 18.570312 56.507812 C 20.953125 54.058594 19.078125 55.011719 22.226562 53.164062 C 25.375 51.320312 23.066406 54.210938 26.4375 54.246094 C 29.804688 54.28125 26.027344 50.90625 29.332031 51.5 C 32.636719 52.097656 28.304688 53.46875 31.40625 54.949219 C 34.503906 56.433594 34.898438 52.105469 36.925781 54.890625 C 38.957031 57.675781 33.171875 57.867188 34.34375 61.09375 C 35.511719 64.316406 37.996094 58.546875 37.25 62.121094 C 36.507812 65.695312 36.914062 64.289062 35.328125 67.367188 C 33.742188 70.441406 38.445312 68.441406 35.90625 71.011719 C 33.363281 73.582031 34.957031 68.523438 31.753906 69.796875 Z M 31.753906 69.796875 "/>
<path style=" stroke:none;fill-rule:nonzero;fill:url(#linear4);" d="M 42.070312 41.789062 C 38.984375 43.082031 41.609375 45.492188 38.402344 45.691406 C 35.199219 45.894531 38.753906 45.449219 35.664062 44.253906 C 32.570312 43.054688 34.546875 45.382812 31.304688 44.019531 C 28.0625 42.65625 33.359375 41.46875 30.902344 39.136719 C 28.441406 36.800781 29.003906 39.613281 28.289062 36.40625 C 27.578125 33.195312 28.417969 35.59375 29.121094 32.40625 C 29.824219 29.21875 27.210938 32.164062 28.183594 29.113281 C 29.160156 26.0625 28.496094 29.621094 30.832031 27.078125 C 33.164062 24.535156 31.148438 26.308594 34.171875 24.507812 C 37.199219 22.703125 33.808594 24.96875 37.265625 24.042969 C 40.722656 23.113281 38.019531 22.214844 41.183594 22.769531 C 44.351562 23.320312 42.21875 22.613281 44.996094 24.425781 C 47.773438 26.238281 46.917969 23.375 48.863281 26.046875 C 50.808594 28.722656 46.480469 26.710938 47.550781 29.84375 C 48.625 32.980469 49.757812 29.785156 48.988281 33.226562 C 48.21875 36.664062 49.257812 33.4375 47.863281 36.726562 C 46.46875 40.011719 50.285156 39.792969 47.832031 42.265625 C 45.375 44.734375 45.15625 40.496094 42.070312 41.789062 Z M 42.070312 41.789062 "/>
<path style=" stroke:none;fill-rule:nonzero;fill:rgb(100%,100%,100%);fill-opacity:1;" d="M 60.867188 11.585938 C 33.015625 11.585938 10.589844 34.007812 10.589844 61.859375 C 10.589844 62.082031 10.59375 62.300781 10.59375 62.523438 C 10.945312 34.976562 33.234375 12.90625 60.867188 12.90625 C 88.453125 12.90625 110.714844 34.90625 111.136719 62.390625 C 111.140625 62.214844 111.140625 62.039062 111.140625 61.859375 C 111.140625 34.007812 88.71875 11.585938 60.867188 11.585938 Z M 67.027344 82.988281 C 66.46875 90.117188 75.621094 100.671875 76.273438 107.078125 C 76.957031 101.246094 67.578125 90.59375 67.027344 82.988281 Z M 67.027344 82.988281 "/>
<path style=" stroke:none;fill-rule:nonzero;fill:rgb(0%,0%,0%);fill-opacity:0.235294;" d="M 111.136719 61.175781 C 110.839844 76.453125 95.0625 68.71875 74.097656 73.960938 C 68.523438 75.351562 66.804688 78.210938 67.019531 81.742188 C 67.226562 78.738281 69.132812 76.332031 74.097656 75.089844 C 95.265625 69.796875 111.140625 77.738281 111.140625 61.859375 C 111.140625 61.632812 111.140625 61.402344 111.136719 61.175781 Z M 10.59375 61.292969 C 10.59375 61.484375 10.589844 61.671875 10.589844 61.859375 C 10.589844 89.710938 33.015625 112.136719 60.867188 112.136719 C 64.855469 112.136719 68.730469 111.675781 72.445312 110.804688 C 75.515625 109.988281 76.488281 108.214844 76.28125 105.863281 C 76.101562 107.652344 75 108.996094 72.445312 109.675781 C 68.730469 110.542969 64.855469 111.003906 60.867188 111.003906 C 33.203125 111.003906 10.894531 88.882812 10.59375 61.292969 Z M 10.59375 61.292969 "/>
<path style=" stroke:none;fill-rule:nonzero;fill:url(#linear5);" d="M 75.988281 38.730469 C 73.097656 39.730469 73.21875 40.207031 70.15625 40.398438 C 67.09375 40.59375 71.757812 40.105469 68.640625 39.78125 C 65.523438 39.460938 66.15625 40.03125 63.058594 38.726562 C 59.960938 37.421875 63.347656 39.148438 61.710938 36.460938 C 60.074219 33.773438 60.726562 34.179688 60.042969 31.113281 C 59.359375 28.046875 58.589844 30.203125 59.195312 27.160156 C 59.800781 24.113281 59.003906 26.738281 59.9375 23.820312 C 60.871094 20.90625 60.761719 22.84375 63.070312 20.425781 C 65.375 18.007812 63.035156 20.9375 65.925781 19.214844 C 68.820312 17.492188 65.8125 16.324219 68.910156 16.421875 C 72.007812 16.519531 69.914062 16.949219 72.9375 17.476562 C 75.964844 18.003906 74.894531 15.9375 77.738281 17.628906 C 80.582031 19.320312 78.757812 18.199219 80.617188 20.757812 C 82.476562 23.3125 81.871094 22.070312 82.574219 25.128906 C 83.273438 28.1875 81.476562 24.644531 80.742188 27.933594 C 80.007812 31.222656 81.847656 30.957031 80.976562 34.011719 C 80.105469 37.066406 81.929688 34.609375 79.582031 36.972656 C 77.234375 39.335938 78.875 37.730469 75.988281 38.730469 Z M 75.988281 38.730469 "/>
<path style=" stroke:none;fill-rule:nonzero;fill:url(#radial4);" d="M 89.96875 104.199219 L 95.257812 104.199219 L 95.257812 101.550781 L 89.96875 101.550781 Z M 89.96875 104.199219 "/>
<path style=" stroke:none;fill-rule:nonzero;fill:url(#radial5);" d="M 89.96875 104.199219 L 84.675781 104.199219 L 84.675781 106.84375 L 89.96875 106.84375 Z M 89.96875 104.199219 "/>
<path style=" stroke:none;fill-rule:nonzero;fill:url(#radial6);" d="M 89.96875 104.199219 L 84.675781 104.199219 L 84.675781 101.550781 L 89.96875 101.550781 Z M 89.96875 104.199219 "/>
<path style=" stroke:none;fill-rule:nonzero;fill:url(#radial7);" d="M 89.96875 104.199219 L 95.257812 104.199219 L 95.257812 106.84375 L 89.96875 106.84375 Z M 89.96875 104.199219 "/>
<path style=" stroke:none;fill-rule:nonzero;fill:rgb(0%,0%,0%);fill-opacity:0.235294;" d="M 81.925781 26.40625 C 81.515625 26.390625 81.039062 26.597656 80.742188 27.933594 C 80.453125 29.214844 80.5625 29.957031 80.746094 30.566406 C 81.480469 27.300781 83.273438 30.828125 82.574219 27.773438 C 82.4375 27.1875 82.359375 26.792969 82.292969 26.464844 C 82.183594 26.441406 82.058594 26.414062 81.925781 26.40625 Z M 59.292969 29.292969 C 59.265625 29.445312 59.234375 29.613281 59.195312 29.804688 C 58.589844 32.851562 59.359375 30.691406 60.042969 33.757812 C 60.726562 36.824219 60.074219 36.417969 61.710938 39.105469 C 63.347656 41.792969 59.960938 40.070312 63.058594 41.375 C 66.15625 42.679688 65.523438 42.105469 68.640625 42.429688 C 71.757812 42.75 67.09375 43.238281 70.15625 43.046875 C 73.21875 42.851562 73.097656 42.378906 75.988281 41.378906 C 78.875 40.378906 77.234375 41.980469 79.582031 39.617188 C 81.929688 37.257812 80.105469 39.710938 80.976562 36.65625 C 81.363281 35.296875 81.214844 34.597656 80.992188 33.945312 C 80.988281 33.96875 80.984375 33.988281 80.976562 34.011719 C 80.105469 37.066406 81.929688 34.609375 79.582031 36.972656 C 77.234375 39.335938 78.875 37.730469 75.988281 38.730469 C 73.097656 39.730469 73.21875 40.207031 70.15625 40.398438 C 67.09375 40.59375 71.757812 40.105469 68.640625 39.78125 C 65.523438 39.460938 66.15625 40.03125 63.058594 38.726562 C 59.960938 37.421875 63.347656 39.148438 61.710938 36.460938 C 60.074219 33.773438 60.726562 34.179688 60.042969 31.113281 C 59.777344 29.921875 59.5 29.519531 59.292969 29.292969 Z M 59.292969 29.292969 "/>
<path style=" stroke:none;fill-rule:nonzero;fill:rgb(100%,100%,100%);fill-opacity:0.392157;" d="M 68.636719 16.417969 C 65.996094 16.398438 68.726562 17.546875 65.925781 19.214844 C 63.035156 20.9375 65.375 18.007812 63.070312 20.425781 C 60.761719 22.84375 60.871094 20.90625 59.9375 23.820312 C 59.003906 26.738281 59.800781 24.113281 59.195312 27.160156 C 58.871094 28.792969 58.941406 28.929688 59.183594 29.179688 C 59.1875 29.15625 59.191406 29.140625 59.195312 29.117188 C 59.800781 26.074219 59.003906 28.699219 59.9375 25.78125 C 60.871094 22.863281 60.761719 24.804688 63.070312 22.386719 C 65.375 19.96875 63.035156 22.894531 65.925781 21.171875 C 68.816406 19.449219 65.8125 18.285156 68.910156 18.382812 C 72.007812 18.480469 69.914062 18.90625 72.9375 19.4375 C 75.964844 19.964844 74.894531 17.894531 77.738281 19.585938 C 80.582031 21.277344 78.757812 20.160156 80.617188 22.714844 C 82.34375 25.085938 81.949219 24.195312 82.441406 26.488281 C 82.730469 26.519531 82.851562 26.355469 82.574219 25.128906 C 81.871094 22.070312 82.476562 23.3125 80.617188 20.757812 C 78.757812 18.199219 80.582031 19.320312 77.738281 17.628906 C 74.894531 15.9375 75.964844 18.003906 72.9375 17.476562 C 69.914062 16.949219 72.007812 16.519531 68.910156 16.421875 C 68.8125 16.417969 68.722656 16.417969 68.636719 16.417969 Z M 80.664062 30.273438 C 80.355469 32.027344 80.84375 32.671875 81.089844 33.566406 C 81.464844 31.878906 80.90625 31.320312 80.664062 30.273438 Z M 80.664062 30.273438 "/>
<path style="fill:none;stroke-width:3;stroke-linecap:round;stroke-linejoin:round;stroke:rgb(12.941177%,12.941177%,12.941177%);stroke-opacity:0.96129;stroke-miterlimit:4;" d="M 340.616347 -22.004661 C 329.054951 -18.005043 329.53928 -16.098975 317.29045 -15.333423 C 305.041619 -14.552248 323.696088 -16.505186 311.228529 -17.801937 C 298.760969 -19.083065 301.291977 -16.802033 288.902536 -22.020285 C 276.513094 -27.238536 290.058675 -20.332946 283.512425 -31.081919 C 276.966175 -41.830893 279.575301 -40.206048 276.841187 -52.470502 C 274.107073 -64.734956 271.029242 -56.110779 273.450886 -68.281492 C 275.87253 -80.467828 272.685334 -69.968831 276.419353 -81.639591 C 280.153371 -93.294728 279.715913 -85.545468 288.949406 -95.21642 C 298.167276 -104.887371 288.808795 -93.16974 300.37019 -100.059707 C 311.94721 -106.949674 299.917109 -111.621103 312.306551 -111.230515 C 324.695992 -110.839928 316.321792 -109.121342 328.414387 -107.012168 C 340.522606 -104.902995 336.241765 -113.16783 347.615679 -106.402851 C 358.989593 -99.637872 351.693414 -104.121819 359.130204 -93.888421 C 366.566994 -83.670647 364.14535 -88.638923 366.957582 -76.405716 C 369.75419 -64.172509 362.567376 -78.343031 359.630156 -65.188037 C 356.692937 -52.033043 364.051609 -53.095442 360.567567 -40.877859 C 357.083525 -28.660275 364.379703 -38.487462 354.989975 -29.03524 C 345.600246 -19.583017 352.16212 -26.004279 340.616347 -22.004661 Z M 340.616347 -22.004661 " transform="matrix(0.250024,0,0,0.250024,-9.173937,44.232159)"/>
<path style=" stroke:none;fill-rule:nonzero;fill:rgb(12.941177%,12.941177%,12.941177%);fill-opacity:1;" d="M 60.867188 11.210938 C 32.8125 11.210938 10.214844 33.804688 10.214844 61.859375 C 10.214844 89.914062 32.8125 112.511719 60.867188 112.511719 C 64.882812 112.511719 68.789062 112.046875 72.53125 111.171875 L 72.535156 111.171875 L 72.542969 111.167969 C 74.46875 110.65625 75.679688 109.738281 76.261719 108.511719 C 76.839844 107.28125 76.78125 105.8125 76.367188 104.203125 C 75.542969 100.992188 73.289062 97.148438 71.246094 93.273438 C 69.203125 89.394531 67.390625 85.492188 67.375 82.34375 C 67.367188 80.769531 67.789062 79.398438 68.835938 78.234375 C 69.886719 77.070312 71.589844 76.105469 74.1875 75.453125 C 84.707031 72.824219 93.921875 73.484375 100.59375 72.816406 C 103.933594 72.484375 106.660156 71.820312 108.574219 70.164062 C 110.492188 68.511719 111.515625 65.890625 111.515625 61.859375 C 111.515625 33.804688 88.921875 11.210938 60.867188 11.210938 Z M 60.867188 11.960938 C 88.519531 11.960938 110.765625 34.207031 110.765625 61.859375 C 110.765625 65.765625 109.808594 68.109375 108.085938 69.597656 C 106.363281 71.085938 103.800781 71.742188 100.519531 72.070312 C 93.964844 72.726562 84.65625 72.066406 74.007812 74.726562 C 71.3125 75.398438 69.460938 76.421875 68.28125 77.730469 C 67.101562 79.042969 66.617188 80.636719 66.625 82.347656 C 66.644531 85.773438 68.53125 89.726562 70.582031 93.621094 C 72.632812 97.515625 74.863281 101.363281 75.640625 104.390625 C 76.03125 105.90625 76.050781 107.191406 75.582031 108.191406 C 75.109375 109.1875 74.140625 109.964844 72.351562 110.441406 C 68.667969 111.304688 64.824219 111.761719 60.867188 111.761719 C 33.214844 111.761719 10.964844 89.511719 10.964844 61.859375 C 10.964844 34.207031 33.214844 11.960938 60.867188 11.960938 Z M 60.867188 11.960938 "/>
<path style=" stroke:none;fill-rule:nonzero;fill:url(#linear6);" d="M 63.554688 57.21875 C 66.085938 55.757812 74.058594 64.832031 81.367188 77.488281 L 82.027344 78.636719 C 89.335938 91.292969 93.207031 102.734375 90.675781 104.199219 C 88.144531 105.660156 80.167969 96.582031 72.863281 83.929688 L 72.199219 82.78125 C 64.894531 70.125 61.023438 58.679688 63.554688 57.21875 Z M 63.554688 57.21875 "/>
<path style=" stroke:none;fill-rule:nonzero;fill:rgb(0%,0%,0%);fill-opacity:0.235294;" d="M 62.804688 58.742188 C 62.398438 62.523438 66.09375 72.203125 72.199219 82.78125 L 72.863281 83.925781 C 80.191406 96.621094 88.136719 105.664062 90.675781 104.199219 C 91.3125 103.828125 91.546875 102.835938 91.425781 101.351562 C 91.34375 102.109375 91.097656 102.628906 90.675781 102.875 C 88.136719 104.339844 80.191406 95.300781 72.863281 82.605469 L 72.199219 81.457031 C 66.710938 71.949219 63.167969 63.167969 62.804688 58.742188 Z M 62.804688 58.742188 "/>
<path style=" stroke:none;fill-rule:nonzero;fill:url(#linear7);" d="M 63.554688 57.21875 C 61.453125 58.433594 63.734375 66.457031 68.742188 76.386719 C 72.765625 79.058594 78.058594 75.089844 77.558594 71.296875 C 71.464844 61.996094 65.65625 56.007812 63.554688 57.21875 Z M 63.554688 57.21875 "/>
<path style=" stroke:none;fill-rule:nonzero;fill:rgb(100%,100%,100%);fill-opacity:0.392157;" d="M 64.167969 57.0625 C 63.9375 57.066406 63.730469 57.117188 63.554688 57.21875 C 62.863281 57.621094 62.644531 58.757812 62.84375 60.453125 C 62.953125 59.851562 63.183594 59.425781 63.554688 59.214844 C 66.09375 57.746094 74.039062 66.789062 81.367188 79.484375 L 82.027344 80.628906 C 87.363281 89.867188 90.855469 98.417969 91.386719 102.957031 C 92.019531 99.394531 88.292969 89.488281 82.027344 78.636719 L 81.367188 77.488281 C 74.554688 65.6875 67.207031 57.042969 64.167969 57.0625 Z M 64.167969 57.0625 "/>
<path style=" stroke:none;fill-rule:nonzero;fill:rgb(100%,100%,100%);fill-opacity:0.705882;" d="M 64.144531 57.066406 C 63.921875 57.070312 63.726562 57.121094 63.554688 57.21875 C 62.539062 57.804688 62.546875 59.980469 63.390625 63.1875 L 63.417969 63.1875 C 65.726562 63.1875 67.710938 61.847656 68.640625 59.902344 C 66.8125 58.121094 65.285156 57.105469 64.238281 57.066406 C 64.207031 57.0625 64.175781 57.0625 64.144531 57.066406 Z M 64.144531 57.066406 "/>
<path style=" stroke:none;fill-rule:nonzero;fill:rgb(12.941177%,12.941177%,12.941177%);fill-opacity:1;" d="M 64.160156 56.6875 C 64.082031 56.6875 64.003906 56.691406 63.929688 56.703125 C 63.730469 56.730469 63.542969 56.792969 63.367188 56.894531 C 62.785156 57.230469 62.507812 57.894531 62.425781 58.75 C 62.421875 58.78125 62.421875 58.816406 62.417969 58.847656 C 62.414062 58.882812 62.410156 58.917969 62.410156 58.957031 C 62.40625 59 62.40625 59.042969 62.402344 59.089844 C 62.402344 59.113281 62.402344 59.140625 62.402344 59.164062 C 62.398438 59.214844 62.398438 59.265625 62.398438 59.316406 C 62.398438 59.320312 62.398438 59.324219 62.398438 59.328125 C 62.398438 59.351562 62.398438 59.371094 62.398438 59.394531 C 62.398438 59.445312 62.398438 59.496094 62.402344 59.546875 C 62.402344 59.546875 62.402344 59.550781 62.402344 59.554688 C 62.402344 59.628906 62.40625 59.707031 62.410156 59.785156 C 62.410156 59.804688 62.410156 59.820312 62.414062 59.835938 C 62.417969 59.910156 62.421875 59.980469 62.425781 60.058594 C 62.429688 60.0625 62.429688 60.070312 62.429688 60.078125 C 62.429688 60.089844 62.429688 60.101562 62.433594 60.113281 C 62.4375 60.191406 62.445312 60.269531 62.453125 60.351562 C 62.457031 60.363281 62.457031 60.375 62.457031 60.386719 C 62.46875 60.476562 62.480469 60.566406 62.492188 60.660156 C 62.492188 60.667969 62.492188 60.671875 62.492188 60.675781 C 62.519531 60.875 62.550781 61.082031 62.585938 61.296875 C 62.589844 61.316406 62.59375 61.335938 62.597656 61.355469 C 62.609375 61.429688 62.625 61.507812 62.636719 61.582031 C 62.648438 61.632812 62.65625 61.683594 62.667969 61.738281 C 62.675781 61.785156 62.6875 61.828125 62.695312 61.875 C 62.710938 61.945312 62.722656 62.015625 62.738281 62.085938 C 62.742188 62.101562 62.746094 62.117188 62.75 62.132812 C 62.976562 63.183594 63.308594 64.371094 63.738281 65.664062 C 63.742188 65.671875 63.746094 65.683594 63.75 65.691406 C 63.773438 65.765625 63.796875 65.835938 63.820312 65.910156 C 63.875 66.074219 63.933594 66.238281 63.992188 66.402344 C 63.992188 66.402344 63.992188 66.402344 63.992188 66.40625 C 64.074219 66.640625 64.160156 66.878906 64.246094 67.121094 C 64.253906 67.136719 64.257812 67.152344 64.265625 67.167969 C 64.351562 67.40625 64.441406 67.648438 64.535156 67.890625 C 64.542969 67.910156 64.550781 67.933594 64.558594 67.957031 C 64.652344 68.203125 64.75 68.453125 64.851562 68.710938 C 64.953125 68.964844 65.054688 69.222656 65.164062 69.484375 C 65.167969 69.5 65.175781 69.515625 65.183594 69.535156 C 65.289062 69.792969 65.398438 70.054688 65.507812 70.320312 C 65.515625 70.335938 65.523438 70.355469 65.53125 70.371094 C 65.761719 70.914062 66 71.472656 66.253906 72.039062 C 66.253906 72.042969 66.257812 72.046875 66.257812 72.046875 C 67.761719 75.417969 69.660156 79.132812 71.875 82.96875 L 72.539062 84.117188 C 76.210938 90.480469 80.039062 95.929688 83.285156 99.621094 C 84.90625 101.464844 86.378906 102.871094 87.640625 103.742188 C 88.269531 104.175781 88.847656 104.480469 89.382812 104.628906 C 89.917969 104.777344 90.4375 104.769531 90.863281 104.523438 C 91.289062 104.277344 91.558594 103.832031 91.695312 103.292969 C 91.835938 102.753906 91.863281 102.101562 91.800781 101.339844 C 91.675781 99.8125 91.195312 97.835938 90.410156 95.507812 C 88.832031 90.851562 86.027344 84.8125 82.355469 78.449219 L 81.691406 77.300781 C 79.667969 73.796875 77.597656 70.570312 75.605469 67.761719 C 75.605469 67.761719 75.601562 67.757812 75.601562 67.753906 C 75.597656 67.75 75.597656 67.75 75.59375 67.746094 C 75.414062 67.492188 75.234375 67.242188 75.054688 66.992188 C 75.042969 66.976562 75.03125 66.957031 75.015625 66.941406 C 74.839844 66.695312 74.660156 66.453125 74.484375 66.214844 C 74.3125 65.984375 74.140625 65.753906 73.96875 65.527344 C 73.949219 65.5 73.929688 65.472656 73.90625 65.445312 C 73.742188 65.230469 73.582031 65.015625 73.417969 64.808594 C 73.394531 64.773438 73.367188 64.742188 73.34375 64.710938 C 73.191406 64.511719 73.035156 64.316406 72.882812 64.125 C 72.871094 64.109375 72.859375 64.089844 72.84375 64.074219 C 72.6875 63.878906 72.53125 63.683594 72.375 63.492188 C 72.34375 63.453125 72.3125 63.414062 72.28125 63.375 C 72.128906 63.1875 71.976562 63.003906 71.828125 62.824219 C 71.804688 62.796875 71.78125 62.769531 71.757812 62.742188 C 71.605469 62.5625 71.457031 62.386719 71.308594 62.214844 C 71.300781 62.203125 71.289062 62.191406 71.28125 62.183594 C 71.167969 62.050781 71.058594 61.921875 70.945312 61.796875 C 70.902344 61.746094 70.859375 61.699219 70.816406 61.648438 C 70.792969 61.625 70.773438 61.605469 70.753906 61.582031 C 70.597656 61.40625 70.441406 61.234375 70.289062 61.066406 C 70.289062 61.0625 70.289062 61.0625 70.285156 61.0625 C 70.285156 61.0625 70.285156 61.058594 70.28125 61.058594 C 69.957031 60.703125 69.636719 60.367188 69.324219 60.050781 C 69.019531 59.742188 68.722656 59.453125 68.433594 59.183594 C 68.425781 59.175781 68.417969 59.167969 68.410156 59.160156 C 68.40625 59.160156 68.40625 59.160156 68.40625 59.15625 C 68.359375 59.117188 68.316406 59.074219 68.273438 59.035156 C 68.226562 58.992188 68.179688 58.953125 68.136719 58.910156 C 68.105469 58.886719 68.078125 58.863281 68.050781 58.835938 C 67.988281 58.78125 67.929688 58.726562 67.867188 58.675781 C 67.847656 58.660156 67.832031 58.644531 67.8125 58.628906 C 67.472656 58.335938 67.144531 58.074219 66.828125 57.84375 C 66.75 57.785156 66.667969 57.730469 66.589844 57.675781 C 66.515625 57.621094 66.4375 57.570312 66.363281 57.523438 C 66.359375 57.519531 66.359375 57.519531 66.355469 57.519531 C 66.355469 57.519531 66.355469 57.515625 66.355469 57.515625 C 66.285156 57.472656 66.214844 57.425781 66.144531 57.382812 C 66.101562 57.359375 66.0625 57.335938 66.023438 57.3125 C 66 57.300781 65.980469 57.285156 65.957031 57.273438 C 65.953125 57.273438 65.949219 57.269531 65.945312 57.265625 C 65.914062 57.25 65.882812 57.230469 65.851562 57.214844 C 65.816406 57.195312 65.78125 57.175781 65.746094 57.160156 C 65.710938 57.140625 65.675781 57.121094 65.640625 57.101562 C 65.59375 57.078125 65.546875 57.054688 65.5 57.035156 C 65.480469 57.027344 65.464844 57.019531 65.449219 57.011719 C 64.992188 56.800781 64.558594 56.683594 64.160156 56.6875 Z M 64.191406 57.441406 C 64.390625 57.445312 64.625 57.492188 64.898438 57.59375 C 64.902344 57.597656 64.902344 57.597656 64.90625 57.597656 C 64.941406 57.609375 64.972656 57.625 65.007812 57.636719 C 65.011719 57.640625 65.015625 57.640625 65.019531 57.640625 C 65.054688 57.660156 65.09375 57.675781 65.132812 57.691406 C 65.148438 57.699219 65.164062 57.707031 65.183594 57.714844 C 65.246094 57.746094 65.308594 57.777344 65.375 57.8125 C 65.4375 57.84375 65.5 57.875 65.5625 57.914062 C 65.605469 57.9375 65.648438 57.960938 65.691406 57.988281 C 65.710938 58 65.730469 58.011719 65.75 58.023438 C 65.773438 58.039062 65.800781 58.054688 65.824219 58.070312 C 65.914062 58.125 66.007812 58.1875 66.105469 58.253906 C 66.164062 58.292969 66.222656 58.332031 66.285156 58.375 C 66.285156 58.378906 66.285156 58.378906 66.289062 58.378906 C 66.289062 58.378906 66.289062 58.378906 66.289062 58.382812 C 66.351562 58.425781 66.414062 58.46875 66.472656 58.515625 C 66.71875 58.695312 66.972656 58.898438 67.234375 59.121094 C 67.25 59.136719 67.265625 59.148438 67.277344 59.160156 C 67.324219 59.199219 67.371094 59.238281 67.417969 59.28125 C 67.457031 59.3125 67.496094 59.347656 67.535156 59.382812 C 67.566406 59.410156 67.601562 59.441406 67.632812 59.472656 C 67.695312 59.527344 67.757812 59.585938 67.824219 59.640625 C 67.835938 59.652344 67.847656 59.664062 67.859375 59.675781 C 68.1875 59.976562 68.527344 60.308594 68.875 60.664062 C 68.992188 60.78125 69.105469 60.902344 69.222656 61.023438 C 69.257812 61.058594 69.292969 61.097656 69.328125 61.136719 C 69.441406 61.253906 69.550781 61.375 69.667969 61.496094 C 69.695312 61.527344 69.722656 61.558594 69.753906 61.59375 C 69.898438 61.746094 70.039062 61.90625 70.1875 62.070312 C 70.203125 62.089844 70.21875 62.109375 70.238281 62.128906 C 72.351562 64.511719 74.742188 67.695312 77.183594 71.410156 C 77.375 73.101562 76.289062 74.894531 74.644531 75.949219 C 73.003906 77.003906 70.886719 77.304688 69.027344 76.117188 C 66.714844 71.515625 64.988281 67.328125 64.023438 64.074219 C 63.96875 63.878906 63.914062 63.6875 63.859375 63.496094 C 63.84375 63.433594 63.824219 63.371094 63.808594 63.308594 C 63.800781 63.273438 63.789062 63.242188 63.78125 63.207031 C 63.757812 63.113281 63.734375 63.019531 63.710938 62.929688 C 63.703125 62.90625 63.695312 62.882812 63.691406 62.863281 C 63.664062 62.746094 63.632812 62.632812 63.605469 62.519531 C 63.605469 62.519531 63.605469 62.519531 63.605469 62.515625 C 63.605469 62.515625 63.605469 62.511719 63.605469 62.507812 C 63.578125 62.40625 63.554688 62.304688 63.535156 62.203125 C 63.523438 62.152344 63.511719 62.101562 63.5 62.050781 C 63.488281 62 63.476562 61.949219 63.46875 61.898438 C 63.453125 61.839844 63.441406 61.78125 63.429688 61.726562 C 63.421875 61.6875 63.417969 61.652344 63.410156 61.613281 C 63.394531 61.546875 63.382812 61.476562 63.371094 61.410156 C 63.367188 61.398438 63.363281 61.382812 63.363281 61.371094 C 63.300781 61.027344 63.25 60.703125 63.214844 60.402344 C 63.214844 60.398438 63.214844 60.398438 63.214844 60.394531 C 63.207031 60.324219 63.199219 60.257812 63.191406 60.1875 C 63.191406 60.171875 63.1875 60.152344 63.1875 60.136719 C 63.183594 60.078125 63.175781 60.019531 63.171875 59.960938 C 63.171875 59.929688 63.167969 59.898438 63.167969 59.867188 C 63.164062 59.828125 63.160156 59.785156 63.160156 59.742188 C 63.15625 59.664062 63.152344 59.585938 63.148438 59.511719 C 63.148438 59.507812 63.148438 59.503906 63.148438 59.5 C 63.148438 59.425781 63.148438 59.351562 63.148438 59.28125 C 63.148438 59.277344 63.148438 59.269531 63.148438 59.265625 C 63.148438 59.195312 63.152344 59.128906 63.15625 59.066406 C 63.15625 59.058594 63.15625 59.050781 63.15625 59.042969 C 63.160156 58.984375 63.164062 58.925781 63.167969 58.867188 C 63.167969 58.859375 63.171875 58.847656 63.171875 58.835938 C 63.175781 58.789062 63.179688 58.746094 63.1875 58.703125 C 63.253906 58.175781 63.410156 57.828125 63.617188 57.636719 C 63.636719 57.621094 63.65625 57.605469 63.675781 57.589844 C 63.695312 57.574219 63.71875 57.558594 63.742188 57.546875 C 63.765625 57.53125 63.789062 57.519531 63.8125 57.507812 C 63.835938 57.5 63.855469 57.492188 63.882812 57.484375 C 63.933594 57.46875 63.988281 57.457031 64.050781 57.449219 C 64.09375 57.445312 64.140625 57.441406 64.191406 57.441406 Z M 77.910156 72.523438 C 78.953125 74.15625 80.003906 75.878906 81.042969 77.675781 L 81.703125 78.824219 C 85.359375 85.152344 88.148438 91.164062 89.699219 95.746094 C 90.472656 98.039062 90.9375 99.980469 91.054688 101.402344 C 91.109375 102.109375 91.078125 102.691406 90.972656 103.105469 C 90.863281 103.519531 90.695312 103.753906 90.488281 103.871094 C 90.28125 103.992188 89.996094 104.019531 89.582031 103.90625 C 89.167969 103.792969 88.652344 103.53125 88.066406 103.125 C 86.890625 102.316406 85.445312 100.945312 83.847656 99.125 C 80.652344 95.488281 76.84375 90.070312 73.1875 83.742188 L 72.527344 82.59375 C 71.476562 80.78125 70.503906 78.992188 69.605469 77.257812 C 71.480469 77.988281 73.492188 77.582031 75.050781 76.582031 C 76.527344 75.632812 77.648438 74.140625 77.910156 72.523438 Z M 77.910156 72.523438 "/>
<path style="fill-rule:nonzero;fill:url(#linear8);stroke-width:3;stroke-linecap:round;stroke-linejoin:round;stroke:rgb(12.941177%,12.941177%,12.941177%);stroke-opacity:1;stroke-miterlimit:4;" d="M 269.880478 -78.700516 C 224.900398 -76.060143 201.090172 -46.953548 223.978611 -9.347764 C 232.83714 5.963274 244.132936 15.790461 254.819416 27.554962 C 259.428351 28.83609 265.224672 26.070729 266.81827 21.680523 C 263.552957 14.80618 261.943736 8.603647 268.943067 0.729399 C 298.97145 -33.73606 247.382626 -61.514657 305.595817 -70.763774 C 291.034708 -73.41977 291.034708 -78.700516 269.880478 -78.700516 Z M 269.880478 -78.700516 " transform="matrix(0.250024,0,0,0.250024,0,53.755133)"/>
<path style=" stroke:none;fill-rule:nonzero;fill:rgb(100%,100%,100%);fill-opacity:0.196078;" d="M 59.535156 53.921875 C 53.613281 45.847656 56.039062 39.164062 61.523438 36.722656 C 63.773438 35.585938 68.136719 34.738281 72.105469 36.0625 C 68.796875 35.730469 65.492188 36.0625 62.84375 37.382812 C 60.199219 38.707031 58.542969 41.683594 59.535156 43.335938 C 60.554688 44.558594 60.859375 36.722656 68.796875 37.714844 C 62.84375 39.039062 64.167969 43.335938 62.84375 46.644531 C 60.859375 51.9375 64.828125 60.535156 59.535156 53.921875 Z M 59.535156 53.921875 "/>
<path style=" stroke:none;fill-rule:nonzero;fill:url(#linear9);" d="M 100.550781 61.859375 C 96.777344 64.757812 99.742188 64.019531 95.796875 65.808594 C 94.863281 66.234375 94.859375 64.265625 93.738281 64.0625 C 89.007812 63.203125 93.117188 64.796875 88.378906 63.804688 C 87.257812 63.570312 87.867188 63.351562 87.023438 62.59375 C 83.476562 59.394531 85.628906 64.242188 83.042969 60.695312 C 82.429688 59.851562 83.636719 59.996094 83.558594 58.886719 C 83.222656 54.203125 82.472656 57.050781 82.671875 52.796875 C 82.71875 51.789062 82.101562 54.417969 82.558594 53.414062 C 84.484375 49.179688 84.230469 51.953125 86.1875 48.085938 C 86.652344 47.171875 85.101562 48.359375 86.070312 47.917969 C 90.15625 46.054688 86.398438 45.347656 91.128906 44.894531 C 92.25 44.785156 91.710938 45.445312 92.652344 45.839844 C 96.632812 47.5 95.085938 46.675781 99.472656 48.011719 C 100.511719 48.328125 99.363281 47.246094 99.746094 48.1875 C 101.363281 52.15625 100.972656 48.734375 103.113281 52.714844 C 103.617188 53.660156 103.15625 54.789062 102.984375 55.867188 C 102.257812 60.414062 102.941406 56.449219 101.601562 60.589844 C 101.285156 61.570312 101.445312 61.171875 100.550781 61.859375 Z M 100.550781 61.859375 "/>
<path style=" stroke:none;fill-rule:nonzero;fill:rgb(0%,0%,0%);fill-opacity:0.235294;" d="M 37.480469 88.945312 C 37.273438 89.054688 37.027344 89.328125 36.695312 89.894531 C 35.5 91.953125 37.433594 91.050781 38.28125 92.101562 C 38.507812 91.828125 38.664062 91.402344 38.648438 90.667969 C 38.621094 89.496094 38.050781 89.132812 37.480469 88.945312 Z M 57.945312 91.964844 C 57.621094 92.335938 57 92.335938 56.425781 93.949219 C 56 95.140625 56.421875 95.523438 56.8125 95.738281 C 57.648438 94.300781 58.421875 95.3125 58.105469 92.789062 C 58.058594 92.425781 58.007812 92.160156 57.945312 91.964844 Z M 39.285156 94.324219 C 38.519531 94.355469 38.246094 95.710938 37.703125 95.160156 C 37.128906 95.433594 36.613281 95.527344 37.253906 97.023438 C 38.410156 99.730469 38.390625 95.34375 40.414062 97.6875 C 40.433594 97.710938 40.449219 97.734375 40.46875 97.757812 C 40.929688 97.003906 41.355469 96.136719 40.414062 95.042969 C 39.9375 94.492188 39.578125 94.3125 39.285156 94.324219 Z M 56.269531 97.183594 C 54.125 98.816406 54.820312 97.097656 51.964844 98.066406 C 49.035156 99.058594 52.894531 100.179688 49.851562 100.078125 C 46.808594 99.976562 48.792969 98.613281 45.789062 97.882812 C 42.785156 97.152344 43.28125 101.492188 40.730469 100.089844 C 40.707031 100.078125 40.691406 100.066406 40.671875 100.054688 C 40.128906 101.078125 39.1875 101.886719 40.730469 102.734375 C 43.28125 104.136719 42.785156 99.796875 45.789062 100.53125 C 48.792969 101.261719 46.808594 102.621094 49.851562 102.722656 C 52.894531 102.828125 49.035156 101.703125 51.964844 100.710938 C 54.890625 99.71875 54.085938 101.554688 56.4375 99.703125 C 58.59375 98.003906 55.984375 99.0625 56.269531 97.183594 Z M 56.269531 97.183594 "/>
<path style=" stroke:none;fill-rule:nonzero;fill:rgb(0%,0%,0%);fill-opacity:0.235294;" d="M 36.6875 57.230469 C 35.589844 58.246094 33.613281 59.078125 34.34375 61.09375 C 34.429688 61.335938 34.527344 61.527344 34.628906 61.675781 C 35.730469 60.21875 38.410156 59.566406 36.929688 57.535156 C 36.84375 57.421875 36.765625 57.320312 36.6875 57.230469 Z M 16.605469 59.597656 C 16.527344 59.792969 16.425781 60.089844 16.277344 60.535156 C 15.375 63.265625 17.574219 61.496094 18.320312 63.289062 C 18.488281 63.019531 18.582031 62.578125 18.550781 61.851562 C 18.492188 60.613281 18.105469 60.117188 17.648438 59.882812 C 17.257812 60.058594 17.074219 59.882812 16.96875 59.675781 C 16.839844 59.652344 16.71875 59.628906 16.605469 59.597656 Z M 37.273438 63.550781 C 37.191406 63.542969 37.066406 63.636719 36.910156 63.765625 C 36.597656 65.269531 36.582031 64.933594 35.328125 67.367188 C 34.640625 68.699219 35.136719 69.078125 35.707031 69.289062 C 36.847656 67.160156 36.574219 68.015625 37.25 64.765625 C 37.4375 63.871094 37.421875 63.5625 37.273438 63.550781 Z M 16.664062 66.34375 C 16.277344 66.410156 16.058594 66.71875 16.328125 67.898438 C 17.0625 71.09375 17.773438 68.59375 20.011719 70.457031 C 20.789062 69.835938 21.386719 69.105469 20.324219 68.089844 C 18.199219 66.054688 17.347656 67.867188 16.664062 66.34375 Z M 32.644531 69.589844 C 32.398438 69.59375 32.101562 69.660156 31.753906 69.796875 C 28.550781 71.070312 30.027344 74.230469 26.679688 74.457031 C 23.332031 74.683594 28.179688 73.1875 24.667969 72.367188 C 21.398438 71.601562 22.632812 73.882812 20.125 73.011719 C 19.070312 73.890625 17.523438 74.535156 19.507812 75.410156 C 22.84375 76.882812 21.15625 74.191406 24.667969 75.011719 C 28.179688 75.832031 23.332031 77.328125 26.679688 77.101562 C 30.027344 76.875 28.550781 73.71875 31.753906 72.445312 C 34.957031 71.171875 33.363281 76.226562 35.90625 73.65625 C 37.734375 71.808594 35.8125 72.324219 35.179688 71.613281 C 33.855469 72.390625 34.398438 69.546875 32.644531 69.589844 Z M 32.644531 69.589844 "/>
<path style=" stroke:none;fill-rule:nonzero;fill:rgb(0%,0%,0%);fill-opacity:0.235294;" d="M 48.207031 27.886719 C 47.613281 28.113281 47.097656 28.519531 47.550781 29.84375 C 47.671875 30.191406 47.792969 30.460938 47.910156 30.671875 C 48.738281 30.191406 50.128906 30.433594 48.863281 28.695312 C 48.597656 28.328125 48.386719 28.070312 48.207031 27.886719 Z M 28.566406 30.710938 C 28.472656 30.910156 28.351562 31.234375 28.183594 31.761719 C 27.589844 33.621094 28.328125 33.253906 28.835938 33.402344 C 28.929688 33.148438 29.027344 32.828125 29.121094 32.40625 C 29.46875 30.832031 29.003906 30.753906 28.566406 30.710938 Z M 48.8125 34.054688 C 48.40625 36.070312 49.117188 33.765625 47.863281 36.726562 C 47.335938 37.96875 47.554688 38.710938 47.898438 39.289062 C 49.234375 36.15625 48.226562 39.277344 48.988281 35.871094 C 49.425781 33.910156 49.246094 34.105469 48.8125 34.054688 Z M 28.390625 36.839844 C 28.015625 37.242188 27.832031 36.992188 28.289062 39.050781 C 29.003906 42.257812 28.441406 39.449219 30.902344 41.78125 C 30.90625 41.789062 30.914062 41.796875 30.921875 41.800781 C 31.5 41.074219 32.054688 40.234375 30.902344 39.136719 C 28.570312 36.921875 28.953125 39.328125 28.390625 36.839844 Z M 43.214844 41.539062 C 42.878906 41.535156 42.503906 41.605469 42.070312 41.789062 C 38.984375 43.082031 41.609375 45.492188 38.402344 45.691406 C 35.199219 45.894531 38.753906 45.449219 35.664062 44.253906 C 32.570312 43.054688 34.546875 45.382812 31.304688 44.019531 C 31.285156 44.011719 31.269531 44.003906 31.253906 43.996094 C 30.585938 45.03125 29.28125 45.8125 31.304688 46.664062 C 34.546875 48.03125 32.570312 45.699219 35.664062 46.898438 C 38.753906 48.097656 35.199219 48.539062 38.402344 48.339844 C 41.609375 48.136719 38.984375 45.726562 42.070312 44.433594 C 45.15625 43.140625 45.375 47.382812 47.832031 44.910156 C 49.269531 43.464844 48.554688 42.9375 47.996094 42.089844 C 47.945312 42.148438 47.890625 42.203125 47.832031 42.265625 C 45.71875 44.386719 45.261719 41.554688 43.214844 41.539062 Z M 43.214844 41.539062 "/>
<path style=" stroke:none;fill-rule:nonzero;fill:rgb(0%,0%,0%);fill-opacity:0.235294;" d="M 82.648438 55.210938 C 82.539062 55.230469 82.179688 56.894531 82.558594 56.0625 C 82.59375 55.988281 82.625 55.921875 82.65625 55.851562 C 82.660156 55.722656 82.667969 55.585938 82.671875 55.445312 C 82.679688 55.269531 82.667969 55.203125 82.648438 55.210938 Z M 82.65625 55.851562 C 82.546875 58.824219 82.996094 57.734375 83.339844 59.636719 C 83.476562 59.464844 83.582031 59.242188 83.558594 58.886719 C 83.363281 56.183594 83.03125 55.988281 82.824219 55.492188 C 82.769531 55.605469 82.714844 55.722656 82.65625 55.851562 Z M 103.089844 55.324219 C 103.050781 55.503906 103.015625 55.6875 102.984375 55.867188 C 102.257812 60.414062 102.941406 56.449219 101.601562 60.589844 C 101.285156 61.570312 101.445312 61.171875 100.550781 61.859375 C 96.777344 64.757812 99.742188 64.019531 95.796875 65.808594 C 94.863281 66.234375 94.859375 64.265625 93.738281 64.0625 C 89.007812 63.203125 93.117188 64.796875 88.378906 63.804688 C 87.257812 63.570312 87.867188 63.351562 87.023438 62.59375 C 83.738281 59.632812 85.335938 63.558594 83.542969 61.351562 C 83.546875 61.410156 83.554688 61.46875 83.558594 61.53125 C 83.636719 62.644531 82.429688 62.5 83.042969 63.339844 C 85.628906 66.890625 83.476562 62.039062 87.023438 65.238281 C 87.867188 65.996094 87.257812 66.214844 88.378906 66.449219 C 93.117188 67.441406 89.007812 65.847656 93.738281 66.710938 C 94.859375 66.914062 94.863281 68.878906 95.796875 68.457031 C 99.742188 66.664062 96.777344 67.402344 100.550781 64.507812 C 101.445312 63.820312 101.285156 64.21875 101.601562 63.234375 C 102.941406 59.09375 102.257812 63.058594 102.984375 58.511719 C 103.15625 57.433594 103.617188 56.304688 103.113281 55.363281 C 103.105469 55.347656 103.097656 55.335938 103.089844 55.324219 Z M 103.089844 55.324219 "/>
<path style="fill:none;stroke-width:1.089771;stroke-linecap:round;stroke-linejoin:round;stroke:rgb(0%,0%,0%);stroke-opacity:0.235294;stroke-miterlimit:4;" d="M 271.93299 -23.487873 C 261.462683 -19.82518 275.255567 -15.686624 264.380409 -16.061546 C 253.50525 -16.436467 260.597138 -21.469066 249.861583 -24.165616 C 239.126028 -26.862166 240.899 -10.841486 231.782853 -16.018285 C 222.652745 -21.209505 237.869591 -25.982542 230.65206 -34.648995 C 223.420568 -43.315447 223.49037 -27.107307 219.358089 -37.100404 C 215.211847 -47.093501 224.579282 -40.128615 224.341955 -50.799455 C 224.090667 -61.470295 212.028874 -53.943027 217.36175 -63.417002 C 222.708587 -72.890977 221.968685 -60.28785 230.219287 -68.045839 C 238.469889 -75.789408 231.643249 -79.250221 241.122367 -84.39818 C 250.615445 -89.531719 236.766719 -82.783134 248.116532 -82.523573 C 259.466344 -82.264012 258.251789 -87.06589 268.54061 -83.388776 C 278.829432 -79.726083 268.987344 -81.254608 278.159332 -75.847088 C 287.345282 -70.439568 280.002106 -77.447714 285.879439 -68.939882 C 291.770731 -60.417631 284.5532 -71.304771 287.052113 -61.239574 C 289.537066 -51.174376 292.580435 -63.474682 293.878753 -52.731742 C 295.177071 -41.988802 291.296078 -48.607607 287.875777 -38.68661 C 284.455477 -28.780033 296.321825 -34.057773 287.917659 -27.222667 C 279.513492 -20.387562 282.389336 -27.164987 271.93299 -23.487873 Z M 271.93299 -23.487873 " transform="matrix(0.279809,0,0,0.27089,-24.12449,104.429039)"/>
<path style="fill:none;stroke-width:1.2;stroke-linecap:round;stroke-linejoin:round;stroke:rgb(0%,0%,0%);stroke-opacity:0.235294;stroke-miterlimit:4;" d="M 338.108248 -34.009737 C 325.296972 -28.916473 331.202658 -16.277055 317.813311 -15.370891 C 304.423965 -14.464728 323.812739 -20.448532 309.767205 -23.729468 C 295.721671 -27.026028 302.471027 -16.245808 289.128551 -22.13587 C 275.801698 -28.025933 302.346038 -31.30687 292.393864 -40.83721 C 282.441689 -50.351926 279.473223 -38.837401 276.411015 -52.179876 C 273.348808 -65.537976 285.972602 -50.99249 285.300791 -65.787952 C 284.613357 -80.599037 272.005186 -68.912653 276.20791 -81.630189 C 280.410633 -94.347725 275.832945 -77.364971 285.378909 -87.160911 C 294.909249 -96.95685 287.409965 -93.144714 300.002512 -100.534634 C 312.59506 -107.90893 303.361567 -96.347534 316.844654 -96.206922 C 330.312118 -96.06631 315.204186 -109.565021 328.421673 -107.190248 C 341.639161 -104.799851 324.312691 -99.316 336.717756 -93.394691 C 349.107198 -87.457758 350.685172 -104.768604 358.793773 -93.629043 C 366.917997 -82.489482 343.779582 -81.72393 348.466634 -68.818912 C 353.138063 -55.929518 363.074614 -79.00544 360.090524 -64.70993 C 357.122058 -50.41442 358.746902 -56.038883 352.403758 -43.727559 C 346.060614 -31.431858 364.871318 -39.431094 354.716037 -29.150826 C 344.545134 -18.870557 350.919525 -39.103 338.108248 -34.009737 Z M 338.108248 -34.009737 " transform="matrix(0.250024,0,0,0.250024,-52.781228,78.300121)"/>
<path style="fill:none;stroke-width:1.2;stroke-linecap:round;stroke-linejoin:round;stroke:rgb(0%,0%,0%);stroke-opacity:0.235294;stroke-miterlimit:4;" d="M 331.957427 -30.93812 C 319.614856 -25.766739 330.113853 -16.127035 317.286953 -15.330236 C 304.475676 -14.517813 318.693069 -16.298893 306.334874 -21.079687 C 293.961055 -25.876104 301.86655 -16.564493 288.899039 -22.017097 C 275.931527 -27.469702 297.117004 -32.219248 287.289818 -41.546482 C 277.447007 -50.88934 279.696793 -39.640414 276.837691 -52.467314 C 273.994212 -65.309838 277.353266 -55.717004 280.165498 -68.465787 C 282.977729 -81.214569 272.525602 -69.434444 276.415856 -81.636404 C 280.321733 -93.838364 277.665737 -79.605348 287.008594 -89.776252 C 296.335829 -99.947155 288.274099 -92.854083 300.366694 -100.05652 C 312.474912 -107.274581 298.913707 -98.212946 312.740512 -101.915717 C 326.567317 -105.634112 315.755849 -109.227519 328.410891 -107.008981 C 341.081556 -104.806066 332.55112 -107.633921 343.659434 -100.384613 C 354.767749 -93.135306 351.3462 -104.587337 359.126707 -93.900858 C 366.907214 -83.198755 349.596368 -91.244861 353.877209 -78.714808 C 358.173673 -66.169131 362.704491 -78.94916 359.62666 -65.18485 C 356.548829 -51.436163 360.704682 -64.34118 355.127089 -51.186187 C 349.549497 -38.046816 364.813664 -38.921733 355.002101 -29.032052 C 345.174915 -19.157995 344.299998 -36.109501 331.957427 -30.93812 Z M 331.957427 -30.93812 " transform="matrix(0.250024,0,0,0.250024,-40.926969,49.524331)"/>
<path style="fill:none;stroke-width:1.446226;stroke-linecap:round;stroke-linejoin:round;stroke:rgb(0%,0%,0%);stroke-opacity:0.235294;stroke-miterlimit:4;" d="M 357.238269 -30.773051 C 339.313712 -16.595565 353.397293 -20.206812 334.656296 -11.455749 C 330.221545 -9.373073 330.20299 -19.003063 324.877578 -19.996633 C 302.406937 -24.2002 321.927262 -16.404494 299.41951 -21.257703 C 294.094098 -22.404131 296.988747 -23.47413 292.980772 -27.180912 C 276.13243 -42.829646 286.356479 -19.117706 274.072776 -36.466974 C 271.159571 -40.594112 276.893203 -39.887149 276.522094 -45.313572 C 274.926326 -68.223012 271.363681 -54.29392 272.310009 -75.101577 C 272.532674 -80.031215 269.600914 -67.172121 271.771901 -72.082651 C 280.919734 -92.794773 279.71363 -79.228715 289.009907 -98.144767 C 291.218005 -102.615834 283.851494 -96.807269 288.453244 -98.966374 C 307.862237 -108.080472 290.011901 -111.538861 312.482542 -113.755287 C 317.807954 -114.290287 315.247303 -111.061183 319.719165 -109.131363 C 338.627161 -101.010836 331.279205 -105.042439 352.116967 -98.507803 C 357.052715 -96.960126 351.597415 -102.252799 353.415848 -97.647982 C 361.097802 -78.235145 359.242257 -94.972985 369.41064 -75.502826 C 371.804292 -70.878903 369.61475 -65.356944 368.79831 -60.083378 C 365.346998 -37.842686 368.5942 -57.236417 362.229684 -36.982866 C 360.726693 -32.186978 361.487466 -34.135905 357.238269 -30.773051 Z M 357.238269 -30.773051 " transform="matrix(0.210518,0,0,0.204439,25.345785,68.150601)"/>
<path style=" stroke:none;fill-rule:nonzero;fill:rgb(100%,100%,100%);fill-opacity:0.392157;" d="M 44.335938 81.046875 C 44.320312 81.039062 44.089844 81.175781 43.34375 81.566406 C 40.691406 82.960938 42.601562 83.898438 40.292969 85.996094 C 37.984375 88.097656 38.191406 84.683594 36.695312 87.25 C 36 88.441406 36.363281 88.640625 36.953125 88.800781 C 38.175781 87.042969 38.125 89.929688 40.292969 87.957031 C 42.601562 85.855469 40.691406 84.917969 43.34375 83.527344 C 46 82.132812 42.125 83.964844 45.300781 84.03125 C 48.476562 84.101562 48.136719 82.804688 51.015625 83.800781 C 53.894531 84.792969 51.140625 84.378906 53.707031 85.84375 C 56.277344 87.308594 54.222656 85.40625 55.867188 87.714844 C 56.125 88.074219 56.285156 88.296875 56.386719 88.441406 C 56.320312 88.285156 56.257812 88.085938 56.195312 87.839844 C 55.496094 85.113281 57.515625 88.0625 55.867188 85.753906 C 54.222656 83.449219 56.277344 85.347656 53.707031 83.882812 C 51.140625 82.417969 53.894531 82.832031 51.015625 81.839844 C 48.136719 80.84375 48.476562 82.144531 45.300781 82.074219 C 43.019531 82.023438 44.378906 81.0625 44.335938 81.046875 Z M 56.21875 88.550781 C 56.054688 88.554688 55.933594 88.777344 56.195312 89.800781 C 56.863281 92.417969 57.675781 89.449219 58.058594 91.792969 C 58.191406 91.523438 58.222656 91.078125 58.105469 90.144531 C 57.792969 87.644531 57.121094 89.75 56.496094 88.660156 C 56.4375 88.628906 56.320312 88.550781 56.21875 88.550781 Z M 38.484375 91.757812 C 37.941406 93.054688 36.289062 92.125 37.253906 94.378906 C 37.292969 94.472656 37.332031 94.554688 37.371094 94.632812 C 37.882812 94.363281 38.683594 94.242188 38.648438 92.625 C 38.640625 92.265625 38.578125 91.984375 38.484375 91.757812 Z M 56.558594 95.566406 C 56.515625 95.671875 56.472656 95.785156 56.425781 95.90625 C 56.21875 96.492188 56.210938 96.882812 56.308594 97.15625 C 56.351562 97.121094 56.390625 97.089844 56.4375 97.054688 C 57.972656 95.847656 57.089844 96.035156 56.558594 95.566406 Z M 40.6875 97.375 C 40.195312 98.324219 39.339844 99.089844 40.378906 99.867188 C 40.816406 99.164062 41.296875 98.367188 40.6875 97.375 Z M 40.6875 97.375 "/>
<path style="fill:none;stroke-width:2.724427;stroke-linecap:round;stroke-linejoin:round;stroke:rgb(12.941177%,12.941177%,12.941177%);stroke-opacity:0.96129;stroke-miterlimit:4;" d="M 271.93299 -23.487873 C 261.462683 -19.82518 275.255567 -15.686624 264.380409 -16.061546 C 253.50525 -16.436467 260.597138 -21.469066 249.861583 -24.165616 C 239.126028 -26.862166 240.899 -10.841486 231.782853 -16.018285 C 222.652745 -21.209505 237.869591 -25.982542 230.65206 -34.648995 C 223.420568 -43.315447 223.49037 -27.107307 219.358089 -37.100404 C 215.211847 -47.093501 224.579282 -40.128615 224.341955 -50.799455 C 224.090667 -61.470295 212.028874 -53.943027 217.36175 -63.417002 C 222.708587 -72.890977 221.968685 -60.28785 230.219287 -68.045839 C 238.469889 -75.789408 231.643249 -79.250221 241.122367 -84.39818 C 250.615445 -89.531719 236.766719 -82.783134 248.116532 -82.523573 C 259.466344 -82.264012 258.251789 -87.06589 268.54061 -83.388776 C 278.829432 -79.726083 268.987344 -81.254608 278.159332 -75.847088 C 287.345282 -70.439568 280.002106 -77.447714 285.879439 -68.939882 C 291.770731 -60.417631 284.5532 -71.304771 287.052113 -61.239574 C 289.537066 -51.174376 292.580435 -63.474682 293.878753 -52.731742 C 295.177071 -41.988802 291.296078 -48.607607 287.875777 -38.68661 C 284.455477 -28.780033 296.321825 -34.057773 287.917659 -27.222667 C 279.513492 -20.387562 282.389336 -27.164987 271.93299 -23.487873 Z M 271.93299 -23.487873 " transform="matrix(0.279809,0,0,0.27089,-24.12449,104.429039)"/>
<path style=" stroke:none;fill-rule:nonzero;fill:rgb(100%,100%,100%);fill-opacity:0.392157;" d="M 28.679688 51.429688 C 26.574219 51.414062 29.542969 54.277344 26.4375 54.246094 C 23.066406 54.210938 25.375 51.320312 22.226562 53.164062 C 19.078125 55.011719 20.953125 54.058594 18.570312 56.507812 C 16.183594 58.957031 17.328125 54.710938 16.277344 57.890625 C 15.917969 58.976562 16.050781 59.351562 16.386719 59.519531 C 17.234375 57.015625 16.277344 60.816406 18.570312 58.46875 C 20.953125 56.019531 19.078125 56.96875 22.226562 55.125 C 25.375 53.277344 23.066406 56.171875 26.4375 56.207031 C 29.804688 56.238281 26.027344 52.863281 29.332031 53.460938 C 29.726562 53.53125 30.011719 53.613281 30.214844 53.707031 C 30.171875 52.738281 31.679688 51.925781 29.332031 51.5 C 29.074219 51.457031 28.859375 51.433594 28.679688 51.429688 Z M 35.644531 53.933594 C 34.53125 53.90625 33.730469 56.0625 31.40625 54.949219 C 31.050781 54.78125 30.796875 54.617188 30.613281 54.449219 C 30.40625 55.125 29.492188 55.996094 31.40625 56.910156 C 34.503906 58.394531 34.898438 54.066406 36.929688 56.851562 C 36.945312 56.875 36.964844 56.902344 36.980469 56.925781 C 37.429688 56.386719 37.566406 55.765625 36.929688 54.890625 C 36.421875 54.195312 36.015625 53.941406 35.644531 53.933594 Z M 37.273438 60.90625 C 36.847656 60.871094 35.316406 63.351562 34.425781 61.300781 C 34.164062 61.777344 34.085938 62.339844 34.34375 63.050781 C 35.117188 65.195312 36.476562 63.367188 37.082031 62.945312 C 37.132812 62.695312 37.183594 62.449219 37.25 62.121094 C 37.4375 61.226562 37.421875 60.917969 37.273438 60.90625 Z M 18.449219 63.007812 C 17.917969 64.675781 15.667969 62.375 16.328125 65.253906 C 16.371094 65.429688 16.410156 65.585938 16.453125 65.730469 C 17.074219 65.335938 18.671875 66.472656 18.550781 63.808594 C 18.535156 63.496094 18.5 63.234375 18.449219 63.007812 Z M 35.417969 69.15625 C 35.386719 69.214844 35.359375 69.261719 35.328125 69.324219 C 34.65625 70.628906 35.117188 71.019531 35.671875 71.234375 C 35.746094 71.167969 35.824219 71.09375 35.90625 71.011719 C 37.539062 69.359375 36.175781 69.597656 35.417969 69.15625 Z M 20.394531 70.121094 C 19.375 71.128906 17.347656 71.8125 19.507812 72.765625 C 19.519531 72.769531 19.527344 72.773438 19.535156 72.777344 C 20.464844 72.09375 21.554688 71.300781 20.394531 70.121094 Z M 20.394531 70.121094 "/>
<path style="fill:none;stroke-width:3;stroke-linecap:round;stroke-linejoin:round;stroke:rgb(12.941177%,12.941177%,12.941177%);stroke-opacity:0.96129;stroke-miterlimit:4;" d="M 338.108248 -34.009737 C 325.296972 -28.916473 331.202658 -16.277055 317.813311 -15.370891 C 304.423965 -14.464728 323.812739 -20.448532 309.767205 -23.729468 C 295.721671 -27.026028 302.471027 -16.245808 289.128551 -22.13587 C 275.801698 -28.025933 302.346038 -31.30687 292.393864 -40.83721 C 282.441689 -50.351926 279.473223 -38.837401 276.411015 -52.179876 C 273.348808 -65.537976 285.972602 -50.99249 285.300791 -65.787952 C 284.613357 -80.599037 272.005186 -68.912653 276.20791 -81.630189 C 280.410633 -94.347725 275.832945 -77.364971 285.378909 -87.160911 C 294.909249 -96.95685 287.409965 -93.144714 300.002512 -100.534634 C 312.59506 -107.90893 303.361567 -96.347534 316.844654 -96.206922 C 330.312118 -96.06631 315.204186 -109.565021 328.421673 -107.190248 C 341.639161 -104.799851 324.312691 -99.316 336.717756 -93.394691 C 349.107198 -87.457758 350.685172 -104.768604 358.793773 -93.629043 C 366.917997 -82.489482 343.779582 -81.72393 348.466634 -68.818912 C 353.138063 -55.929518 363.074614 -79.00544 360.090524 -64.70993 C 357.122058 -50.41442 358.746902 -56.038883 352.403758 -43.727559 C 346.060614 -31.431858 364.871318 -39.431094 354.716037 -29.150826 C 344.545134 -18.870557 350.919525 -39.103 338.108248 -34.009737 Z M 338.108248 -34.009737 " transform="matrix(0.250024,0,0,0.250024,-52.781228,78.300121)"/>
<path style=" stroke:none;fill-rule:nonzero;fill:rgb(100%,100%,100%);fill-opacity:0.313726;" d="M 39.824219 22.597656 C 38.90625 22.609375 39.964844 23.316406 37.265625 24.042969 C 33.808594 24.96875 37.199219 22.703125 34.171875 24.507812 C 31.148438 26.308594 33.164062 24.535156 30.832031 27.078125 C 28.496094 29.621094 29.160156 26.0625 28.183594 29.113281 C 27.785156 30.363281 27.988281 30.605469 28.316406 30.675781 C 29.101562 28.371094 28.613281 31.453125 30.832031 29.039062 C 33.164062 26.496094 31.148438 28.269531 34.171875 26.464844 C 37.199219 24.664062 33.808594 26.929688 37.265625 26 C 40.722656 25.074219 38.019531 24.175781 41.183594 24.726562 C 44.351562 25.28125 42.21875 24.570312 44.996094 26.382812 C 47.667969 28.128906 46.980469 25.542969 48.660156 27.734375 C 49.304688 27.527344 49.777344 27.304688 48.863281 26.046875 C 46.917969 23.375 47.773438 26.238281 44.996094 24.425781 C 42.21875 22.613281 44.351562 23.320312 41.183594 22.769531 C 40.492188 22.648438 40.082031 22.597656 39.824219 22.597656 Z M 47.671875 30.160156 C 47.375 30.449219 47.25 30.921875 47.550781 31.804688 C 48.085938 33.363281 48.632812 33.355469 48.953125 33.378906 C 48.96875 33.324219 48.976562 33.285156 48.988281 33.226562 C 49.730469 29.914062 48.707031 32.753906 47.671875 30.160156 Z M 29.023438 32.808594 C 28.351562 35.339844 27.636719 33.417969 28.261719 36.277344 C 28.480469 36.082031 28.8125 35.753906 29.121094 34.363281 C 29.339844 33.375 29.238281 32.976562 29.023438 32.808594 Z M 47.742188 38.992188 C 47.238281 40.441406 47.816406 41.152344 48.257812 41.78125 C 49.257812 40.480469 48.207031 40.023438 47.742188 38.992188 Z M 31.203125 41.425781 C 30.582031 42.339844 29.523438 43.058594 30.878906 43.8125 C 31.410156 43.148438 31.960938 42.390625 31.203125 41.425781 Z M 31.203125 41.425781 "/>
<path style="fill:none;stroke-width:3;stroke-linecap:round;stroke-linejoin:round;stroke:rgb(12.941177%,12.941177%,12.941177%);stroke-opacity:0.96129;stroke-miterlimit:4;" d="M 331.957427 -30.93812 C 319.614856 -25.766739 330.113853 -16.127035 317.286953 -15.330236 C 304.475676 -14.517813 318.693069 -16.298893 306.334874 -21.079687 C 293.961055 -25.876104 301.86655 -16.564493 288.899039 -22.017097 C 275.931527 -27.469702 297.117004 -32.219248 287.289818 -41.546482 C 277.447007 -50.88934 279.696793 -39.640414 276.837691 -52.467314 C 273.994212 -65.309838 277.353266 -55.717004 280.165498 -68.465787 C 282.977729 -81.214569 272.525602 -69.434444 276.415856 -81.636404 C 280.321733 -93.838364 277.665737 -79.605348 287.008594 -89.776252 C 296.335829 -99.947155 288.274099 -92.854083 300.366694 -100.05652 C 312.474912 -107.274581 298.913707 -98.212946 312.740512 -101.915717 C 326.567317 -105.634112 315.755849 -109.227519 328.410891 -107.008981 C 341.081556 -104.806066 332.55112 -107.633921 343.659434 -100.384613 C 354.767749 -93.135306 351.3462 -104.587337 359.126707 -93.900858 C 366.907214 -83.198755 349.596368 -91.244861 353.877209 -78.714808 C 358.173673 -66.169131 362.704491 -78.94916 359.62666 -65.18485 C 356.548829 -51.436163 360.704682 -64.34118 355.127089 -51.186187 C 349.549497 -38.046816 364.813664 -38.921733 355.002101 -29.032052 C 345.174915 -19.157995 344.299998 -36.109501 331.957427 -30.93812 Z M 331.957427 -30.93812 " transform="matrix(0.250024,0,0,0.250024,-40.926969,49.524331)"/>
<path style=" stroke:none;fill-rule:nonzero;fill:rgb(100%,100%,100%);fill-opacity:0.392157;" d="M 91.320312 44.882812 C 91.261719 44.882812 91.199219 44.886719 91.128906 44.894531 C 86.480469 45.339844 90.019531 46.027344 86.273438 47.820312 C 86.277344 47.875 86.25 47.960938 86.1875 48.085938 C 84.265625 51.882812 84.472656 49.28125 82.65625 53.203125 C 82.636719 53.777344 82.636719 54.203125 82.652344 54.523438 C 82.671875 54.527344 82.679688 54.59375 82.671875 54.757812 C 82.671875 54.773438 82.671875 54.785156 82.671875 54.800781 C 82.679688 54.894531 82.691406 54.980469 82.703125 55.058594 C 84.46875 51.285156 84.28125 53.808594 86.1875 50.046875 C 86.25 49.921875 86.277344 49.835938 86.273438 49.78125 C 86.207031 49.8125 86.140625 49.84375 86.070312 49.878906 C 85.234375 50.261719 86.273438 49.429688 86.273438 49.78125 C 90.019531 47.988281 86.480469 47.300781 91.128906 46.851562 C 92.25 46.746094 91.710938 47.402344 92.652344 47.796875 C 96.632812 49.457031 95.085938 48.636719 99.472656 49.972656 C 99.566406 50 99.640625 50.015625 99.699219 50.023438 C 99.492188 49.378906 100.285156 50.105469 99.699219 50.023438 C 99.710938 50.0625 99.726562 50.101562 99.746094 50.148438 C 101.363281 54.117188 100.972656 50.691406 103.113281 54.675781 C 103.140625 54.730469 103.167969 54.789062 103.191406 54.847656 C 103.351562 54.101562 103.460938 53.363281 103.113281 52.714844 C 100.972656 48.734375 101.363281 52.15625 99.746094 48.1875 C 99.726562 48.140625 99.710938 48.101562 99.699219 48.066406 C 99.640625 48.054688 99.566406 48.039062 99.472656 48.011719 C 95.085938 46.675781 96.632812 47.5 92.652344 45.839844 C 91.769531 45.46875 92.1875 44.867188 91.320312 44.882812 Z M 99.699219 48.066406 C 100.285156 48.148438 99.492188 47.417969 99.699219 48.066406 Z M 82.65625 53.203125 C 82.660156 53.078125 82.667969 52.941406 82.671875 52.796875 C 82.71875 51.789062 82.101562 54.417969 82.558594 53.414062 C 82.59375 53.339844 82.625 53.273438 82.65625 53.203125 Z M 86.273438 47.820312 C 86.273438 47.46875 85.234375 48.300781 86.070312 47.917969 C 86.140625 47.886719 86.207031 47.851562 86.273438 47.820312 Z M 83.429688 59.511719 C 83.152344 59.984375 82.578125 60.058594 83.042969 60.695312 C 83.21875 60.933594 83.371094 61.132812 83.503906 61.304688 C 83.546875 61.179688 83.570312 61.03125 83.558594 60.847656 C 83.519531 60.308594 83.476562 59.875 83.429688 59.511719 Z M 83.429688 59.511719 "/>
<path style="fill:none;stroke-width:3.615564;stroke-linecap:round;stroke-linejoin:round;stroke:rgb(12.941177%,12.941177%,12.941177%);stroke-opacity:0.96129;stroke-miterlimit:4;" d="M 357.238269 -30.773051 C 339.313712 -16.595565 353.397293 -20.206812 334.656296 -11.455749 C 330.221545 -9.373073 330.20299 -19.003063 324.877578 -19.996633 C 302.406937 -24.2002 321.927262 -16.404494 299.41951 -21.257703 C 294.094098 -22.404131 296.988747 -23.47413 292.980772 -27.180912 C 276.13243 -42.829646 286.356479 -19.117706 274.072776 -36.466974 C 271.159571 -40.594112 276.893203 -39.887149 276.522094 -45.313572 C 274.926326 -68.223012 271.363681 -54.29392 272.310009 -75.101577 C 272.532674 -80.031215 269.600914 -67.172121 271.771901 -72.082651 C 280.919734 -92.794773 279.71363 -79.228715 289.009907 -98.144767 C 291.218005 -102.615834 283.851494 -96.807269 288.453244 -98.966374 C 307.862237 -108.080472 290.011901 -111.538861 312.482542 -113.755287 C 317.807954 -114.290287 315.247303 -111.061183 319.719165 -109.131363 C 338.627161 -101.010836 331.279205 -105.042439 352.116967 -98.507803 C 357.052715 -96.960126 351.597415 -102.252799 353.415848 -97.647982 C 361.097802 -78.235145 359.242257 -94.972985 369.41064 -75.502826 C 371.804292 -70.878903 369.61475 -65.356944 368.79831 -60.083378 C 365.346998 -37.842686 368.5942 -57.236417 362.229684 -36.982866 C 360.726693 -32.186978 361.487466 -34.135905 357.238269 -30.773051 Z M 357.238269 -30.773051 " transform="matrix(0.210518,0,0,0.204439,25.345785,68.150601)"/>
<path style=" stroke:none;fill-rule:nonzero;fill:rgb(0%,0%,0%);fill-opacity:0.235294;" d="M 70.105469 39.085938 C 68.707031 40.464844 68.976562 42.25 69.355469 44.339844 C 70.007812 42.8125 71.878906 41.644531 76.40625 40.925781 C 73.5 40.398438 72.914062 39.449219 70.105469 39.085938 Z M 54.019531 47.328125 C 53.417969 49.917969 53.984375 52.96875 56 56.28125 C 57.957031 59.667969 60.394531 61.980469 62.777344 64.507812 C 62.78125 64.546875 62.78125 64.582031 62.785156 64.625 C 62.785156 64.65625 62.789062 64.691406 62.789062 64.726562 C 62.792969 64.773438 62.796875 64.820312 62.800781 64.871094 C 62.804688 64.910156 62.804688 64.949219 62.808594 64.992188 C 62.8125 65.035156 62.820312 65.082031 62.824219 65.128906 C 62.828125 65.171875 62.832031 65.210938 62.835938 65.25 C 62.839844 65.300781 62.847656 65.351562 62.855469 65.402344 C 62.859375 65.441406 62.863281 65.484375 62.871094 65.527344 C 62.875 65.578125 62.882812 65.632812 62.890625 65.6875 C 62.902344 65.757812 62.914062 65.828125 62.925781 65.902344 C 62.933594 65.960938 62.941406 66.015625 62.953125 66.074219 C 62.960938 66.125 62.96875 66.175781 62.980469 66.226562 C 62.988281 66.273438 62.996094 66.320312 63.007812 66.371094 C 63.015625 66.425781 63.027344 66.480469 63.039062 66.535156 C 63.046875 66.578125 63.054688 66.625 63.0625 66.667969 C 63.074219 66.726562 63.089844 66.789062 63.101562 66.847656 C 63.109375 66.890625 63.121094 66.929688 63.128906 66.972656 C 63.140625 67.039062 63.15625 67.101562 63.171875 67.167969 C 63.175781 67.195312 63.183594 67.226562 63.191406 67.253906 C 63.230469 67.421875 63.269531 67.59375 63.316406 67.765625 C 63.316406 67.769531 63.316406 67.773438 63.316406 67.777344 C 63.335938 67.851562 63.355469 67.929688 63.378906 68.011719 C 63.386719 68.046875 63.394531 68.082031 63.40625 68.117188 C 63.425781 68.195312 63.449219 68.277344 63.46875 68.359375 C 63.476562 68.378906 63.480469 68.398438 63.488281 68.421875 C 63.660156 69.050781 63.863281 69.71875 64.097656 70.417969 C 64.097656 70.421875 64.101562 70.425781 64.101562 70.429688 C 64.945312 72.96875 66.175781 75.945312 67.722656 79.175781 C 68.027344 78.59375 68.445312 78.054688 68.980469 77.554688 C 66.832031 73.339844 65.164062 69.453125 64.101562 66.257812 C 64.101562 66.253906 64.097656 66.25 64.097656 66.246094 C 63.863281 65.546875 63.660156 64.878906 63.488281 64.25 C 63.480469 64.230469 63.476562 64.210938 63.46875 64.191406 C 63.449219 64.109375 63.425781 64.027344 63.40625 63.945312 C 63.394531 63.910156 63.386719 63.875 63.378906 63.839844 C 63.355469 63.761719 63.335938 63.683594 63.316406 63.605469 C 63.316406 63.605469 63.316406 63.601562 63.316406 63.597656 C 63.269531 63.421875 63.230469 63.253906 63.191406 63.085938 C 63.183594 63.054688 63.175781 63.027344 63.171875 62.996094 C 63.15625 62.933594 63.140625 62.867188 63.128906 62.804688 C 63.121094 62.761719 63.109375 62.71875 63.101562 62.679688 C 63.089844 62.617188 63.074219 62.558594 63.0625 62.5 C 63.054688 62.453125 63.046875 62.410156 63.039062 62.367188 C 63.027344 62.3125 63.015625 62.257812 63.007812 62.203125 C 62.996094 62.152344 62.988281 62.105469 62.980469 62.054688 C 62.96875 62.003906 62.960938 61.953125 62.953125 61.902344 C 62.941406 61.847656 62.933594 61.789062 62.925781 61.734375 C 62.914062 61.660156 62.902344 61.585938 62.890625 61.515625 C 62.882812 61.460938 62.875 61.410156 62.871094 61.355469 C 62.863281 61.3125 62.859375 61.273438 62.855469 61.230469 C 62.847656 61.179688 62.839844 61.132812 62.835938 61.082031 C 62.832031 61.042969 62.828125 61 62.824219 60.960938 C 62.820312 60.914062 62.8125 60.867188 62.808594 60.820312 C 62.804688 60.78125 62.804688 60.742188 62.800781 60.699219 C 62.796875 60.652344 62.792969 60.605469 62.789062 60.558594 C 62.789062 60.523438 62.785156 60.488281 62.785156 60.453125 C 62.78125 60.414062 62.78125 60.375 62.777344 60.335938 C 60.394531 57.8125 57.957031 55.496094 56 52.113281 C 54.984375 50.441406 54.335938 48.839844 54.019531 47.328125 Z M 69.617188 50.050781 C 69.320312 51.507812 68.628906 53.042969 67.246094 54.632812 C 65.949219 56.089844 65.832031 57.316406 66.1875 58.550781 C 66.191406 58.554688 66.195312 58.554688 66.199219 58.558594 C 66.25 58.589844 66.300781 58.625 66.351562 58.660156 C 66.375 58.679688 66.398438 58.695312 66.425781 58.710938 C 66.472656 58.746094 66.519531 58.777344 66.566406 58.8125 C 66.59375 58.832031 66.621094 58.851562 66.648438 58.875 C 66.695312 58.90625 66.742188 58.941406 66.789062 58.976562 C 66.816406 58.996094 66.839844 59.015625 66.867188 59.039062 C 66.902344 59.066406 66.941406 59.09375 66.976562 59.121094 C 67.058594 59.015625 67.148438 58.910156 67.246094 58.804688 C 70.03125 55.605469 70.003906 52.636719 69.617188 50.050781 Z M 69.617188 50.050781 "/>
</g>
</svg>
