<?xml version="1.0" encoding="UTF-8"?>
<svg xmlns="http://www.w3.org/2000/svg" xmlns:xlink="http://www.w3.org/1999/xlink" width="512px" height="512px" viewBox="0 0 512 512" version="1.1">
<defs>
<radialGradient id="radial0" gradientUnits="userSpaceOnUse" cx="450.908936" cy="189.579361" fx="450.908936" fy="189.579361" r="21.166656" gradientTransform="matrix(0.00000278673,-1.250119,-2.250215,-0.00000162462,701.786086,1017.52527)">
<stop offset="0" style="stop-color:rgb(0%,0%,0%);stop-opacity:0.313726;"/>
<stop offset="0.222222" style="stop-color:rgb(0%,0%,0%);stop-opacity:0.27451;"/>
<stop offset="1" style="stop-color:rgb(0%,0%,0%);stop-opacity:0;"/>
</radialGradient>
<radialGradient id="radial1" gradientUnits="userSpaceOnUse" cx="450.908936" cy="189.579361" fx="450.908936" fy="189.579361" r="21.166656" gradientTransform="matrix(-0.00000278673,1.250119,2.250215,0.00000162462,-214.906243,-120.439713)">
<stop offset="0" style="stop-color:rgb(0%,0%,0%);stop-opacity:0.313726;"/>
<stop offset="0.222222" style="stop-color:rgb(0%,0%,0%);stop-opacity:0.27451;"/>
<stop offset="1" style="stop-color:rgb(0%,0%,0%);stop-opacity:0;"/>
</radialGradient>
<radialGradient id="radial2" gradientUnits="userSpaceOnUse" cx="450.908936" cy="189.579361" fx="450.908936" fy="189.579361" r="21.166656" gradientTransform="matrix(-0.00000278673,-1.250119,2.250215,-0.00000162462,-214.906243,1017.52527)">
<stop offset="0" style="stop-color:rgb(0%,0%,0%);stop-opacity:0.313726;"/>
<stop offset="0.222222" style="stop-color:rgb(0%,0%,0%);stop-opacity:0.27451;"/>
<stop offset="1" style="stop-color:rgb(0%,0%,0%);stop-opacity:0;"/>
</radialGradient>
<radialGradient id="radial3" gradientUnits="userSpaceOnUse" cx="450.908936" cy="189.579361" fx="450.908936" fy="189.579361" r="21.166656" gradientTransform="matrix(0.00000278673,1.250119,-2.250215,0.00000162462,701.786056,-120.43972)">
<stop offset="0" style="stop-color:rgb(0%,0%,0%);stop-opacity:0.313726;"/>
<stop offset="0.222222" style="stop-color:rgb(0%,0%,0%);stop-opacity:0.27451;"/>
<stop offset="1" style="stop-color:rgb(0%,0%,0%);stop-opacity:0;"/>
</radialGradient>
<linearGradient id="linear0" gradientUnits="userSpaceOnUse" x1="255.323059" y1="233.5" x2="255.323044" y2="254.666656" gradientTransform="matrix(0.213761,0,0,1.000095,188.861834,215.020539)">
<stop offset="0" style="stop-color:rgb(0%,0%,0%);stop-opacity:0.27451;"/>
<stop offset="1" style="stop-color:rgb(0%,0%,0%);stop-opacity:0;"/>
</linearGradient>
<linearGradient id="linear1" gradientUnits="userSpaceOnUse" x1="222.222565" y1="233.5" x2="232.805893" y2="-168.666672" gradientTransform="matrix(1.000095,0,0,1.000095,-10.556904,215.02053)">
<stop offset="0" style="stop-color:rgb(87.843138%,87.843138%,87.843138%);stop-opacity:1;"/>
<stop offset="1" style="stop-color:rgb(93.333334%,93.333334%,93.333334%);stop-opacity:1;"/>
</linearGradient>
<linearGradient id="linear2" gradientUnits="userSpaceOnUse" x1="316.079865" y1="-15.06434" x2="316.079865" y2="-105.022667" gradientTransform="matrix(0.903204,0,0,0.874414,-96.497961,417.716153)">
<stop offset="0" style="stop-color:rgb(25.882354%,64.705884%,96.078432%);stop-opacity:1;"/>
<stop offset="1" style="stop-color:rgb(39.215687%,70.980394%,96.470588%);stop-opacity:1;"/>
</linearGradient>
<linearGradient id="linear3" gradientUnits="userSpaceOnUse" x1="316.079865" y1="-15.06434" x2="316.079865" y2="-105.022667" gradientTransform="matrix(1.000095,0,0,1.000095,-211.124911,313.200484)">
<stop offset="0" style="stop-color:rgb(93.725491%,32.549021%,31.37255%);stop-opacity:1;"/>
<stop offset="1" style="stop-color:rgb(89.803922%,45.09804%,45.09804%);stop-opacity:1;"/>
</linearGradient>
<linearGradient id="linear4" gradientUnits="userSpaceOnUse" x1="316.079865" y1="-15.06434" x2="316.079865" y2="-105.022667" gradientTransform="matrix(1.000095,0,0,1.000095,-163.707877,198.097325)">
<stop offset="0" style="stop-color:rgb(40.000001%,73.333335%,41.568628%);stop-opacity:1;"/>
<stop offset="1" style="stop-color:rgb(50.588238%,78.039217%,51.764709%);stop-opacity:1;"/>
</linearGradient>
<linearGradient id="linear5" gradientUnits="userSpaceOnUse" x1="316.079865" y1="-15.06434" x2="316.079865" y2="-105.022667" gradientTransform="matrix(1.000095,0,0,1.000095,-36.695749,176.928637)">
<stop offset="0" style="stop-color:rgb(49.411765%,34.117648%,76.078433%);stop-opacity:1;"/>
<stop offset="1" style="stop-color:rgb(58.431375%,45.882353%,80.392158%);stop-opacity:1;"/>
</linearGradient>
<radialGradient id="radial4" gradientUnits="userSpaceOnUse" cx="450.908936" cy="189.579361" fx="450.908936" fy="189.579361" r="21.166656" gradientTransform="matrix(0.00000139336,-0.625059,-1.125108,-0.000000812308,570.518297,701.280702)">
<stop offset="0" style="stop-color:rgb(0%,0%,0%);stop-opacity:0.313726;"/>
<stop offset="0.222222" style="stop-color:rgb(0%,0%,0%);stop-opacity:0.27451;"/>
<stop offset="1" style="stop-color:rgb(0%,0%,0%);stop-opacity:0;"/>
</radialGradient>
<radialGradient id="radial5" gradientUnits="userSpaceOnUse" cx="450.908936" cy="189.579361" fx="450.908936" fy="189.579361" r="21.166656" gradientTransform="matrix(-0.00000139336,0.625059,1.125108,0.000000812308,149.217105,132.298889)">
<stop offset="0" style="stop-color:rgb(0%,0%,0%);stop-opacity:0.313726;"/>
<stop offset="0.222222" style="stop-color:rgb(0%,0%,0%);stop-opacity:0.27451;"/>
<stop offset="1" style="stop-color:rgb(0%,0%,0%);stop-opacity:0;"/>
</radialGradient>
<radialGradient id="radial6" gradientUnits="userSpaceOnUse" cx="450.908936" cy="189.579361" fx="450.908936" fy="189.579361" r="21.166656" gradientTransform="matrix(-0.00000139336,-0.625059,1.125108,-0.000000812308,149.217105,701.280702)">
<stop offset="0" style="stop-color:rgb(0%,0%,0%);stop-opacity:0.313726;"/>
<stop offset="0.222222" style="stop-color:rgb(0%,0%,0%);stop-opacity:0.27451;"/>
<stop offset="1" style="stop-color:rgb(0%,0%,0%);stop-opacity:0;"/>
</radialGradient>
<radialGradient id="radial7" gradientUnits="userSpaceOnUse" cx="450.908936" cy="189.579361" fx="450.908936" fy="189.579361" r="21.166656" gradientTransform="matrix(0.00000139336,0.625059,-1.125108,0.000000812308,570.518281,132.298885)">
<stop offset="0" style="stop-color:rgb(0%,0%,0%);stop-opacity:0.313726;"/>
<stop offset="0.222222" style="stop-color:rgb(0%,0%,0%);stop-opacity:0.27451;"/>
<stop offset="1" style="stop-color:rgb(0%,0%,0%);stop-opacity:0;"/>
</radialGradient>
<linearGradient id="linear6" gradientUnits="userSpaceOnUse" x1="187.386063" y1="195.040436" x2="256.177734" y2="75.889771" gradientTransform="matrix(0.866108,-0.500048,0.500048,0.866108,25.951164,341.565688)">
<stop offset="0" style="stop-color:rgb(100%,65.490198%,14.901961%);stop-opacity:1;"/>
<stop offset="1" style="stop-color:rgb(100%,71.764708%,30.19608%);stop-opacity:1;"/>
</linearGradient>
<linearGradient id="linear7" gradientUnits="userSpaceOnUse" x1="221.971863" y1="92.80275" x2="264.305206" y2="19.479267" gradientTransform="matrix(0.866108,-0.500048,0.500048,0.866108,25.951158,341.565689)">
<stop offset="0" style="stop-color:rgb(74.117649%,74.117649%,74.117649%);stop-opacity:1;"/>
<stop offset="1" style="stop-color:rgb(87.843138%,87.843138%,87.843138%);stop-opacity:1;"/>
</linearGradient>
<linearGradient id="linear8" gradientUnits="userSpaceOnUse" x1="243.416672" y1="64.166664" x2="243.416672" y2="-41.666668" gradientTransform="matrix(1,0,0,1,0,-31.74999)">
<stop offset="0" style="stop-color:rgb(38.039216%,38.039216%,38.039216%);stop-opacity:1;"/>
<stop offset="1" style="stop-color:rgb(45.882353%,45.882353%,45.882353%);stop-opacity:1;"/>
</linearGradient>
<linearGradient id="linear9" gradientUnits="userSpaceOnUse" x1="316.079865" y1="-15.06434" x2="316.079865" y2="-105.022667" gradientTransform="matrix(0.842071,0,0,0.817758,101.38314,272.602404)">
<stop offset="0" style="stop-color:rgb(100%,65.490198%,14.901961%);stop-opacity:1;"/>
<stop offset="1" style="stop-color:rgb(100%,71.764708%,30.19608%);stop-opacity:1;"/>
</linearGradient>
</defs>
<g id="surface1">
<path style=" stroke:none;fill-rule:nonzero;fill:url(#radial0);" d="M 280.484375 448.542969 L 322.824219 448.542969 L 322.824219 427.375 L 280.484375 427.375 Z M 280.484375 448.542969 "/>
<path style=" stroke:none;fill-rule:nonzero;fill:url(#radial1);" d="M 206.394531 448.542969 L 164.058594 448.542969 L 164.058594 469.710938 L 206.394531 469.710938 Z M 206.394531 448.542969 "/>
<path style=" stroke:none;fill-rule:nonzero;fill:url(#radial2);" d="M 206.394531 448.542969 L 164.058594 448.542969 L 164.058594 427.375 L 206.394531 427.375 Z M 206.394531 448.542969 "/>
<path style=" stroke:none;fill-rule:nonzero;fill:url(#radial3);" d="M 280.484375 448.542969 L 322.824219 448.542969 L 322.824219 469.710938 L 280.484375 469.710938 Z M 280.484375 448.542969 "/>
<path style=" stroke:none;fill-rule:nonzero;fill:url(#linear0);" d="M 206.394531 443.25 L 280.484375 443.25 L 280.484375 469.710938 L 206.394531 469.710938 Z M 206.394531 443.25 "/>
<path style=" stroke:none;fill-rule:nonzero;fill:url(#linear1);" d="M 243.46875 46.335938 C 132.054688 46.335938 42.363281 136.027344 42.363281 247.441406 C 42.363281 358.851562 132.054688 448.542969 243.46875 448.542969 C 259.417969 448.542969 274.917969 446.703125 289.78125 443.222656 C 349.3125 427.375 211.714844 321.53125 296.390625 300.363281 C 381.0625 279.191406 444.570312 310.945312 444.570312 247.441406 C 444.570312 136.027344 354.878906 46.335938 243.46875 46.335938 Z M 243.46875 46.335938 "/>
<path style=" stroke:none;fill-rule:nonzero;fill:url(#linear2);" d="M 207.855469 392.257812 C 196.148438 396.230469 211.574219 400.726562 199.40625 400.3125 C 187.238281 399.898438 195.167969 394.457031 183.15625 391.53125 C 171.144531 388.609375 173.128906 405.96875 162.914062 400.351562 C 152.699219 394.738281 169.734375 389.558594 161.648438 380.171875 C 153.5625 370.789062 153.644531 388.335938 149.011719 377.511719 C 144.378906 366.683594 154.855469 374.226562 154.589844 362.664062 C 154.320312 351.101562 140.8125 359.257812 146.785156 348.996094 C 152.761719 338.730469 151.929688 352.394531 161.171875 343.992188 C 170.410156 335.585938 162.769531 331.835938 173.382812 326.265625 C 183.996094 320.695312 168.5 328.015625 181.203125 328.292969 C 193.90625 328.574219 192.542969 323.378906 204.058594 327.359375 C 215.570312 331.335938 204.5625 329.671875 214.832031 335.53125 C 225.105469 341.390625 216.886719 333.789062 223.472656 343.019531 C 230.058594 352.25 221.988281 340.457031 224.777344 351.359375 C 227.5625 362.265625 230.964844 348.945312 232.421875 360.578125 C 233.878906 372.210938 229.535156 365.042969 225.707031 375.789062 C 221.878906 386.539062 235.160156 380.816406 225.75 388.222656 C 216.339844 395.628906 219.5625 388.289062 207.855469 392.257812 Z M 207.855469 392.257812 "/>
<path style=" stroke:none;fill-rule:nonzero;fill:url(#linear3);" d="M 127.011719 279.191406 C 114.195312 284.285156 120.105469 296.921875 106.714844 297.828125 C 93.324219 298.734375 112.726562 292.75 98.675781 289.464844 C 84.625 286.179688 91.371094 296.945312 78.035156 291.0625 C 64.699219 285.175781 91.25 281.894531 81.300781 272.367188 C 71.351562 262.839844 68.378906 274.367188 65.3125 261.007812 C 62.25 247.648438 74.882812 262.210938 74.203125 247.398438 C 73.523438 232.589844 60.910156 244.277344 65.109375 231.558594 C 69.304688 218.835938 64.730469 235.824219 74.273438 226.03125 C 83.820312 216.238281 76.316406 220.042969 88.90625 212.660156 C 101.496094 205.277344 92.265625 216.847656 105.746094 216.984375 C 119.222656 217.121094 104.113281 203.621094 117.332031 206.007812 C 130.550781 208.390625 113.210938 213.871094 125.617188 219.804688 C 138.023438 225.734375 139.59375 208.421875 147.710938 219.558594 C 155.828125 230.699219 132.695312 231.464844 137.367188 244.367188 C 142.042969 257.273438 151.984375 234.183594 149.007812 248.480469 C 146.027344 262.777344 147.664062 257.15625 141.316406 269.460938 C 134.96875 281.769531 153.785156 273.769531 143.617188 284.046875 C 133.453125 294.320312 139.828125 274.101562 127.011719 279.191406 Z M 127.011719 279.191406 "/>
<path style=" stroke:none;fill-rule:nonzero;fill:url(#linear4);" d="M 168.277344 167.15625 C 155.9375 172.324219 166.433594 181.960938 153.617188 182.769531 C 140.800781 183.578125 155.019531 181.800781 142.652344 177.007812 C 130.285156 172.214844 138.183594 181.539062 125.21875 176.078125 C 112.257812 170.621094 133.4375 165.882812 123.601562 156.546875 C 113.769531 147.210938 116.019531 158.445312 113.164062 145.617188 C 110.308594 132.789062 113.667969 142.375 116.480469 129.621094 C 119.292969 116.871094 108.835938 128.664062 112.742188 116.457031 C 116.644531 104.25 113.988281 118.480469 123.320312 108.3125 C 132.65625 98.140625 124.59375 105.234375 136.695312 98.023438 C 148.792969 90.816406 135.238281 99.878906 149.058594 96.167969 C 162.882812 92.457031 152.082031 88.863281 164.742188 91.074219 C 177.402344 93.285156 168.867188 90.449219 179.980469 97.703125 C 191.089844 104.953125 187.679688 93.5 195.460938 104.195312 C 203.242188 114.890625 185.921875 106.835938 190.210938 119.378906 C 194.5 131.917969 199.03125 119.148438 195.953125 132.902344 C 192.878906 146.65625 197.023438 133.753906 191.449219 146.898438 C 185.875 160.042969 201.144531 159.171875 191.324219 169.058594 C 181.5 178.941406 180.621094 161.984375 168.277344 167.15625 Z M 168.277344 167.15625 "/>
<path style=" stroke:none;fill-rule:nonzero;fill:rgb(100%,100%,100%);fill-opacity:1;" d="M 243.46875 46.335938 C 132.054688 46.335938 42.363281 136.027344 42.363281 247.441406 C 42.363281 248.324219 42.371094 249.207031 42.382812 250.085938 C 43.789062 139.90625 132.941406 51.628906 243.46875 51.628906 C 353.816406 51.628906 442.859375 139.625 444.542969 249.558594 C 444.558594 248.863281 444.570312 248.160156 444.570312 247.441406 C 444.570312 136.027344 354.878906 46.335938 243.46875 46.335938 Z M 268.109375 331.949219 C 265.875 360.460938 302.488281 402.695312 305.089844 428.304688 C 307.832031 404.980469 270.316406 362.371094 268.109375 331.949219 Z M 268.109375 331.949219 "/>
<path style=" stroke:none;fill-rule:nonzero;fill:rgb(0%,0%,0%);fill-opacity:0.235294;" d="M 444.550781 244.699219 C 443.355469 305.816406 380.257812 274.867188 296.390625 295.835938 C 274.101562 301.410156 267.214844 312.847656 268.082031 326.96875 C 268.898438 314.945312 276.535156 305.324219 296.390625 300.363281 C 381.0625 279.191406 444.570312 310.945312 444.570312 247.441406 C 444.570312 246.523438 444.5625 245.609375 444.550781 244.699219 Z M 42.378906 245.175781 C 42.371094 245.929688 42.363281 246.683594 42.363281 247.441406 C 42.363281 358.851562 132.054688 448.542969 243.46875 448.542969 C 259.417969 448.542969 274.917969 446.703125 289.78125 443.222656 C 302.058594 439.953125 305.945312 432.851562 305.132812 423.457031 C 304.410156 430.601562 300 435.976562 289.78125 438.699219 C 274.917969 442.175781 259.417969 444.015625 243.46875 444.015625 C 132.8125 444.015625 43.585938 355.535156 42.378906 245.175781 Z M 42.378906 245.175781 "/>
<path style=" stroke:none;fill-rule:nonzero;fill:url(#linear5);" d="M 303.945312 154.925781 C 292.390625 158.925781 292.878906 160.828125 280.628906 161.601562 C 268.375 162.371094 287.027344 160.417969 274.558594 159.128906 C 262.089844 157.84375 264.625 160.128906 252.230469 154.910156 C 239.839844 149.691406 253.382812 156.59375 246.835938 145.839844 C 240.289062 135.089844 242.902344 136.714844 240.175781 124.449219 C 237.445312 112.183594 234.355469 120.8125 236.78125 108.636719 C 239.210938 96.460938 236.019531 106.957031 239.753906 95.289062 C 243.484375 83.617188 243.046875 91.378906 252.273438 81.707031 C 261.503906 72.03125 252.136719 83.746094 263.707031 76.855469 C 275.273438 69.964844 263.257812 65.296875 275.644531 65.691406 C 288.03125 66.085938 279.648438 67.792969 291.753906 69.90625 C 303.859375 72.015625 299.582031 63.746094 310.957031 70.511719 C 322.335938 77.273438 315.03125 72.800781 322.472656 83.027344 C 329.910156 93.25 327.488281 88.28125 330.289062 100.515625 C 333.089844 112.75 325.90625 98.585938 322.964844 111.734375 C 320.027344 124.882812 327.390625 123.832031 323.90625 136.046875 C 320.417969 148.257812 327.726562 138.441406 318.335938 147.890625 C 308.945312 157.339844 315.503906 150.925781 303.945312 154.925781 Z M 303.945312 154.925781 "/>
<path style=" stroke:none;fill-rule:nonzero;fill:url(#radial4);" d="M 359.867188 416.789062 L 381.035156 416.789062 L 381.035156 406.207031 L 359.867188 406.207031 Z M 359.867188 416.789062 "/>
<path style=" stroke:none;fill-rule:nonzero;fill:url(#radial5);" d="M 359.867188 416.789062 L 338.699219 416.789062 L 338.699219 427.375 L 359.867188 427.375 Z M 359.867188 416.789062 "/>
<path style=" stroke:none;fill-rule:nonzero;fill:url(#radial6);" d="M 359.867188 416.789062 L 338.699219 416.789062 L 338.699219 406.207031 L 359.867188 406.207031 Z M 359.867188 416.789062 "/>
<path style=" stroke:none;fill-rule:nonzero;fill:url(#radial7);" d="M 359.867188 416.789062 L 381.035156 416.789062 L 381.035156 427.375 L 359.867188 427.375 Z M 359.867188 416.789062 "/>
<path style=" stroke:none;fill-rule:nonzero;fill:rgb(0%,0%,0%);fill-opacity:0.235294;" d="M 327.695312 105.628906 C 326.054688 105.558594 324.160156 106.390625 322.964844 111.734375 C 321.820312 116.867188 322.242188 119.832031 322.976562 122.273438 C 325.925781 109.207031 333.085938 123.316406 330.289062 111.097656 C 329.753906 108.753906 329.433594 107.171875 329.175781 105.859375 C 328.730469 105.769531 328.230469 105.652344 327.695312 105.628906 Z M 237.175781 117.175781 C 237.066406 117.777344 236.9375 118.453125 236.78125 119.222656 C 234.355469 131.398438 237.445312 122.769531 240.175781 135.03125 C 242.902344 147.296875 240.292969 145.671875 246.839844 156.425781 C 253.386719 167.175781 239.839844 160.277344 252.230469 165.496094 C 264.625 170.714844 262.089844 168.425781 274.558594 169.714844 C 287.027344 171.003906 268.375 172.957031 280.628906 172.183594 C 292.878906 171.414062 292.390625 169.511719 303.949219 165.511719 C 315.503906 161.511719 308.945312 167.921875 318.335938 158.472656 C 327.726562 149.023438 320.417969 158.84375 323.90625 146.628906 C 325.457031 141.191406 324.855469 138.386719 323.976562 135.785156 C 323.949219 135.871094 323.929688 135.953125 323.90625 136.046875 C 320.417969 148.257812 327.726562 138.441406 318.335938 147.890625 C 308.945312 157.339844 315.503906 150.925781 303.949219 154.925781 C 292.390625 158.925781 292.878906 160.828125 280.628906 161.601562 C 268.375 162.371094 287.027344 160.417969 274.558594 159.128906 C 262.089844 157.84375 264.625 160.128906 252.230469 154.910156 C 239.839844 149.691406 253.386719 156.589844 246.839844 145.839844 C 240.292969 135.089844 242.902344 136.714844 240.175781 124.449219 C 239.113281 119.683594 238.003906 118.078125 237.175781 117.175781 Z M 237.175781 117.175781 "/>
<path style=" stroke:none;fill-rule:nonzero;fill:rgb(100%,100%,100%);fill-opacity:0.392157;" d="M 274.550781 65.667969 C 263.984375 65.589844 274.910156 70.179688 263.707031 76.855469 C 252.136719 83.746094 261.503906 72.03125 252.273438 81.707031 C 243.046875 91.378906 243.484375 83.617188 239.753906 95.289062 C 236.019531 106.957031 239.210938 96.460938 236.78125 108.636719 C 235.480469 115.167969 235.773438 115.71875 236.738281 116.710938 C 236.753906 116.625 236.765625 116.5625 236.78125 116.476562 C 239.210938 104.296875 236.019531 114.792969 239.753906 103.125 C 243.484375 91.457031 243.046875 99.21875 252.273438 89.542969 C 261.503906 79.871094 252.136719 91.585938 263.707031 84.695312 C 275.273438 77.804688 263.257812 73.132812 275.644531 73.527344 C 288.03125 73.921875 279.648438 75.632812 291.753906 77.742188 C 303.859375 79.855469 299.582031 71.585938 310.957031 78.347656 C 322.335938 85.113281 315.03125 80.640625 322.472656 90.863281 C 329.367188 100.339844 327.796875 96.785156 329.761719 105.960938 C 330.929688 106.078125 331.414062 105.417969 330.289062 100.515625 C 327.488281 88.28125 329.910156 93.25 322.472656 83.027344 C 315.03125 72.800781 322.335938 77.273438 310.957031 70.511719 C 299.582031 63.746094 303.859375 72.015625 291.753906 69.90625 C 279.648438 67.792969 288.03125 66.085938 275.644531 65.691406 C 275.257812 65.679688 274.894531 65.671875 274.550781 65.667969 Z M 322.664062 121.09375 C 321.417969 128.113281 323.371094 130.695312 324.355469 134.257812 C 325.851562 127.511719 323.625 125.277344 322.664062 121.09375 Z M 322.664062 121.09375 "/>
<path style="fill:none;stroke-width:3;stroke-linecap:round;stroke-linejoin:round;stroke:rgb(12.941177%,12.941177%,12.941177%);stroke-opacity:0.96129;stroke-miterlimit:4;" d="M 340.608535 -22.000755 C 329.054951 -18.001137 329.543186 -16.098975 317.294356 -15.325611 C 305.041619 -14.556154 323.692182 -16.509092 311.224623 -17.798032 C 298.757063 -19.083065 301.291977 -16.798127 288.89863 -22.016379 C 276.509188 -27.23463 290.050863 -20.332946 283.504614 -31.085825 C 276.958364 -41.834799 279.571395 -40.209954 276.845093 -52.474408 C 274.114885 -64.738861 271.025337 -56.110779 273.450886 -68.285398 C 275.880342 -80.460016 272.68924 -69.964925 276.423259 -81.631779 C 280.153371 -93.30254 279.715913 -85.541562 288.941594 -95.212514 C 298.171182 -104.887371 288.804889 -93.173646 300.374096 -100.063613 C 311.939398 -106.95358 299.924921 -111.621103 312.310457 -111.22661 C 324.695992 -110.832116 316.31398 -109.125248 328.418293 -107.012168 C 340.522606 -104.902995 336.245671 -113.171736 347.619585 -106.406757 C 358.997404 -99.645684 351.693414 -104.117913 359.13411 -93.892327 C 366.5709 -83.670647 364.149256 -88.638923 366.94977 -76.405716 C 369.750284 -64.172509 362.567376 -78.335219 359.626251 -65.188037 C 356.689031 -52.040855 364.051609 -53.091536 360.567567 -40.877859 C 357.079619 -28.668087 364.387515 -38.483556 354.997786 -29.03524 C 345.608058 -19.586923 352.166025 -26.000373 340.608535 -22.000755 Z M 340.608535 -22.000755 " transform="matrix(1.000095,0,0,1.000095,-36.695749,176.928637)"/>
<path style=" stroke:none;fill-rule:nonzero;fill:rgb(12.941177%,12.941177%,12.941177%);fill-opacity:1;" d="M 243.46875 44.835938 C 131.25 44.835938 40.863281 135.222656 40.863281 247.441406 C 40.863281 359.65625 131.25 450.042969 243.46875 450.042969 C 259.53125 450.042969 275.152344 448.1875 290.121094 444.683594 L 290.144531 444.679688 L 290.164062 444.675781 C 297.875 442.621094 302.722656 438.953125 305.039062 434.042969 C 307.355469 429.132812 307.121094 423.242188 305.472656 416.820312 C 302.171875 403.96875 293.148438 388.59375 284.984375 373.089844 C 276.816406 357.582031 269.566406 341.96875 269.507812 329.378906 C 269.476562 323.082031 271.15625 317.589844 275.351562 312.933594 C 279.542969 308.273438 286.359375 304.414062 296.753906 301.816406 C 338.832031 291.296875 375.683594 293.941406 402.382812 291.269531 C 415.730469 289.933594 426.640625 287.277344 434.304688 280.660156 C 441.96875 274.039062 446.070312 263.566406 446.070312 247.441406 C 446.070312 135.222656 355.683594 44.835938 243.46875 44.835938 Z M 243.46875 47.835938 C 354.074219 47.835938 443.070312 136.835938 443.070312 247.441406 C 443.070312 263.066406 439.234375 272.4375 432.34375 278.386719 C 425.453125 284.339844 415.195312 286.972656 402.082031 288.285156 C 375.859375 290.90625 338.621094 288.257812 296.023438 298.90625 C 285.25 301.601562 277.84375 305.679688 273.121094 310.925781 C 268.398438 316.167969 266.472656 322.539062 266.503906 329.394531 C 266.570312 343.097656 274.121094 358.902344 282.328125 374.488281 C 290.535156 390.070312 299.457031 405.449219 302.566406 417.566406 C 304.121094 423.625 304.210938 428.769531 302.324219 432.761719 C 300.441406 436.753906 296.570312 439.859375 289.40625 441.769531 C 274.667969 445.21875 259.289062 447.042969 243.46875 447.042969 C 132.863281 447.042969 43.863281 358.046875 43.863281 247.441406 C 43.863281 136.835938 132.863281 47.835938 243.46875 47.835938 Z M 243.46875 47.835938 "/>
<path style=" stroke:none;fill-rule:nonzero;fill:url(#linear6);" d="M 254.214844 228.878906 C 264.339844 223.035156 296.242188 259.335938 325.46875 309.960938 L 328.113281 314.542969 C 357.34375 365.167969 372.828125 410.945312 362.703125 416.789062 C 352.578125 422.636719 320.675781 386.335938 291.449219 335.710938 L 288.804688 331.128906 C 259.574219 280.503906 244.089844 234.726562 254.214844 228.878906 Z M 254.214844 228.878906 "/>
<path style=" stroke:none;fill-rule:nonzero;fill:rgb(0%,0%,0%);fill-opacity:0.235294;" d="M 251.21875 234.96875 C 249.589844 250.089844 264.371094 288.808594 288.804688 331.128906 L 291.449219 335.710938 C 320.769531 386.492188 352.546875 422.652344 362.703125 416.789062 C 365.253906 415.316406 366.1875 411.34375 365.699219 405.410156 C 365.375 408.433594 364.394531 410.519531 362.703125 411.496094 C 352.546875 417.359375 320.769531 381.199219 291.449219 330.417969 L 288.804688 325.835938 C 266.84375 287.800781 252.679688 252.671875 251.21875 234.96875 Z M 251.21875 234.96875 "/>
<path style=" stroke:none;fill-rule:nonzero;fill:url(#linear7);" d="M 254.214844 228.878906 C 245.804688 233.734375 254.9375 265.828125 274.964844 305.546875 C 291.070312 316.238281 312.238281 300.363281 310.238281 285.183594 C 285.851562 247.976562 262.621094 224.027344 254.214844 228.878906 Z M 254.214844 228.878906 "/>
<path style=" stroke:none;fill-rule:nonzero;fill:rgb(100%,100%,100%);fill-opacity:0.392157;" d="M 256.667969 228.257812 C 255.75 228.265625 254.929688 228.46875 254.214844 228.878906 C 251.449219 230.476562 250.582031 235.027344 251.375 241.820312 C 251.808594 239.402344 252.742188 237.707031 254.214844 236.855469 C 264.371094 230.992188 296.148438 267.152344 325.46875 317.933594 L 328.113281 322.519531 C 349.449219 359.46875 363.421875 393.671875 365.542969 411.824219 C 368.085938 397.570312 353.175781 357.953125 328.113281 314.542969 L 325.46875 309.957031 C 298.210938 262.75 268.828125 228.175781 256.667969 228.257812 Z M 256.667969 228.257812 "/>
<path style=" stroke:none;fill-rule:nonzero;fill:rgb(100%,100%,100%);fill-opacity:0.705882;" d="M 256.574219 228.257812 C 255.695312 228.277344 254.902344 228.480469 254.214844 228.878906 C 250.15625 231.222656 250.195312 239.921875 253.5625 252.753906 L 253.667969 252.753906 C 262.902344 252.753906 270.839844 247.394531 274.554688 239.605469 C 267.253906 232.488281 261.136719 228.417969 256.957031 228.261719 C 256.828125 228.257812 256.703125 228.253906 256.574219 228.257812 Z M 256.574219 228.257812 "/>
<path style=" stroke:none;fill-rule:nonzero;fill:rgb(12.941177%,12.941177%,12.941177%);fill-opacity:1;" d="M 256.632812 226.746094 C 256.324219 226.75 256.019531 226.769531 255.722656 226.8125 C 254.925781 226.921875 254.167969 227.171875 253.464844 227.582031 C 251.140625 228.921875 250.03125 231.574219 249.703125 235.007812 C 249.6875 235.132812 249.679688 235.261719 249.667969 235.386719 C 249.660156 235.53125 249.648438 235.675781 249.640625 235.820312 C 249.628906 236 249.621094 236.179688 249.613281 236.359375 C 249.609375 236.457031 249.605469 236.558594 249.605469 236.65625 C 249.597656 236.859375 249.59375 237.0625 249.59375 237.273438 C 249.59375 237.289062 249.59375 237.300781 249.59375 237.316406 C 249.589844 237.402344 249.59375 237.492188 249.59375 237.578125 C 249.597656 237.777344 249.597656 237.976562 249.601562 238.183594 C 249.601562 238.195312 249.601562 238.207031 249.601562 238.21875 C 249.609375 238.523438 249.621094 238.832031 249.640625 239.148438 C 249.640625 239.210938 249.648438 239.28125 249.652344 239.34375 C 249.667969 239.632812 249.6875 239.929688 249.710938 240.226562 C 249.710938 240.253906 249.714844 240.28125 249.714844 240.3125 C 249.71875 240.355469 249.726562 240.40625 249.730469 240.453125 C 249.757812 240.765625 249.785156 241.082031 249.820312 241.402344 C 249.824219 241.449219 249.828125 241.496094 249.832031 241.539062 C 249.871094 241.902344 249.914062 242.269531 249.964844 242.644531 C 249.96875 242.664062 249.96875 242.683594 249.972656 242.703125 C 250.074219 243.503906 250.199219 244.332031 250.347656 245.1875 C 250.359375 245.265625 250.375 245.347656 250.390625 245.425781 C 250.441406 245.722656 250.496094 246.023438 250.550781 246.328125 C 250.589844 246.53125 250.628906 246.742188 250.671875 246.949219 C 250.707031 247.132812 250.742188 247.320312 250.78125 247.503906 C 250.839844 247.785156 250.898438 248.066406 250.957031 248.347656 C 250.96875 248.40625 250.984375 248.464844 250.996094 248.523438 C 251.902344 252.742188 253.234375 257.476562 254.957031 262.660156 C 254.96875 262.695312 254.980469 262.726562 254.992188 262.761719 C 255.089844 263.054688 255.183594 263.34375 255.285156 263.640625 C 255.503906 264.289062 255.730469 264.949219 255.964844 265.613281 C 255.964844 265.613281 255.964844 265.617188 255.964844 265.617188 C 256.292969 266.558594 256.636719 267.511719 256.988281 268.480469 C 257.011719 268.542969 257.035156 268.609375 257.058594 268.675781 C 257.40625 269.625 257.765625 270.585938 258.136719 271.5625 C 258.167969 271.648438 258.203125 271.734375 258.234375 271.820312 C 258.613281 272.816406 259.003906 273.820312 259.402344 274.835938 C 259.808594 275.859375 260.226562 276.898438 260.652344 277.945312 C 260.675781 278.007812 260.703125 278.070312 260.730469 278.132812 C 261.152344 279.171875 261.589844 280.222656 262.035156 281.285156 C 262.0625 281.347656 262.09375 281.414062 262.121094 281.480469 C 263.039062 283.664062 264.007812 285.886719 265.015625 288.152344 C 265.023438 288.167969 265.03125 288.179688 265.035156 288.195312 C 271.050781 301.664062 278.644531 316.53125 287.503906 331.878906 L 290.152344 336.460938 C 304.851562 361.921875 320.160156 383.71875 333.136719 398.484375 C 339.625 405.867188 345.515625 411.492188 350.554688 414.96875 C 353.078125 416.710938 355.382812 417.921875 357.527344 418.515625 C 359.671875 419.113281 361.746094 419.074219 363.453125 418.089844 C 365.160156 417.105469 366.230469 415.324219 366.789062 413.167969 C 367.34375 411.015625 367.449219 408.414062 367.203125 405.359375 C 366.707031 399.253906 364.785156 391.339844 361.632812 382.027344 C 355.335938 363.410156 344.113281 339.253906 329.414062 313.792969 L 326.769531 309.207031 C 318.675781 295.1875 310.398438 282.285156 302.425781 271.050781 C 302.417969 271.039062 302.410156 271.027344 302.398438 271.015625 C 302.394531 271.007812 302.386719 271 302.382812 270.988281 C 301.65625 269.96875 300.9375 268.964844 300.21875 267.972656 C 300.167969 267.902344 300.117188 267.832031 300.066406 267.765625 C 299.355469 266.785156 298.648438 265.816406 297.941406 264.863281 C 297.25 263.933594 296.566406 263.015625 295.882812 262.113281 C 295.796875 262 295.714844 261.890625 295.628906 261.78125 C 294.976562 260.917969 294.324219 260.0625 293.675781 259.226562 C 293.574219 259.097656 293.476562 258.972656 293.378906 258.847656 C 292.757812 258.050781 292.144531 257.265625 291.53125 256.492188 C 291.480469 256.429688 291.429688 256.367188 291.378906 256.300781 C 290.75 255.507812 290.125 254.734375 289.503906 253.96875 C 289.375 253.8125 289.246094 253.652344 289.121094 253.5 C 288.511719 252.753906 287.910156 252.019531 287.308594 251.304688 C 287.214844 251.191406 287.121094 251.082031 287.027344 250.96875 C 286.425781 250.25 285.828125 249.546875 285.234375 248.855469 C 285.195312 248.8125 285.160156 248.769531 285.121094 248.726562 C 284.671875 248.207031 284.226562 247.691406 283.785156 247.1875 C 283.605469 246.988281 283.433594 246.792969 283.257812 246.59375 C 283.179688 246.503906 283.101562 246.414062 283.019531 246.328125 C 282.394531 245.621094 281.769531 244.929688 281.15625 244.261719 C 281.152344 244.257812 281.148438 244.253906 281.148438 244.25 C 281.140625 244.242188 281.132812 244.234375 281.128906 244.230469 C 279.824219 242.808594 278.550781 241.46875 277.304688 240.203125 C 276.082031 238.96875 274.890625 237.808594 273.726562 236.730469 C 273.699219 236.703125 273.667969 236.671875 273.640625 236.644531 C 273.632812 236.640625 273.628906 236.636719 273.621094 236.628906 C 273.441406 236.464844 273.265625 236.304688 273.085938 236.140625 C 272.902344 235.972656 272.722656 235.808594 272.539062 235.648438 C 272.429688 235.546875 272.316406 235.445312 272.203125 235.347656 C 271.957031 235.128906 271.710938 234.914062 271.46875 234.703125 C 271.398438 234.640625 271.324219 234.574219 271.25 234.511719 C 269.894531 233.34375 268.582031 232.296875 267.316406 231.378906 C 266.996094 231.144531 266.675781 230.917969 266.363281 230.699219 C 266.054688 230.488281 265.75 230.285156 265.453125 230.089844 C 265.441406 230.082031 265.433594 230.078125 265.425781 230.074219 C 265.425781 230.070312 265.421875 230.070312 265.421875 230.066406 C 265.136719 229.886719 264.855469 229.707031 264.578125 229.539062 C 264.578125 229.535156 264.574219 229.535156 264.574219 229.535156 C 264.410156 229.433594 264.25 229.339844 264.085938 229.246094 C 264 229.195312 263.917969 229.144531 263.832031 229.097656 C 263.816406 229.085938 263.796875 229.078125 263.78125 229.066406 C 263.652344 228.992188 263.527344 228.921875 263.398438 228.855469 C 263.261719 228.777344 263.125 228.707031 262.992188 228.632812 C 262.847656 228.558594 262.703125 228.484375 262.5625 228.410156 C 262.371094 228.316406 262.179688 228.222656 261.992188 228.136719 C 261.925781 228.105469 261.863281 228.074219 261.796875 228.042969 C 259.964844 227.207031 258.226562 226.730469 256.636719 226.746094 Z M 256.769531 229.769531 C 257.558594 229.777344 258.5 229.972656 259.589844 230.378906 C 259.601562 230.382812 259.617188 230.390625 259.628906 230.394531 C 259.761719 230.445312 259.894531 230.496094 260.027344 230.550781 C 260.042969 230.558594 260.058594 230.5625 260.074219 230.570312 C 260.222656 230.632812 260.371094 230.695312 260.527344 230.765625 C 260.59375 230.796875 260.660156 230.828125 260.730469 230.863281 C 260.984375 230.980469 261.242188 231.109375 261.507812 231.246094 C 261.746094 231.371094 261.992188 231.503906 262.246094 231.648438 C 262.417969 231.746094 262.589844 231.847656 262.765625 231.953125 C 262.84375 232 262.917969 232.042969 263 232.089844 C 263.09375 232.148438 263.195312 232.214844 263.292969 232.273438 C 263.660156 232.503906 264.035156 232.746094 264.417969 233.007812 C 264.652344 233.167969 264.890625 233.335938 265.132812 233.503906 C 265.136719 233.507812 265.144531 233.511719 265.148438 233.515625 C 265.152344 233.519531 265.15625 233.523438 265.160156 233.523438 C 265.402344 233.699219 265.648438 233.878906 265.898438 234.0625 C 266.871094 234.785156 267.882812 235.59375 268.9375 236.488281 C 268.996094 236.539062 269.054688 236.589844 269.113281 236.640625 C 269.300781 236.796875 269.488281 236.960938 269.675781 237.125 C 269.828125 237.257812 269.980469 237.390625 270.132812 237.527344 C 270.265625 237.644531 270.402344 237.765625 270.535156 237.886719 C 270.785156 238.109375 271.035156 238.335938 271.289062 238.570312 C 271.339844 238.613281 271.386719 238.65625 271.433594 238.703125 C 272.746094 239.910156 274.105469 241.234375 275.503906 242.660156 C 275.964844 243.128906 276.425781 243.601562 276.890625 244.09375 C 277.03125 244.238281 277.171875 244.390625 277.3125 244.539062 C 277.757812 245.011719 278.210938 245.496094 278.664062 245.988281 C 278.78125 246.117188 278.898438 246.238281 279.015625 246.367188 C 279.585938 246.992188 280.164062 247.632812 280.746094 248.285156 C 280.8125 248.363281 280.882812 248.4375 280.949219 248.515625 C 289.402344 258.050781 298.972656 270.777344 308.738281 285.644531 C 309.492188 292.410156 305.152344 299.582031 298.578125 303.804688 C 292.011719 308.019531 283.550781 309.222656 276.113281 304.476562 C 266.851562 286.066406 259.949219 269.316406 256.101562 256.296875 C 255.867188 255.511719 255.652344 254.746094 255.441406 253.988281 C 255.371094 253.734375 255.300781 253.480469 255.234375 253.234375 C 255.199219 253.097656 255.160156 252.960938 255.125 252.828125 C 255.027344 252.453125 254.929688 252.085938 254.835938 251.71875 C 254.8125 251.628906 254.789062 251.535156 254.765625 251.445312 C 254.648438 250.984375 254.535156 250.53125 254.429688 250.082031 C 254.429688 250.078125 254.425781 250.074219 254.425781 250.066406 C 254.421875 250.054688 254.417969 250.046875 254.417969 250.035156 C 254.316406 249.621094 254.222656 249.214844 254.132812 248.8125 C 254.085938 248.609375 254.042969 248.40625 254 248.203125 C 253.957031 248 253.910156 247.800781 253.871094 247.601562 C 253.820312 247.363281 253.769531 247.132812 253.722656 246.898438 C 253.695312 246.75 253.664062 246.605469 253.636719 246.460938 C 253.582031 246.183594 253.53125 245.910156 253.480469 245.644531 C 253.46875 245.589844 253.460938 245.535156 253.449219 245.480469 C 253.199219 244.109375 253 242.816406 252.859375 241.601562 C 252.859375 241.597656 252.859375 241.589844 252.859375 241.582031 C 252.824219 241.300781 252.796875 241.027344 252.769531 240.757812 C 252.761719 240.683594 252.757812 240.613281 252.75 240.542969 C 252.726562 240.304688 252.707031 240.070312 252.691406 239.839844 C 252.679688 239.71875 252.671875 239.597656 252.664062 239.476562 C 252.65625 239.304688 252.640625 239.132812 252.632812 238.964844 C 252.617188 238.652344 252.605469 238.34375 252.601562 238.046875 C 252.597656 238.03125 252.597656 238.019531 252.597656 238.007812 C 252.59375 237.703125 252.589844 237.410156 252.59375 237.121094 C 252.59375 237.101562 252.597656 237.082031 252.597656 237.0625 C 252.601562 236.789062 252.609375 236.519531 252.621094 236.257812 C 252.621094 236.230469 252.625 236.203125 252.625 236.175781 C 252.636719 235.933594 252.65625 235.703125 252.675781 235.472656 C 252.679688 235.429688 252.683594 235.386719 252.6875 235.34375 C 252.703125 235.160156 252.726562 234.988281 252.746094 234.8125 C 253.019531 232.699219 253.644531 231.304688 254.464844 230.546875 C 254.539062 230.480469 254.617188 230.417969 254.695312 230.355469 C 254.785156 230.292969 254.871094 230.234375 254.964844 230.179688 C 255.054688 230.128906 255.152344 230.082031 255.25 230.035156 C 255.339844 230 255.429688 229.964844 255.523438 229.9375 C 255.527344 229.933594 255.527344 229.933594 255.53125 229.933594 C 255.738281 229.867188 255.960938 229.820312 256.199219 229.796875 C 256.378906 229.777344 256.566406 229.765625 256.765625 229.769531 Z M 311.636719 290.101562 C 315.816406 296.621094 320.019531 303.519531 324.167969 310.707031 L 326.816406 315.292969 C 341.433594 340.613281 352.585938 364.648438 358.792969 382.992188 C 361.894531 392.164062 363.753906 399.917969 364.210938 405.601562 C 364.441406 408.441406 364.3125 410.761719 363.882812 412.417969 C 363.453125 414.078125 362.785156 415.007812 361.953125 415.492188 C 361.121094 415.972656 359.980469 416.085938 358.332031 415.625 C 356.679688 415.167969 354.605469 414.121094 352.261719 412.5 C 347.570312 409.261719 341.78125 403.773438 335.390625 396.503906 C 322.605469 381.957031 307.367188 360.28125 292.75 334.960938 L 290.101562 330.378906 C 285.914062 323.121094 282.011719 315.972656 278.425781 309.03125 C 285.917969 311.957031 293.960938 310.332031 300.199219 306.328125 C 306.117188 302.53125 310.589844 296.566406 311.636719 290.101562 Z M 311.636719 290.101562 "/>
<path style="fill-rule:nonzero;fill:url(#linear8);stroke-width:3;stroke-linecap:round;stroke-linejoin:round;stroke:rgb(12.941177%,12.941177%,12.941177%);stroke-opacity:1;stroke-miterlimit:4;" d="M 269.876572 -78.708328 C 224.896492 -76.064049 201.08236 -46.957454 223.982517 -9.343858 C 232.833234 5.959368 244.136842 15.786555 254.823322 27.562774 C 259.420539 28.843902 265.220766 26.074635 266.822176 21.676617 C 263.556863 14.813991 261.935924 8.603647 268.950879 0.737211 C 298.979261 -33.728248 247.386532 -61.510751 305.591911 -70.771586 C 291.042519 -73.415864 291.042519 -78.708328 269.876572 -78.708328 Z M 269.876572 -78.708328 " transform="matrix(1.000095,0,0,1.000095,0,215.020531)"/>
<path style=" stroke:none;fill-rule:nonzero;fill:rgb(100%,100%,100%);fill-opacity:0.196078;" d="M 238.148438 215.6875 C 214.453125 183.394531 224.15625 156.65625 246.085938 146.890625 C 255.097656 142.339844 272.546875 138.949219 288.421875 144.242188 C 275.191406 142.917969 261.960938 144.242188 251.378906 149.535156 C 240.792969 154.828125 234.179688 166.734375 238.148438 173.351562 C 242.214844 178.234375 243.441406 146.890625 275.191406 150.859375 C 251.378906 156.148438 256.671875 173.351562 251.378906 186.582031 C 243.441406 207.75 259.316406 242.148438 238.148438 215.6875 Z M 238.148438 215.6875 "/>
<path style=" stroke:none;fill-rule:nonzero;fill:url(#linear9);" d="M 402.203125 247.441406 C 387.109375 259.027344 398.96875 256.070312 383.1875 263.238281 C 379.445312 264.9375 379.429688 257.066406 374.945312 256.253906 C 356.03125 252.808594 372.476562 259.1875 353.519531 255.21875 C 349.023438 254.277344 351.460938 253.402344 348.097656 250.371094 C 333.902344 237.570312 342.519531 256.972656 332.167969 242.773438 C 329.714844 239.410156 334.546875 239.988281 334.230469 235.546875 C 332.894531 216.8125 329.890625 228.210938 330.691406 211.191406 C 330.882812 207.160156 328.410156 217.675781 330.234375 213.660156 C 337.933594 196.722656 336.921875 207.804688 344.75 192.351562 C 346.605469 188.6875 340.402344 193.445312 344.273438 191.675781 C 360.621094 184.214844 345.589844 181.394531 364.511719 179.570312 C 368.996094 179.140625 366.84375 181.777344 370.617188 183.351562 C 386.53125 189.996094 380.351562 186.703125 397.890625 192.046875 C 402.050781 193.3125 397.449219 188.988281 398.980469 192.75 C 405.453125 208.625 403.890625 194.933594 412.445312 210.863281 C 414.472656 214.640625 412.632812 219.15625 411.941406 223.464844 C 409.027344 241.648438 411.773438 225.796875 406.40625 242.359375 C 405.136719 246.28125 405.78125 244.695312 402.203125 247.441406 Z M 402.203125 247.441406 "/>
<path style=" stroke:none;fill-rule:nonzero;fill:rgb(0%,0%,0%);fill-opacity:0.235294;" d="M 149.925781 355.789062 C 149.089844 356.21875 148.105469 357.316406 146.785156 359.578125 C 141.996094 367.808594 149.730469 364.199219 153.125 368.40625 C 154.023438 367.320312 154.65625 365.613281 154.589844 362.664062 C 154.480469 357.984375 152.203125 356.535156 149.925781 355.789062 Z M 231.785156 367.863281 C 230.484375 369.34375 228.003906 369.347656 225.707031 375.789062 C 224.003906 380.570312 225.683594 382.089844 227.25 382.957031 C 230.589844 377.210938 233.683594 381.246094 232.421875 371.160156 C 232.238281 369.703125 232.027344 368.636719 231.785156 367.863281 Z M 157.144531 377.300781 C 154.085938 377.425781 152.980469 382.847656 150.816406 380.644531 C 148.507812 381.734375 146.449219 382.109375 149.011719 388.09375 C 153.644531 398.921875 153.5625 381.371094 161.648438 390.757812 C 161.726562 390.851562 161.800781 390.941406 161.875 391.03125 C 163.722656 388.011719 165.421875 384.554688 161.648438 380.171875 C 159.753906 377.972656 158.308594 377.253906 157.144531 377.300781 Z M 225.085938 388.734375 C 216.496094 395.269531 219.277344 388.386719 207.855469 392.257812 C 196.148438 396.230469 211.574219 400.726562 199.40625 400.3125 C 187.238281 399.898438 195.167969 394.457031 183.15625 391.53125 C 171.144531 388.609375 173.128906 405.96875 162.914062 400.351562 C 162.835938 400.308594 162.761719 400.265625 162.683594 400.21875 C 160.511719 404.3125 156.746094 407.546875 162.914062 410.9375 C 173.128906 416.554688 171.144531 399.191406 183.15625 402.117188 C 195.167969 405.042969 187.238281 410.484375 199.40625 410.898438 C 211.574219 411.308594 196.148438 406.816406 207.855469 402.84375 C 219.566406 398.871094 216.339844 406.214844 225.75 398.808594 C 234.375 392.019531 223.9375 396.257812 225.085938 388.734375 Z M 225.085938 388.734375 "/>
<path style=" stroke:none;fill-rule:nonzero;fill:rgb(0%,0%,0%);fill-opacity:0.235294;" d="M 146.75 228.921875 C 142.359375 232.992188 134.453125 236.316406 137.367188 244.367188 C 137.722656 245.34375 138.105469 246.109375 138.507812 246.703125 C 142.921875 240.878906 153.636719 238.273438 147.710938 230.144531 C 147.378906 229.691406 147.058594 229.285156 146.75 228.921875 Z M 66.417969 238.394531 C 66.113281 239.167969 65.699219 240.351562 65.109375 242.140625 C 61.503906 253.066406 70.296875 245.988281 73.28125 253.15625 C 73.953125 252.078125 74.335938 250.304688 74.203125 247.398438 C 73.976562 242.449219 72.414062 240.460938 70.59375 239.53125 C 69.023438 240.238281 68.296875 239.527344 67.878906 238.707031 C 67.363281 238.605469 66.867188 238.515625 66.417969 238.394531 Z M 149.101562 254.207031 C 148.769531 254.179688 148.265625 254.542969 147.648438 255.070312 C 146.386719 261.078125 146.332031 259.738281 141.316406 269.460938 C 138.566406 274.792969 140.539062 276.3125 142.832031 277.160156 C 147.386719 268.636719 146.296875 272.070312 149.007812 259.066406 C 149.75 255.492188 149.6875 254.253906 149.101562 254.207031 Z M 66.660156 265.367188 C 65.109375 265.648438 64.234375 266.882812 65.3125 271.59375 C 68.242188 284.371094 71.09375 274.382812 80.042969 281.828125 C 83.148438 279.351562 85.539062 276.425781 81.300781 272.367188 C 72.789062 264.21875 69.382812 271.460938 66.660156 265.367188 Z M 130.574219 278.355469 C 129.585938 278.382812 128.414062 278.636719 127.011719 279.191406 C 114.195312 284.285156 120.105469 296.921875 106.714844 297.828125 C 93.324219 298.734375 112.726562 292.75 98.675781 289.464844 C 85.589844 286.40625 90.535156 295.527344 80.503906 292.042969 C 76.285156 295.5625 70.097656 298.144531 78.035156 301.644531 C 91.371094 307.53125 84.625 296.765625 98.675781 300.050781 C 112.726562 303.335938 93.324219 309.320312 106.714844 308.414062 C 120.105469 307.503906 114.195312 294.871094 127.011719 289.777344 C 139.828125 284.683594 133.453125 304.90625 143.617188 294.628906 C 150.933594 287.238281 143.242188 289.304688 140.71875 286.460938 C 135.414062 289.566406 137.59375 278.183594 130.574219 278.355469 Z M 130.574219 278.355469 "/>
<path style=" stroke:none;fill-rule:nonzero;fill:rgb(0%,0%,0%);fill-opacity:0.235294;" d="M 192.835938 111.542969 C 190.449219 112.453125 188.394531 114.070312 190.210938 119.378906 C 190.6875 120.769531 191.164062 121.847656 191.636719 122.683594 C 194.960938 120.761719 200.523438 121.738281 195.460938 114.777344 C 194.394531 113.316406 193.546875 112.28125 192.835938 111.542969 Z M 114.265625 122.839844 C 113.886719 123.636719 113.414062 124.941406 112.742188 127.039062 C 110.359375 134.480469 113.316406 133.007812 115.347656 133.609375 C 115.726562 132.601562 116.105469 131.3125 116.480469 129.621094 C 117.867188 123.324219 116.019531 123.015625 114.265625 122.839844 Z M 195.246094 136.21875 C 193.625 144.277344 196.46875 135.066406 191.449219 146.898438 C 189.335938 151.878906 190.21875 154.847656 191.59375 157.152344 C 196.929688 144.621094 192.90625 157.109375 195.953125 143.488281 C 197.707031 135.640625 196.984375 136.421875 195.246094 136.21875 Z M 113.554688 147.367188 C 112.058594 148.960938 111.332031 147.972656 113.164062 156.203125 C 116.019531 169.03125 113.769531 157.792969 123.601562 167.128906 C 123.628906 167.15625 123.652344 167.179688 123.679688 167.207031 C 125.996094 164.296875 128.222656 160.933594 123.601562 156.546875 C 114.273438 147.6875 115.8125 157.3125 113.554688 147.367188 Z M 172.863281 166.152344 C 171.523438 166.140625 170.015625 166.429688 168.277344 167.15625 C 155.9375 172.324219 166.433594 181.960938 153.617188 182.769531 C 140.800781 183.578125 155.019531 181.800781 142.652344 177.007812 C 130.285156 172.214844 138.183594 181.539062 125.21875 176.078125 C 125.148438 176.046875 125.078125 176.015625 125.007812 175.988281 C 122.339844 180.128906 117.125 183.253906 125.21875 186.664062 C 138.183594 192.121094 130.285156 182.796875 142.652344 187.59375 C 155.019531 192.386719 140.800781 194.160156 153.617188 193.355469 C 166.433594 192.546875 155.9375 182.910156 168.277344 177.738281 C 180.621094 172.570312 181.5 189.527344 191.324219 179.640625 C 197.078125 173.851562 194.222656 171.75 191.988281 168.363281 C 191.777344 168.589844 191.558594 168.820312 191.324219 169.058594 C 182.882812 177.554688 181.042969 166.222656 172.863281 166.152344 Z M 172.863281 166.152344 "/>
<path style=" stroke:none;fill-rule:nonzero;fill:rgb(0%,0%,0%);fill-opacity:0.235294;" d="M 330.589844 220.839844 C 330.160156 220.929688 328.722656 227.570312 330.234375 224.246094 C 330.367188 223.949219 330.496094 223.679688 330.625 223.402344 C 330.640625 222.890625 330.664062 222.351562 330.691406 221.777344 C 330.722656 221.082031 330.679688 220.820312 330.589844 220.839844 Z M 330.625 223.402344 C 330.191406 235.289062 331.984375 230.941406 333.367188 238.550781 C 333.910156 237.863281 334.332031 236.960938 334.230469 235.546875 C 333.457031 224.734375 332.132812 223.957031 331.304688 221.960938 C 331.085938 222.414062 330.859375 222.894531 330.625 223.402344 Z M 412.363281 221.296875 C 412.207031 222.023438 412.058594 222.746094 411.941406 223.464844 C 409.027344 241.648438 411.773438 225.796875 406.40625 242.359375 C 405.136719 246.28125 405.78125 244.695312 402.203125 247.441406 C 387.109375 259.027344 398.96875 256.070312 383.1875 263.238281 C 379.445312 264.9375 379.429688 257.066406 374.949219 256.253906 C 356.03125 252.808594 372.476562 259.1875 353.519531 255.21875 C 349.023438 254.277344 351.460938 253.402344 348.097656 250.371094 C 334.960938 238.527344 341.347656 254.238281 334.171875 245.398438 C 334.191406 245.644531 334.210938 245.875 334.230469 246.132812 C 334.546875 250.570312 329.714844 249.992188 332.167969 253.359375 C 342.519531 267.558594 333.902344 248.15625 348.097656 260.953125 C 351.460938 263.988281 349.023438 264.859375 353.519531 265.800781 C 372.476562 269.769531 356.03125 263.394531 374.949219 266.835938 C 379.429688 267.652344 379.445312 275.523438 383.1875 273.824219 C 398.96875 266.65625 387.109375 269.613281 402.203125 258.023438 C 405.78125 255.277344 405.136719 256.867188 406.40625 252.941406 C 411.773438 236.382812 409.027344 252.234375 411.941406 234.050781 C 412.632812 229.738281 414.472656 225.222656 412.445312 221.449219 C 412.417969 221.394531 412.390625 221.351562 412.363281 221.296875 Z M 412.363281 221.296875 "/>
<path style="fill:none;stroke-width:1.089771;stroke-linecap:round;stroke-linejoin:round;stroke:rgb(0%,0%,0%);stroke-opacity:0.235294;stroke-miterlimit:4;" d="M 271.9295 -23.495083 C 261.469663 -19.828785 275.252077 -15.679414 264.380409 -16.061546 C 253.50874 -16.443677 260.593648 -21.465461 249.861583 -24.165616 C 239.129518 -26.862166 240.90249 -10.841486 231.775873 -16.025495 C 222.649255 -21.2059 237.869591 -25.986147 230.64508 -34.648995 C 223.420568 -43.308237 223.49386 -27.114517 219.354599 -37.104009 C 215.215337 -47.097106 224.575792 -40.135825 224.338465 -50.806665 C 224.097648 -61.477505 212.028874 -53.950237 217.36524 -63.420607 C 222.705097 -72.894582 221.961705 -60.284245 230.219287 -68.038629 C 238.473379 -75.796618 231.646739 -79.257431 241.129347 -84.39818 C 250.611955 -89.538929 236.766719 -82.783134 248.116532 -82.527178 C 259.466344 -82.267617 258.248299 -87.062285 268.53712 -83.388776 C 278.822452 -79.718873 268.987344 -81.254608 278.162823 -75.847088 C 287.341792 -70.439568 279.998616 -77.454924 285.882929 -68.936277 C 291.767241 -60.417631 284.55669 -71.301166 287.048623 -61.239574 C 289.537066 -51.174376 292.576945 -63.467472 293.878753 -52.731742 C 295.180561 -41.996012 291.299568 -48.611212 287.879267 -38.69382 C 284.458967 -28.772823 296.325315 -34.054168 287.917659 -27.219062 C 279.510002 -20.383957 282.389336 -27.157777 271.9295 -23.495083 Z M 271.9295 -23.495083 " transform="matrix(1.119237,0,0,1.08356,-96.497961,417.716156)"/>
<path style="fill:none;stroke-width:1.2;stroke-linecap:round;stroke-linejoin:round;stroke:rgb(0%,0%,0%);stroke-opacity:0.235294;stroke-miterlimit:4;" d="M 338.104342 -34.005831 C 325.28916 -28.912567 331.198752 -16.277055 317.809406 -15.370891 C 304.420059 -14.464728 323.82055 -20.448532 309.771111 -23.733374 C 295.721671 -27.018217 302.467121 -16.25362 289.132457 -22.13587 C 275.797792 -28.022027 302.346038 -31.302964 292.39777 -40.829398 C 282.449501 -50.355832 279.477129 -38.829589 276.411015 -52.187688 C 273.348808 -65.545787 285.980414 -50.984678 285.300791 -65.795764 C 284.621169 -80.602943 272.009092 -68.916559 276.20791 -81.634095 C 280.402821 -94.355536 275.829039 -77.368877 285.371097 -87.160911 C 294.91706 -96.952945 287.413871 -93.14862 300.002512 -100.530728 C 312.591154 -107.912835 303.361567 -96.343628 316.840748 -96.206922 C 330.316024 -96.070216 315.208091 -109.568927 328.425579 -107.182436 C 341.643067 -104.799851 324.304879 -99.319906 336.709944 -93.386879 C 349.11501 -87.457758 350.685172 -104.768604 358.801585 -93.632949 C 366.917997 -82.493388 343.787394 -81.727836 348.458822 -68.826724 C 353.134157 -55.921707 363.074614 -79.009346 360.098336 -64.713836 C 357.118152 -50.418326 358.754714 -56.038883 352.407664 -43.73537 C 346.060614 -31.427952 364.875223 -39.427188 354.708226 -29.150826 C 344.545134 -18.878369 350.919525 -39.095188 338.104342 -34.005831 Z M 338.104342 -34.005831 " transform="matrix(1.000095,0,0,1.000095,-211.124911,313.200484)"/>
<path style="fill:none;stroke-width:1.2;stroke-linecap:round;stroke-linejoin:round;stroke:rgb(0%,0%,0%);stroke-opacity:0.235294;stroke-miterlimit:4;" d="M 331.953521 -30.93812 C 319.614856 -25.770645 330.109947 -16.134846 317.294765 -15.32633 C 304.479582 -14.517813 318.696975 -16.294987 306.330968 -21.087498 C 293.964961 -25.88001 301.862645 -16.556681 288.899039 -22.017097 C 275.939339 -27.473607 297.117004 -32.211436 287.282006 -41.546482 C 277.450913 -50.881528 279.700698 -39.648226 276.845502 -52.475126 C 273.990306 -65.302026 277.349361 -55.717004 280.161592 -68.469692 C 282.973823 -81.218475 272.517791 -69.426632 276.423668 -81.632498 C 280.325639 -93.838364 277.669642 -79.609254 287.000783 -89.776252 C 296.335829 -99.947155 288.274099 -92.854083 300.374505 -100.064332 C 312.471007 -107.270675 298.917613 -98.20904 312.736606 -101.919623 C 326.559505 -105.630206 315.759755 -109.223613 328.418702 -107.012887 C 341.07765 -104.80216 332.543309 -107.637827 343.655529 -100.384613 C 354.763843 -93.135306 351.354012 -104.587337 359.134519 -93.893046 C 366.915026 -83.198755 349.596368 -91.252673 353.88502 -78.710902 C 358.173673 -66.173037 362.704491 -78.941349 359.62666 -65.188756 C 356.552734 -51.436163 360.69687 -64.337275 355.123183 -51.193998 C 349.549497 -38.050722 364.81757 -38.921733 354.998195 -29.035958 C 345.174915 -19.154089 344.296092 -36.109501 331.953521 -30.93812 Z M 331.953521 -30.93812 " transform="matrix(1.000095,0,0,1.000095,-163.707877,198.097325)"/>
<path style="fill:none;stroke-width:1.446226;stroke-linecap:round;stroke-linejoin:round;stroke:rgb(0%,0%,0%);stroke-opacity:0.235294;stroke-miterlimit:4;" d="M 357.238269 -30.768274 C 339.313712 -16.600342 353.397293 -20.216365 334.656296 -11.450972 C 330.212267 -9.373073 330.193712 -18.998286 324.8683 -19.991857 C 302.406937 -24.204977 321.93654 -16.404494 299.424149 -21.257703 C 294.084821 -22.408908 296.97947 -23.478907 292.985411 -27.185688 C 276.127791 -42.839199 286.361118 -19.112929 274.068137 -36.476527 C 271.154933 -40.589335 276.893203 -39.882372 276.517455 -45.313572 C 274.930965 -68.223012 271.363681 -54.284366 272.314648 -75.0968 C 272.541952 -80.026438 269.605553 -67.167344 271.771901 -72.077875 C 280.915095 -92.789996 279.71363 -79.238269 289.009907 -98.135214 C 291.213366 -102.615834 283.846855 -96.797715 288.443966 -98.961597 C 307.857598 -108.085248 290.007262 -111.534084 312.477903 -113.764841 C 317.803315 -114.290287 315.247303 -111.06596 319.728442 -109.140917 C 338.627161 -101.015613 331.288483 -105.042439 352.116967 -98.507803 C 357.057354 -96.960126 351.592776 -102.248022 353.411209 -97.647982 C 361.097802 -78.235145 359.242257 -94.977762 369.401362 -75.49805 C 371.808931 -70.878903 369.624027 -65.356944 368.802949 -60.088155 C 365.342359 -37.85224 368.603478 -57.236417 362.229684 -36.982866 C 360.722054 -32.186978 361.487466 -34.126351 357.238269 -30.768274 Z M 357.238269 -30.768274 " transform="matrix(0.842071,0,0,0.817758,101.38314,272.602404)"/>
<path style=" stroke:none;fill-rule:nonzero;fill:rgb(100%,100%,100%);fill-opacity:0.392157;" d="M 177.351562 324.179688 C 177.285156 324.152344 176.367188 324.699219 173.382812 326.265625 C 162.769531 331.835938 170.410156 335.585938 161.171875 343.992188 C 151.929688 352.394531 152.761719 338.730469 146.785156 348.996094 C 144.007812 353.773438 145.457031 354.558594 147.816406 355.199219 C 152.695312 348.171875 152.5 359.714844 161.171875 351.828125 C 170.410156 343.425781 162.769531 339.675781 173.382812 334.105469 C 183.996094 328.535156 168.5 335.851562 181.203125 336.132812 C 193.90625 336.410156 192.542969 331.21875 204.058594 335.195312 C 215.570312 339.171875 204.5625 337.507812 214.832031 343.367188 C 225.105469 349.226562 216.886719 341.628906 223.472656 350.859375 C 224.5 352.296875 225.136719 353.183594 225.550781 353.765625 C 225.289062 353.136719 225.03125 352.351562 224.777344 351.359375 C 221.988281 340.457031 230.058594 352.25 223.472656 343.019531 C 216.886719 333.789062 225.105469 341.390625 214.832031 335.53125 C 204.5625 329.671875 215.570312 331.335938 204.058594 327.359375 C 192.542969 323.378906 193.90625 328.574219 181.203125 328.292969 C 172.074219 328.09375 177.511719 324.253906 177.351562 324.179688 Z M 224.875 354.203125 C 224.210938 354.214844 223.730469 355.109375 224.777344 359.199219 C 227.457031 369.675781 230.699219 357.800781 232.242188 367.175781 C 232.757812 366.101562 232.890625 364.304688 232.421875 360.578125 C 231.167969 350.574219 228.480469 359.007812 225.976562 354.640625 C 225.746094 354.511719 225.28125 354.195312 224.875 354.203125 Z M 153.941406 367.039062 C 151.769531 372.214844 145.152344 368.496094 149.011719 377.511719 C 149.171875 377.886719 149.328125 378.222656 149.476562 378.53125 C 151.527344 377.460938 154.738281 376.96875 154.589844 370.503906 C 154.554688 369.070312 154.316406 367.9375 153.941406 367.039062 Z M 226.242188 382.265625 C 226.0625 382.6875 225.882812 383.132812 225.707031 383.628906 C 224.871094 385.976562 224.851562 387.539062 225.234375 388.621094 C 225.402344 388.492188 225.570312 388.363281 225.75 388.222656 C 231.894531 383.386719 228.363281 384.144531 226.242188 382.265625 Z M 162.75 389.507812 C 160.777344 393.300781 157.351562 396.351562 161.515625 399.460938 C 163.261719 396.652344 165.1875 393.464844 162.75 389.507812 Z M 162.75 389.507812 "/>
<path style="fill:none;stroke-width:2.724427;stroke-linecap:round;stroke-linejoin:round;stroke:rgb(12.941177%,12.941177%,12.941177%);stroke-opacity:0.96129;stroke-miterlimit:4;" d="M 271.9295 -23.495083 C 261.469663 -19.828785 275.252077 -15.679414 264.380409 -16.061546 C 253.50874 -16.443677 260.593648 -21.465461 249.861583 -24.165616 C 239.129518 -26.862166 240.90249 -10.841486 231.775873 -16.025495 C 222.649255 -21.2059 237.869591 -25.986147 230.64508 -34.648995 C 223.420568 -43.308237 223.49386 -27.114517 219.354599 -37.104009 C 215.215337 -47.097106 224.575792 -40.135825 224.338465 -50.806665 C 224.097648 -61.477505 212.028874 -53.950237 217.36524 -63.420607 C 222.705097 -72.894582 221.961705 -60.284245 230.219287 -68.038629 C 238.473379 -75.796618 231.646739 -79.257431 241.129347 -84.39818 C 250.611955 -89.538929 236.766719 -82.783134 248.116532 -82.527178 C 259.466344 -82.267617 258.248299 -87.062285 268.53712 -83.388776 C 278.822452 -79.718873 268.987344 -81.254608 278.162823 -75.847088 C 287.341792 -70.439568 279.998616 -77.454924 285.882929 -68.936277 C 291.767241 -60.417631 284.55669 -71.301166 287.048623 -61.239574 C 289.537066 -51.174376 292.576945 -63.467472 293.878753 -52.731742 C 295.180561 -41.996012 291.299568 -48.611212 287.879267 -38.69382 C 284.458967 -28.772823 296.325315 -34.054168 287.917659 -27.219062 C 279.510002 -20.383957 282.389336 -27.157777 271.9295 -23.495083 Z M 271.9295 -23.495083 " transform="matrix(1.119237,0,0,1.08356,-96.497961,417.716156)"/>
<path style=" stroke:none;fill-rule:nonzero;fill:rgb(100%,100%,100%);fill-opacity:0.392157;" d="M 114.726562 205.726562 C 106.300781 205.648438 118.171875 217.109375 105.746094 216.984375 C 92.265625 216.847656 101.496094 205.277344 88.90625 212.660156 C 76.316406 220.042969 83.816406 216.238281 74.273438 226.03125 C 64.730469 235.824219 69.308594 218.835938 65.109375 231.558594 C 63.671875 235.910156 64.203125 237.402344 65.550781 238.078125 C 68.941406 228.070312 65.113281 243.273438 74.273438 233.871094 C 83.816406 224.078125 76.316406 227.882812 88.90625 220.5 C 101.496094 213.113281 92.265625 224.6875 105.746094 224.824219 C 119.222656 224.960938 104.113281 211.460938 117.332031 213.84375 C 118.910156 214.128906 120.050781 214.460938 120.859375 214.828125 C 120.691406 210.957031 126.722656 207.699219 117.332031 206.007812 C 116.300781 205.820312 115.441406 205.730469 114.726562 205.726562 Z M 142.578125 215.734375 C 138.128906 215.625 134.921875 224.253906 125.617188 219.804688 C 124.207031 219.128906 123.1875 218.460938 122.457031 217.804688 C 121.625 220.496094 117.964844 223.984375 125.617188 227.640625 C 138.023438 233.574219 139.59375 216.257812 147.710938 227.398438 C 147.785156 227.5 147.851562 227.601562 147.921875 227.703125 C 149.722656 225.550781 150.269531 223.070312 147.710938 219.558594 C 145.679688 216.777344 144.0625 215.769531 142.578125 215.734375 Z M 149.101562 243.621094 C 147.398438 243.484375 141.269531 253.398438 137.699219 245.199219 C 136.660156 247.105469 136.335938 249.359375 137.367188 252.207031 C 140.476562 260.785156 145.90625 253.464844 148.328125 251.789062 C 148.53125 250.78125 148.734375 249.792969 149.007812 248.480469 C 149.75 244.90625 149.6875 243.667969 149.101562 243.621094 Z M 73.789062 252.027344 C 71.671875 258.695312 62.675781 249.507812 65.3125 261.007812 C 65.476562 261.722656 65.640625 262.351562 65.804688 262.929688 C 68.296875 261.351562 74.691406 265.886719 74.203125 255.238281 C 74.144531 253.988281 74 252.929688 73.789062 252.027344 Z M 141.667969 276.625 C 141.546875 276.855469 141.445312 277.054688 141.316406 277.300781 C 138.625 282.519531 140.460938 284.085938 142.691406 284.941406 C 142.984375 284.671875 143.292969 284.375 143.617188 284.046875 C 150.164062 277.429688 144.699219 278.382812 141.667969 276.625 Z M 81.574219 280.480469 C 77.507812 284.519531 69.386719 287.246094 78.035156 291.0625 C 78.070312 291.078125 78.105469 291.089844 78.144531 291.105469 C 81.859375 288.371094 86.214844 285.203125 81.574219 280.480469 Z M 81.574219 280.480469 "/>
<path style="fill:none;stroke-width:3;stroke-linecap:round;stroke-linejoin:round;stroke:rgb(12.941177%,12.941177%,12.941177%);stroke-opacity:0.96129;stroke-miterlimit:4;" d="M 338.104342 -34.005831 C 325.28916 -28.912567 331.198752 -16.277055 317.809406 -15.370891 C 304.420059 -14.464728 323.82055 -20.448532 309.771111 -23.733374 C 295.721671 -27.018217 302.467121 -16.25362 289.132457 -22.13587 C 275.797792 -28.022027 302.346038 -31.302964 292.39777 -40.829398 C 282.449501 -50.355832 279.477129 -38.829589 276.411015 -52.187688 C 273.348808 -65.545787 285.980414 -50.984678 285.300791 -65.795764 C 284.621169 -80.602943 272.009092 -68.916559 276.20791 -81.634095 C 280.402821 -94.355536 275.829039 -77.368877 285.371097 -87.160911 C 294.91706 -96.952945 287.413871 -93.14862 300.002512 -100.530728 C 312.591154 -107.912835 303.361567 -96.343628 316.840748 -96.206922 C 330.316024 -96.070216 315.208091 -109.568927 328.425579 -107.182436 C 341.643067 -104.799851 324.304879 -99.319906 336.709944 -93.386879 C 349.11501 -87.457758 350.685172 -104.768604 358.801585 -93.632949 C 366.917997 -82.493388 343.787394 -81.727836 348.458822 -68.826724 C 353.134157 -55.921707 363.074614 -79.009346 360.098336 -64.713836 C 357.118152 -50.418326 358.754714 -56.038883 352.407664 -43.73537 C 346.060614 -31.427952 364.875223 -39.427188 354.708226 -29.150826 C 344.545134 -18.878369 350.919525 -39.095188 338.104342 -34.005831 Z M 338.104342 -34.005831 " transform="matrix(1.000095,0,0,1.000095,-211.124911,313.200484)"/>
<path style=" stroke:none;fill-rule:nonzero;fill:rgb(100%,100%,100%);fill-opacity:0.313726;" d="M 159.296875 90.398438 C 155.628906 90.441406 159.859375 93.269531 149.058594 96.167969 C 135.238281 99.878906 148.792969 90.816406 136.695312 98.023438 C 124.59375 105.234375 132.65625 98.140625 123.320312 108.3125 C 113.988281 118.480469 116.644531 104.25 112.742188 116.457031 C 111.144531 121.449219 111.949219 122.425781 113.265625 122.710938 C 116.398438 113.488281 114.453125 125.8125 123.320312 116.148438 C 132.65625 105.980469 124.59375 113.070312 136.695312 105.863281 C 148.792969 98.65625 135.238281 107.71875 149.058594 104.007812 C 162.882812 100.296875 152.082031 96.703125 164.742188 98.910156 C 177.402344 101.121094 168.867188 98.285156 179.980469 105.539062 C 190.675781 112.523438 187.917969 102.175781 194.636719 110.933594 C 197.21875 110.105469 199.117188 109.222656 195.460938 104.195312 C 187.679688 93.5 191.089844 104.953125 179.980469 97.699219 C 168.867188 90.449219 177.402344 93.28125 164.742188 91.074219 C 161.972656 90.589844 160.324219 90.386719 159.296875 90.398438 Z M 190.679688 120.644531 C 189.507812 121.789062 189.003906 123.6875 190.210938 127.214844 C 192.34375 133.449219 194.53125 133.429688 195.820312 133.519531 C 195.867188 133.304688 195.902344 133.136719 195.953125 132.902344 C 198.917969 119.652344 194.820312 131.007812 190.679688 120.644531 Z M 116.089844 131.230469 C 113.414062 141.367188 110.542969 133.671875 113.050781 145.105469 C 113.925781 144.328125 115.253906 143.015625 116.480469 137.460938 C 117.351562 133.5 116.945312 131.910156 116.089844 131.230469 Z M 190.972656 155.96875 C 188.949219 161.769531 191.257812 164.613281 193.039062 167.121094 C 197.027344 161.921875 192.828125 160.097656 190.972656 155.96875 Z M 124.808594 165.695312 C 122.320312 169.359375 118.101562 172.238281 123.511719 175.257812 C 125.648438 172.59375 127.847656 169.554688 124.808594 165.695312 Z M 124.808594 165.695312 "/>
<path style="fill:none;stroke-width:3;stroke-linecap:round;stroke-linejoin:round;stroke:rgb(12.941177%,12.941177%,12.941177%);stroke-opacity:0.96129;stroke-miterlimit:4;" d="M 331.953521 -30.93812 C 319.614856 -25.770645 330.109947 -16.134846 317.294765 -15.32633 C 304.479582 -14.517813 318.696975 -16.294987 306.330968 -21.087498 C 293.964961 -25.88001 301.862645 -16.556681 288.899039 -22.017097 C 275.939339 -27.473607 297.117004 -32.211436 287.282006 -41.546482 C 277.450913 -50.881528 279.700698 -39.648226 276.845502 -52.475126 C 273.990306 -65.302026 277.349361 -55.717004 280.161592 -68.469692 C 282.973823 -81.218475 272.517791 -69.426632 276.423668 -81.632498 C 280.325639 -93.838364 277.669642 -79.609254 287.000783 -89.776252 C 296.335829 -99.947155 288.274099 -92.854083 300.374505 -100.064332 C 312.471007 -107.270675 298.917613 -98.20904 312.736606 -101.919623 C 326.559505 -105.630206 315.759755 -109.223613 328.418702 -107.012887 C 341.07765 -104.80216 332.543309 -107.637827 343.655529 -100.384613 C 354.763843 -93.135306 351.354012 -104.587337 359.134519 -93.893046 C 366.915026 -83.198755 349.596368 -91.252673 353.88502 -78.710902 C 358.173673 -66.173037 362.704491 -78.941349 359.62666 -65.188756 C 356.552734 -51.436163 360.69687 -64.337275 355.123183 -51.193998 C 349.549497 -38.050722 364.81757 -38.921733 354.998195 -29.035958 C 345.174915 -19.154089 344.296092 -36.109501 331.953521 -30.93812 Z M 331.953521 -30.93812 " transform="matrix(1.000095,0,0,1.000095,-163.707877,198.097325)"/>
<path style=" stroke:none;fill-rule:nonzero;fill:rgb(100%,100%,100%);fill-opacity:0.392157;" d="M 365.277344 179.523438 C 365.046875 179.527344 364.789062 179.542969 364.511719 179.570312 C 345.925781 181.359375 360.070312 184.117188 345.101562 191.28125 C 345.101562 191.507812 345.003906 191.847656 344.75 192.351562 C 337.058594 207.535156 337.894531 197.121094 330.625 212.816406 C 330.539062 215.113281 330.539062 216.804688 330.605469 218.09375 C 330.683594 218.109375 330.722656 218.378906 330.691406 219.027344 C 330.6875 219.085938 330.6875 219.136719 330.683594 219.195312 C 330.722656 219.582031 330.765625 219.929688 330.820312 220.234375 C 337.882812 205.132812 337.125 215.238281 344.75 200.1875 C 345.003906 199.683594 345.101562 199.34375 345.101562 199.121094 C 344.828125 199.25 344.566406 199.378906 344.273438 199.515625 C 340.933594 201.039062 345.085938 197.710938 345.101562 199.121094 C 360.070312 191.953125 345.925781 189.199219 364.511719 187.410156 C 368.996094 186.976562 366.84375 189.617188 370.617188 191.191406 C 386.53125 197.832031 380.351562 194.542969 397.890625 199.882812 C 398.261719 199.996094 398.558594 200.0625 398.800781 200.097656 C 397.96875 197.511719 401.144531 200.425781 398.800781 200.097656 C 398.847656 200.246094 398.90625 200.40625 398.980469 200.589844 C 405.453125 216.460938 403.890625 202.769531 412.445312 218.703125 C 412.566406 218.929688 412.675781 219.15625 412.769531 219.390625 C 413.402344 216.402344 413.839844 213.457031 412.445312 210.863281 C 403.890625 194.933594 405.453125 208.625 398.980469 192.75 C 398.90625 192.566406 398.847656 192.40625 398.800781 192.257812 C 398.558594 192.226562 398.261719 192.160156 397.890625 192.046875 C 380.351562 186.703125 386.53125 189.996094 370.617188 183.351562 C 367.078125 181.875 368.75 179.464844 365.277344 179.523438 Z M 398.800781 192.257812 C 401.144531 192.585938 397.96875 189.671875 398.800781 192.257812 Z M 330.625 212.816406 C 330.640625 212.304688 330.664062 211.765625 330.691406 211.191406 C 330.882812 207.15625 328.410156 217.675781 330.234375 213.660156 C 330.367188 213.367188 330.496094 213.097656 330.625 212.816406 Z M 345.101562 191.28125 C 345.085938 189.875 340.933594 193.203125 344.273438 191.675781 C 344.566406 191.542969 344.828125 191.414062 345.101562 191.28125 Z M 333.710938 238.050781 C 332.605469 239.941406 330.320312 240.238281 332.167969 242.773438 C 332.871094 243.738281 333.480469 244.535156 334.019531 245.210938 C 334.191406 244.710938 334.28125 244.117188 334.230469 243.386719 C 334.078125 241.234375 333.902344 239.496094 333.710938 238.050781 Z M 333.710938 238.050781 "/>
<path style="fill:none;stroke-width:3.615564;stroke-linecap:round;stroke-linejoin:round;stroke:rgb(12.941177%,12.941177%,12.941177%);stroke-opacity:0.96129;stroke-miterlimit:4;" d="M 357.238269 -30.768274 C 339.313712 -16.600342 353.397293 -20.216365 334.656296 -11.450972 C 330.212267 -9.373073 330.193712 -18.998286 324.8683 -19.991857 C 302.406937 -24.204977 321.93654 -16.404494 299.424149 -21.257703 C 294.084821 -22.408908 296.97947 -23.478907 292.985411 -27.185688 C 276.127791 -42.839199 286.361118 -19.112929 274.068137 -36.476527 C 271.154933 -40.589335 276.893203 -39.882372 276.517455 -45.313572 C 274.930965 -68.223012 271.363681 -54.284366 272.314648 -75.0968 C 272.541952 -80.026438 269.605553 -67.167344 271.771901 -72.077875 C 280.915095 -92.789996 279.71363 -79.238269 289.009907 -98.135214 C 291.213366 -102.615834 283.846855 -96.797715 288.443966 -98.961597 C 307.857598 -108.085248 290.007262 -111.534084 312.477903 -113.764841 C 317.803315 -114.290287 315.247303 -111.06596 319.728442 -109.140917 C 338.627161 -101.015613 331.288483 -105.042439 352.116967 -98.507803 C 357.057354 -96.960126 351.592776 -102.248022 353.411209 -97.647982 C 361.097802 -78.235145 359.242257 -94.977762 369.401362 -75.49805 C 371.808931 -70.878903 369.624027 -65.356944 368.802949 -60.088155 C 365.342359 -37.85224 368.603478 -57.236417 362.229684 -36.982866 C 360.722054 -32.186978 361.487466 -34.126351 357.238269 -30.768274 Z M 357.238269 -30.768274 " transform="matrix(0.842071,0,0,0.817758,101.38314,272.602404)"/>
<path style=" stroke:none;fill-rule:nonzero;fill:rgb(0%,0%,0%);fill-opacity:0.235294;" d="M 280.414062 156.347656 C 274.820312 161.863281 275.914062 169.003906 277.414062 177.363281 C 280.035156 171.253906 287.515625 166.582031 305.625 163.699219 C 294.007812 161.589844 291.652344 157.792969 280.414062 156.347656 Z M 216.082031 189.316406 C 213.664062 199.671875 215.933594 211.875 224.003906 225.132812 C 231.832031 238.667969 241.578125 247.921875 251.117188 258.023438 C 251.125 258.179688 251.128906 258.335938 251.136719 258.496094 C 251.144531 258.628906 251.152344 258.769531 251.160156 258.90625 C 251.171875 259.097656 251.183594 259.285156 251.199219 259.480469 C 251.210938 259.640625 251.226562 259.800781 251.242188 259.960938 C 251.257812 260.144531 251.273438 260.332031 251.292969 260.519531 C 251.308594 260.679688 251.328125 260.84375 251.34375 261.007812 C 251.367188 261.203125 251.390625 261.402344 251.414062 261.605469 C 251.4375 261.769531 251.457031 261.933594 251.476562 262.101562 C 251.503906 262.3125 251.535156 262.527344 251.566406 262.742188 C 251.609375 263.027344 251.652344 263.316406 251.699219 263.609375 C 251.734375 263.835938 251.769531 264.0625 251.808594 264.292969 C 251.84375 264.492188 251.882812 264.695312 251.917969 264.898438 C 251.953125 265.09375 251.988281 265.289062 252.023438 265.488281 C 252.0625 265.703125 252.105469 265.921875 252.148438 266.144531 C 252.183594 266.316406 252.21875 266.492188 252.253906 266.671875 C 252.304688 266.910156 252.351562 267.148438 252.40625 267.390625 C 252.441406 267.558594 252.476562 267.726562 252.511719 267.894531 C 252.570312 268.152344 252.625 268.40625 252.683594 268.667969 C 252.710938 268.78125 252.738281 268.898438 252.765625 269.015625 C 252.917969 269.6875 253.082031 270.371094 253.257812 271.070312 C 253.261719 271.082031 253.265625 271.09375 253.269531 271.105469 C 253.347656 271.414062 253.425781 271.726562 253.507812 272.039062 C 253.546875 272.179688 253.582031 272.320312 253.621094 272.460938 C 253.703125 272.785156 253.792969 273.109375 253.882812 273.4375 C 253.902344 273.519531 253.925781 273.601562 253.949219 273.679688 C 254.644531 276.199219 255.457031 278.867188 256.390625 281.667969 C 256.394531 281.683594 256.398438 281.699219 256.402344 281.710938 C 259.785156 291.871094 264.695312 303.785156 270.882812 316.707031 C 272.117188 314.382812 273.773438 312.210938 275.921875 310.222656 C 267.328125 293.367188 260.65625 277.8125 256.402344 265.035156 C 256.398438 265.019531 256.394531 265.007812 256.390625 264.992188 C 255.457031 262.191406 254.644531 259.523438 253.949219 257.003906 C 253.925781 256.921875 253.902344 256.839844 253.882812 256.761719 C 253.792969 256.433594 253.703125 256.105469 253.621094 255.785156 C 253.582031 255.644531 253.546875 255.503906 253.507812 255.363281 C 253.425781 255.046875 253.347656 254.734375 253.269531 254.425781 C 253.265625 254.414062 253.261719 254.402344 253.257812 254.390625 C 253.082031 253.691406 252.917969 253.007812 252.765625 252.335938 C 252.738281 252.222656 252.710938 252.105469 252.683594 251.988281 C 252.625 251.730469 252.570312 251.472656 252.511719 251.21875 C 252.476562 251.050781 252.441406 250.878906 252.40625 250.714844 C 252.351562 250.472656 252.304688 250.230469 252.253906 249.992188 C 252.21875 249.816406 252.183594 249.640625 252.148438 249.464844 C 252.105469 249.246094 252.0625 249.027344 252.023438 248.808594 C 251.988281 248.613281 251.953125 248.417969 251.917969 248.222656 C 251.882812 248.019531 251.84375 247.816406 251.808594 247.617188 C 251.769531 247.386719 251.734375 247.160156 251.699219 246.933594 C 251.652344 246.640625 251.609375 246.351562 251.566406 246.066406 C 251.535156 245.851562 251.503906 245.636719 251.476562 245.425781 C 251.457031 245.257812 251.4375 245.09375 251.414062 244.925781 C 251.390625 244.726562 251.367188 244.527344 251.34375 244.328125 C 251.328125 244.164062 251.308594 244.003906 251.292969 243.839844 C 251.273438 243.652344 251.257812 243.46875 251.242188 243.285156 C 251.226562 243.125 251.210938 242.960938 251.199219 242.804688 C 251.183594 242.609375 251.171875 242.417969 251.160156 242.226562 C 251.152344 242.089844 251.144531 241.953125 251.136719 241.816406 C 251.128906 241.65625 251.125 241.503906 251.117188 241.347656 C 241.578125 231.242188 231.832031 221.988281 224.003906 208.453125 C 219.9375 201.773438 217.34375 195.359375 216.082031 189.316406 Z M 278.464844 200.199219 C 277.28125 206.035156 274.523438 212.171875 268.976562 218.539062 C 263.789062 224.355469 263.328125 229.269531 264.757812 234.210938 C 264.769531 234.21875 264.78125 234.222656 264.789062 234.230469 C 264.996094 234.367188 265.203125 234.503906 265.410156 234.648438 C 265.503906 234.710938 265.601562 234.78125 265.695312 234.847656 C 265.882812 234.976562 266.074219 235.113281 266.265625 235.25 C 266.375 235.332031 266.488281 235.410156 266.597656 235.492188 C 266.78125 235.628906 266.96875 235.765625 267.152344 235.90625 C 267.257812 235.988281 267.367188 236.066406 267.472656 236.148438 C 267.617188 236.257812 267.761719 236.375 267.90625 236.488281 C 268.238281 236.070312 268.59375 235.644531 268.976562 235.214844 C 280.125 222.417969 280.023438 210.546875 278.464844 200.199219 Z M 278.464844 200.199219 "/>
</g>
</svg>
