<?xml version="1.0" encoding="UTF-8" standalone="no"?>
<!-- Generator: Adobe Illustrator 16.0.0, SVG Export Plug-In . SVG Version: 6.00 Build 0)  -->

<svg
   xmlns:dc="http://purl.org/dc/elements/1.1/"
   xmlns:cc="http://creativecommons.org/ns#"
   xmlns:rdf="http://www.w3.org/1999/02/22-rdf-syntax-ns#"
   xmlns:svg="http://www.w3.org/2000/svg"
   xmlns="http://www.w3.org/2000/svg"
   xmlns:sodipodi="http://sodipodi.sourceforge.net/DTD/sodipodi-0.dtd"
   xmlns:inkscape="http://www.inkscape.org/namespaces/inkscape"
   version="1.1"
   id="Layer_1"
   x="0px"
   y="0px"
   width="100px"
   height="95.912px"
   viewBox="0 2.044 100 95.912"
   enable-background="new 0 2.044 100 95.912"
   xml:space="preserve"
   inkscape:version="0.92.3 (2405546, 2018-03-11)"
   sodipodi:docname="org.gnome.Draw-symbolic.svg"><metadata
     id="metadata9"><rdf:RDF><cc:Work
         rdf:about=""><dc:format>image/svg+xml</dc:format><dc:type
           rdf:resource="http://purl.org/dc/dcmitype/StillImage" /><dc:title /></cc:Work></rdf:RDF></metadata><defs
     id="defs7" /><sodipodi:namedview
     pagecolor="#ffffff"
     bordercolor="#666666"
     borderopacity="1"
     objecttolerance="10"
     gridtolerance="10"
     guidetolerance="10"
     inkscape:pageopacity="0"
     inkscape:pageshadow="2"
     inkscape:window-width="1366"
     inkscape:window-height="715"
     id="namedview5"
     showgrid="false"
     inkscape:zoom="11.25"
     inkscape:cx="69.855856"
     inkscape:cy="28.051822"
     inkscape:window-x="0"
     inkscape:window-y="27"
     inkscape:window-maximized="1"
     inkscape:current-layer="Layer_1" /><path
     d="M 100.03678,97.834987 78.143734,47.862052 64.797968,47.954477 94.044461,9.6175788 C 94.393762,2.857855 91.420007,1.0278476 85.416978,3.3048161 L 48.379542,47.757183 c 0,0 -25.551539,0.07326 -25.552539,0.07426 L 0.13044149,97.850595 Z M 91.605613,8.7518451 50.843019,60.566993 c -4.125338,0.142812 -4.680803,-0.540277 -5.466042,-4.12176 L 86.946147,5.6894526 c 2.106062,-1.3645233 5.006106,0.5691835 4.659466,3.0623925 z M 22.585837,78.138144 C 29.144074,82.40254 57.497521,75.91391 53.446005,62.374033 L 62.819191,50.375541 76.276244,50.489398 91.344536,91.41513 10.825108,91.001024 25.142096,50.498673 46.356753,50.464034 40.343821,56.49654 C 27.365118,58.015758 32.177494,76.22421 22.585837,78.138144 Z"
     id="path3"
     style="fill:#bebebe;fill-opacity:1"
     inkscape:connector-curvature="0"
     sodipodi:nodetypes="cccccccccccccccccccccccc" /></svg>