<?xml version="1.0" encoding="UTF-8"?>
<svg xmlns="http://www.w3.org/2000/svg" xmlns:xlink="http://www.w3.org/1999/xlink" width="256px" height="256px" viewBox="0 0 256 256" version="1.1">
<defs>
<radialGradient id="radial0" gradientUnits="userSpaceOnUse" cx="450.908936" cy="189.579361" fx="450.908936" fy="189.579361" r="21.166656" gradientTransform="matrix(0.00000139336,-0.62506,-1.125108,-0.000000812309,350.893043,508.762635)">
<stop offset="0" style="stop-color:rgb(0%,0%,0%);stop-opacity:0.313726;"/>
<stop offset="0.222222" style="stop-color:rgb(0%,0%,0%);stop-opacity:0.27451;"/>
<stop offset="1" style="stop-color:rgb(0%,0%,0%);stop-opacity:0;"/>
</radialGradient>
<radialGradient id="radial1" gradientUnits="userSpaceOnUse" cx="450.908936" cy="189.579361" fx="450.908936" fy="189.579361" r="21.166656" gradientTransform="matrix(-0.00000139336,0.62506,1.125108,0.000000812309,-107.453121,-60.219856)">
<stop offset="0" style="stop-color:rgb(0%,0%,0%);stop-opacity:0.313726;"/>
<stop offset="0.222222" style="stop-color:rgb(0%,0%,0%);stop-opacity:0.27451;"/>
<stop offset="1" style="stop-color:rgb(0%,0%,0%);stop-opacity:0;"/>
</radialGradient>
<radialGradient id="radial2" gradientUnits="userSpaceOnUse" cx="450.908936" cy="189.579361" fx="450.908936" fy="189.579361" r="21.166656" gradientTransform="matrix(-0.00000139336,-0.62506,1.125108,-0.000000812309,-107.453121,508.762635)">
<stop offset="0" style="stop-color:rgb(0%,0%,0%);stop-opacity:0.313726;"/>
<stop offset="0.222222" style="stop-color:rgb(0%,0%,0%);stop-opacity:0.27451;"/>
<stop offset="1" style="stop-color:rgb(0%,0%,0%);stop-opacity:0;"/>
</radialGradient>
<radialGradient id="radial3" gradientUnits="userSpaceOnUse" cx="450.908936" cy="189.579361" fx="450.908936" fy="189.579361" r="21.166656" gradientTransform="matrix(0.00000139336,0.62506,-1.125108,0.000000812309,350.893028,-60.21986)">
<stop offset="0" style="stop-color:rgb(0%,0%,0%);stop-opacity:0.313726;"/>
<stop offset="0.222222" style="stop-color:rgb(0%,0%,0%);stop-opacity:0.27451;"/>
<stop offset="1" style="stop-color:rgb(0%,0%,0%);stop-opacity:0;"/>
</radialGradient>
<linearGradient id="linear0" gradientUnits="userSpaceOnUse" x1="255.323059" y1="233.5" x2="255.323044" y2="254.666656" gradientTransform="matrix(0.10688,0,0,0.500048,94.430917,107.510269)">
<stop offset="0" style="stop-color:rgb(0%,0%,0%);stop-opacity:0.27451;"/>
<stop offset="1" style="stop-color:rgb(0%,0%,0%);stop-opacity:0;"/>
</linearGradient>
<linearGradient id="linear1" gradientUnits="userSpaceOnUse" x1="222.222565" y1="233.5" x2="232.805893" y2="-168.666672" gradientTransform="matrix(0.500048,0,0,0.500048,-5.278452,107.510265)">
<stop offset="0" style="stop-color:rgb(87.843138%,87.843138%,87.843138%);stop-opacity:1;"/>
<stop offset="1" style="stop-color:rgb(93.333334%,93.333334%,93.333334%);stop-opacity:1;"/>
</linearGradient>
<linearGradient id="linear2" gradientUnits="userSpaceOnUse" x1="316.079865" y1="-15.06434" x2="316.079865" y2="-105.022667" gradientTransform="matrix(0.451602,0,0,0.437207,-48.24898,208.858076)">
<stop offset="0" style="stop-color:rgb(25.882354%,64.705884%,96.078432%);stop-opacity:1;"/>
<stop offset="1" style="stop-color:rgb(39.215687%,70.980394%,96.470588%);stop-opacity:1;"/>
</linearGradient>
<linearGradient id="linear3" gradientUnits="userSpaceOnUse" x1="316.079865" y1="-15.06434" x2="316.079865" y2="-105.022667" gradientTransform="matrix(0.500048,0,0,0.500048,-105.562456,156.600242)">
<stop offset="0" style="stop-color:rgb(93.725491%,32.549021%,31.37255%);stop-opacity:1;"/>
<stop offset="1" style="stop-color:rgb(89.803922%,45.09804%,45.09804%);stop-opacity:1;"/>
</linearGradient>
<linearGradient id="linear4" gradientUnits="userSpaceOnUse" x1="316.079865" y1="-15.06434" x2="316.079865" y2="-105.022667" gradientTransform="matrix(0.500048,0,0,0.500048,-81.853939,99.048662)">
<stop offset="0" style="stop-color:rgb(40.000001%,73.333335%,41.568628%);stop-opacity:1;"/>
<stop offset="1" style="stop-color:rgb(50.588238%,78.039217%,51.764709%);stop-opacity:1;"/>
</linearGradient>
<linearGradient id="linear5" gradientUnits="userSpaceOnUse" x1="316.079865" y1="-15.06434" x2="316.079865" y2="-105.022667" gradientTransform="matrix(0.500048,0,0,0.500048,-18.347875,88.464319)">
<stop offset="0" style="stop-color:rgb(49.411765%,34.117648%,76.078433%);stop-opacity:1;"/>
<stop offset="1" style="stop-color:rgb(58.431375%,45.882353%,80.392158%);stop-opacity:1;"/>
</linearGradient>
<radialGradient id="radial4" gradientUnits="userSpaceOnUse" cx="450.908936" cy="189.579361" fx="450.908936" fy="189.579361" r="21.166656" gradientTransform="matrix(0.000000696682,-0.312529,-0.562554,-0.000000406154,285.259148,350.640351)">
<stop offset="0" style="stop-color:rgb(0%,0%,0%);stop-opacity:0.313726;"/>
<stop offset="0.222222" style="stop-color:rgb(0%,0%,0%);stop-opacity:0.27451;"/>
<stop offset="1" style="stop-color:rgb(0%,0%,0%);stop-opacity:0;"/>
</radialGradient>
<radialGradient id="radial5" gradientUnits="userSpaceOnUse" cx="450.908936" cy="189.579361" fx="450.908936" fy="189.579361" r="21.166656" gradientTransform="matrix(-0.000000696682,0.312529,0.562554,0.000000406154,74.608553,66.149445)">
<stop offset="0" style="stop-color:rgb(0%,0%,0%);stop-opacity:0.313726;"/>
<stop offset="0.222222" style="stop-color:rgb(0%,0%,0%);stop-opacity:0.27451;"/>
<stop offset="1" style="stop-color:rgb(0%,0%,0%);stop-opacity:0;"/>
</radialGradient>
<radialGradient id="radial6" gradientUnits="userSpaceOnUse" cx="450.908936" cy="189.579361" fx="450.908936" fy="189.579361" r="21.166656" gradientTransform="matrix(-0.000000696682,-0.312529,0.562554,-0.000000406154,74.608553,350.640351)">
<stop offset="0" style="stop-color:rgb(0%,0%,0%);stop-opacity:0.313726;"/>
<stop offset="0.222222" style="stop-color:rgb(0%,0%,0%);stop-opacity:0.27451;"/>
<stop offset="1" style="stop-color:rgb(0%,0%,0%);stop-opacity:0;"/>
</radialGradient>
<radialGradient id="radial7" gradientUnits="userSpaceOnUse" cx="450.908936" cy="189.579361" fx="450.908936" fy="189.579361" r="21.166656" gradientTransform="matrix(0.000000696682,0.312529,-0.562554,0.000000406154,285.259141,66.149443)">
<stop offset="0" style="stop-color:rgb(0%,0%,0%);stop-opacity:0.313726;"/>
<stop offset="0.222222" style="stop-color:rgb(0%,0%,0%);stop-opacity:0.27451;"/>
<stop offset="1" style="stop-color:rgb(0%,0%,0%);stop-opacity:0;"/>
</radialGradient>
<linearGradient id="linear6" gradientUnits="userSpaceOnUse" x1="187.386063" y1="195.040436" x2="256.177734" y2="75.889771" gradientTransform="matrix(0.433054,-0.250024,0.250024,0.433054,12.975582,170.782844)">
<stop offset="0" style="stop-color:rgb(100%,65.490198%,14.901961%);stop-opacity:1;"/>
<stop offset="1" style="stop-color:rgb(100%,71.764708%,30.19608%);stop-opacity:1;"/>
</linearGradient>
<linearGradient id="linear7" gradientUnits="userSpaceOnUse" x1="221.971863" y1="92.80275" x2="264.305206" y2="19.479267" gradientTransform="matrix(0.433054,-0.250024,0.250024,0.433054,12.975579,170.782845)">
<stop offset="0" style="stop-color:rgb(74.117649%,74.117649%,74.117649%);stop-opacity:1;"/>
<stop offset="1" style="stop-color:rgb(87.843138%,87.843138%,87.843138%);stop-opacity:1;"/>
</linearGradient>
<linearGradient id="linear8" gradientUnits="userSpaceOnUse" x1="243.416672" y1="64.166664" x2="243.416672" y2="-41.666668" gradientTransform="matrix(1,0,0,1,0,-31.74999)">
<stop offset="0" style="stop-color:rgb(38.039216%,38.039216%,38.039216%);stop-opacity:1;"/>
<stop offset="1" style="stop-color:rgb(45.882353%,45.882353%,45.882353%);stop-opacity:1;"/>
</linearGradient>
<linearGradient id="linear9" gradientUnits="userSpaceOnUse" x1="316.079865" y1="-15.06434" x2="316.079865" y2="-105.022667" gradientTransform="matrix(0.421035,0,0,0.408879,50.69157,136.301202)">
<stop offset="0" style="stop-color:rgb(100%,65.490198%,14.901961%);stop-opacity:1;"/>
<stop offset="1" style="stop-color:rgb(100%,71.764708%,30.19608%);stop-opacity:1;"/>
</linearGradient>
</defs>
<g id="surface1">
<path style=" stroke:none;fill-rule:nonzero;fill:url(#radial0);" d="M 140.242188 224.269531 L 161.410156 224.269531 L 161.410156 213.6875 L 140.242188 213.6875 Z M 140.242188 224.269531 "/>
<path style=" stroke:none;fill-rule:nonzero;fill:url(#radial1);" d="M 103.199219 224.269531 L 82.027344 224.269531 L 82.027344 234.855469 L 103.199219 234.855469 Z M 103.199219 224.269531 "/>
<path style=" stroke:none;fill-rule:nonzero;fill:url(#radial2);" d="M 103.199219 224.269531 L 82.027344 224.269531 L 82.027344 213.6875 L 103.199219 213.6875 Z M 103.199219 224.269531 "/>
<path style=" stroke:none;fill-rule:nonzero;fill:url(#radial3);" d="M 140.242188 224.269531 L 161.410156 224.269531 L 161.410156 234.855469 L 140.242188 234.855469 Z M 140.242188 224.269531 "/>
<path style=" stroke:none;fill-rule:nonzero;fill:url(#linear0);" d="M 103.199219 221.625 L 140.242188 221.625 L 140.242188 234.855469 L 103.199219 234.855469 Z M 103.199219 221.625 "/>
<path style=" stroke:none;fill-rule:nonzero;fill:url(#linear1);" d="M 121.734375 23.167969 C 66.027344 23.167969 21.183594 68.015625 21.183594 123.71875 C 21.183594 179.425781 66.027344 224.269531 121.734375 224.269531 C 129.707031 224.269531 137.460938 223.351562 144.890625 221.613281 C 174.65625 213.6875 105.855469 160.765625 148.195312 150.179688 C 190.53125 139.597656 222.285156 155.472656 222.285156 123.71875 C 222.285156 68.015625 177.4375 23.167969 121.734375 23.167969 Z M 121.734375 23.167969 "/>
<path style=" stroke:none;fill-rule:nonzero;fill:url(#linear2);" d="M 103.929688 196.128906 C 98.074219 198.117188 105.789062 200.363281 99.703125 200.15625 C 93.617188 199.949219 97.582031 197.230469 91.578125 195.765625 C 85.570312 194.304688 86.566406 202.984375 81.457031 200.175781 C 76.347656 197.367188 84.867188 194.78125 80.824219 190.085938 C 76.78125 185.394531 76.824219 194.167969 74.503906 188.753906 C 72.1875 183.339844 77.429688 187.113281 77.292969 181.332031 C 77.160156 175.550781 70.40625 179.628906 73.394531 174.496094 C 76.378906 169.367188 75.964844 176.199219 80.585938 171.996094 C 85.203125 167.792969 81.382812 165.917969 86.691406 163.132812 C 91.996094 160.347656 84.25 164.007812 90.601562 164.148438 C 96.953125 164.289062 96.273438 161.691406 102.027344 163.679688 C 107.785156 165.667969 102.28125 164.835938 107.417969 167.765625 C 112.550781 170.695312 108.441406 166.894531 111.738281 171.511719 C 115.03125 176.125 110.992188 170.230469 112.386719 175.679688 C 113.78125 181.132812 115.484375 174.472656 116.210938 180.289062 C 116.941406 186.105469 114.769531 182.523438 112.855469 187.894531 C 110.9375 193.269531 117.578125 190.410156 112.875 194.113281 C 108.171875 197.816406 109.78125 194.144531 103.929688 196.128906 Z M 103.929688 196.128906 "/>
<path style=" stroke:none;fill-rule:nonzero;fill:url(#linear3);" d="M 63.507812 139.597656 C 57.097656 142.144531 60.050781 148.460938 53.355469 148.914062 C 46.660156 149.367188 56.363281 146.375 49.335938 144.730469 C 42.3125 143.089844 45.683594 148.472656 39.015625 145.53125 C 32.347656 142.589844 45.625 140.945312 40.648438 136.183594 C 35.675781 131.421875 34.1875 137.183594 32.65625 130.503906 C 31.125 123.824219 37.441406 131.105469 37.101562 123.699219 C 36.761719 116.292969 30.457031 122.140625 32.554688 115.777344 C 34.652344 109.417969 32.363281 117.914062 37.136719 113.015625 C 41.910156 108.121094 38.160156 110.023438 44.453125 106.332031 C 50.746094 102.636719 46.132812 108.425781 52.871094 108.492188 C 59.613281 108.5625 52.058594 101.8125 58.667969 103.003906 C 65.273438 104.195312 56.605469 106.9375 62.808594 109.902344 C 69.011719 112.867188 69.796875 104.210938 73.855469 109.78125 C 77.914062 115.347656 66.347656 115.730469 68.683594 122.183594 C 71.019531 128.636719 75.992188 117.09375 74.503906 124.242188 C 73.015625 131.390625 73.832031 128.578125 70.660156 134.730469 C 67.484375 140.882812 76.890625 136.886719 71.808594 142.023438 C 66.726562 147.160156 69.914062 137.050781 63.507812 139.597656 Z M 63.507812 139.597656 "/>
<path style=" stroke:none;fill-rule:nonzero;fill:url(#linear4);" d="M 84.140625 83.578125 C 77.96875 86.164062 83.214844 90.980469 76.808594 91.386719 C 70.398438 91.789062 77.511719 90.902344 71.328125 88.503906 C 65.140625 86.105469 69.089844 90.769531 62.609375 88.039062 C 56.128906 85.308594 66.71875 82.941406 61.800781 78.273438 C 56.886719 73.605469 58.007812 79.222656 56.582031 72.808594 C 55.152344 66.394531 56.832031 71.1875 58.238281 64.8125 C 59.644531 58.433594 54.417969 64.332031 56.371094 58.226562 C 58.324219 52.125 56.992188 59.238281 61.660156 54.15625 C 66.328125 49.070312 62.296875 52.617188 68.347656 49.011719 C 74.398438 45.410156 67.617188 49.941406 74.53125 48.085938 C 81.441406 46.230469 76.039062 44.433594 82.371094 45.535156 C 88.703125 46.640625 84.433594 45.222656 89.988281 48.851562 C 95.546875 52.476562 93.839844 46.75 97.730469 52.097656 C 101.621094 57.445312 92.960938 53.417969 95.105469 59.6875 C 97.25 65.957031 99.515625 59.574219 97.976562 66.453125 C 96.4375 73.328125 98.511719 66.878906 95.726562 73.449219 C 92.9375 80.023438 100.574219 79.585938 95.660156 84.527344 C 90.75 89.472656 90.308594 80.992188 84.140625 83.578125 Z M 84.140625 83.578125 "/>
<path style=" stroke:none;fill-rule:nonzero;fill:rgb(100%,100%,100%);fill-opacity:1;" d="M 121.734375 23.167969 C 66.027344 23.167969 21.183594 68.015625 21.183594 123.71875 C 21.183594 124.160156 21.183594 124.601562 21.191406 125.042969 C 21.894531 69.953125 66.46875 25.816406 121.734375 25.816406 C 176.910156 25.816406 221.429688 69.8125 222.269531 124.78125 C 222.28125 124.433594 222.285156 124.082031 222.285156 123.71875 C 222.285156 68.015625 177.4375 23.167969 121.734375 23.167969 Z M 134.054688 165.972656 C 132.9375 180.230469 151.242188 201.347656 152.546875 214.152344 C 153.917969 202.492188 135.15625 181.1875 134.054688 165.972656 Z M 134.054688 165.972656 "/>
<path style=" stroke:none;fill-rule:nonzero;fill:rgb(0%,0%,0%);fill-opacity:0.235294;" d="M 222.273438 122.347656 C 221.679688 152.910156 190.128906 137.433594 148.195312 147.917969 C 137.050781 150.703125 133.609375 156.425781 134.039062 163.484375 C 134.449219 157.472656 138.265625 152.664062 148.195312 150.179688 C 190.53125 139.597656 222.285156 155.472656 222.285156 123.71875 C 222.285156 123.261719 222.28125 122.804688 222.273438 122.347656 Z M 21.191406 122.589844 C 21.1875 122.964844 21.183594 123.34375 21.183594 123.71875 C 21.183594 179.425781 66.027344 224.269531 121.734375 224.269531 C 129.707031 224.269531 137.460938 223.351562 144.890625 221.613281 C 151.03125 219.976562 152.972656 216.425781 152.566406 211.730469 C 152.207031 215.300781 150 217.988281 144.890625 219.347656 C 137.460938 221.085938 129.707031 222.007812 121.734375 222.007812 C 66.40625 222.007812 21.792969 177.769531 21.191406 122.589844 Z M 21.191406 122.589844 "/>
<path style=" stroke:none;fill-rule:nonzero;fill:url(#linear5);" d="M 151.972656 77.464844 C 146.195312 79.464844 146.441406 80.414062 140.3125 80.800781 C 134.1875 81.1875 143.515625 80.207031 137.277344 79.566406 C 131.042969 78.921875 132.3125 80.066406 126.117188 77.457031 C 119.917969 74.847656 126.691406 78.296875 123.417969 72.921875 C 120.144531 67.542969 121.453125 68.355469 120.085938 62.222656 C 118.722656 56.09375 117.175781 60.40625 118.390625 54.320312 C 119.605469 48.230469 118.011719 53.476562 119.875 47.644531 C 121.742188 41.808594 121.523438 45.691406 126.136719 40.851562 C 130.75 36.015625 126.070312 41.875 131.851562 38.429688 C 137.636719 34.984375 131.628906 32.648438 137.820312 32.84375 C 144.015625 33.042969 139.824219 33.894531 145.878906 34.953125 C 151.929688 36.007812 149.789062 31.875 155.480469 35.253906 C 161.167969 38.636719 157.515625 36.402344 161.234375 41.511719 C 164.957031 46.625 163.746094 44.140625 165.144531 50.257812 C 166.546875 56.375 162.953125 49.292969 161.484375 55.867188 C 160.011719 62.441406 163.695312 61.917969 161.953125 68.023438 C 160.210938 74.128906 163.863281 69.21875 159.167969 73.945312 C 154.472656 78.667969 157.753906 75.464844 151.972656 77.464844 Z M 151.972656 77.464844 "/>
<path style=" stroke:none;fill-rule:nonzero;fill:url(#radial4);" d="M 179.933594 208.394531 L 190.519531 208.394531 L 190.519531 203.101562 L 179.933594 203.101562 Z M 179.933594 208.394531 "/>
<path style=" stroke:none;fill-rule:nonzero;fill:url(#radial5);" d="M 179.933594 208.394531 L 169.347656 208.394531 L 169.347656 213.6875 L 179.933594 213.6875 Z M 179.933594 208.394531 "/>
<path style=" stroke:none;fill-rule:nonzero;fill:url(#radial6);" d="M 179.933594 208.394531 L 169.347656 208.394531 L 169.347656 203.101562 L 179.933594 203.101562 Z M 179.933594 208.394531 "/>
<path style=" stroke:none;fill-rule:nonzero;fill:url(#radial7);" d="M 179.933594 208.394531 L 190.519531 208.394531 L 190.519531 213.6875 L 179.933594 213.6875 Z M 179.933594 208.394531 "/>
<path style=" stroke:none;fill-rule:nonzero;fill:rgb(0%,0%,0%);fill-opacity:0.235294;" d="M 163.847656 52.816406 C 163.027344 52.777344 162.082031 53.195312 161.484375 55.867188 C 160.910156 58.433594 161.121094 59.917969 161.488281 61.136719 C 162.960938 54.601562 166.542969 61.660156 165.144531 55.550781 C 164.875 54.375 164.71875 53.585938 164.589844 52.929688 C 164.363281 52.886719 164.117188 52.828125 163.847656 52.816406 Z M 118.589844 58.589844 C 118.53125 58.886719 118.46875 59.226562 118.390625 59.609375 C 117.175781 65.699219 118.722656 61.382812 120.085938 67.515625 C 121.453125 73.648438 120.144531 72.835938 123.417969 78.210938 C 126.691406 83.589844 119.917969 80.136719 126.117188 82.746094 C 132.3125 85.355469 131.042969 84.214844 137.277344 84.855469 C 143.515625 85.5 134.1875 86.480469 140.3125 86.09375 C 146.441406 85.707031 146.195312 84.753906 151.972656 82.753906 C 157.753906 80.757812 154.472656 83.960938 159.167969 79.238281 C 163.863281 74.511719 160.210938 79.421875 161.953125 73.316406 C 162.730469 70.597656 162.429688 69.191406 161.988281 67.890625 C 161.976562 67.9375 161.964844 67.976562 161.953125 68.023438 C 160.210938 74.128906 163.863281 69.21875 159.167969 73.945312 C 154.472656 78.667969 157.753906 75.464844 151.972656 77.464844 C 146.195312 79.464844 146.441406 80.414062 140.3125 80.800781 C 134.1875 81.1875 143.515625 80.207031 137.277344 79.566406 C 131.042969 78.921875 132.3125 80.066406 126.117188 77.457031 C 119.917969 74.84375 126.691406 78.296875 123.417969 72.921875 C 120.144531 67.542969 121.453125 68.355469 120.085938 62.222656 C 119.558594 59.839844 119 59.039062 118.589844 58.589844 Z M 118.589844 58.589844 "/>
<path style=" stroke:none;fill-rule:nonzero;fill:rgb(100%,100%,100%);fill-opacity:0.392157;" d="M 137.277344 32.835938 C 131.992188 32.796875 137.457031 35.089844 131.851562 38.429688 C 126.070312 41.875 130.75 36.015625 126.136719 40.851562 C 121.523438 45.691406 121.742188 41.808594 119.875 47.644531 C 118.011719 53.476562 119.605469 48.230469 118.390625 54.320312 C 117.738281 57.582031 117.886719 57.859375 118.367188 58.355469 C 118.378906 58.3125 118.382812 58.28125 118.390625 58.238281 C 119.605469 52.148438 118.011719 57.398438 119.875 51.5625 C 121.742188 45.730469 121.523438 49.609375 126.136719 44.773438 C 130.75 39.933594 126.070312 45.792969 131.851562 42.347656 C 137.636719 38.902344 131.628906 36.566406 137.820312 36.765625 C 144.015625 36.960938 139.824219 37.816406 145.878906 38.871094 C 151.929688 39.929688 149.789062 35.792969 155.480469 39.175781 C 161.167969 42.554688 157.515625 40.320312 161.234375 45.433594 C 164.683594 50.171875 163.898438 48.394531 164.878906 52.980469 C 165.464844 53.039062 165.707031 52.707031 165.144531 50.257812 C 163.746094 44.140625 164.957031 46.625 161.234375 41.511719 C 157.515625 36.402344 161.167969 38.636719 155.480469 35.253906 C 149.789062 31.875 151.929688 36.007812 145.878906 34.953125 C 139.824219 33.894531 144.015625 33.042969 137.820312 32.84375 C 137.628906 32.839844 137.445312 32.835938 137.277344 32.835938 Z M 161.332031 60.546875 C 160.707031 64.054688 161.6875 65.347656 162.179688 67.128906 C 162.925781 63.753906 161.8125 62.640625 161.332031 60.546875 Z M 161.332031 60.546875 "/>
<path style="fill:none;stroke-width:3;stroke-linecap:round;stroke-linejoin:round;stroke:rgb(12.941177%,12.941177%,12.941177%);stroke-opacity:0.96129;stroke-miterlimit:4;" d="M 340.608535 -21.996849 C 329.054951 -17.997231 329.547092 -16.098975 317.29045 -15.325611 C 305.041619 -14.552248 323.696088 -16.512998 311.220717 -17.794126 C 298.753157 -19.083065 301.291977 -16.794221 288.902536 -22.012473 C 276.505282 -27.230724 290.050863 -20.332946 283.504614 -31.081919 C 276.958364 -41.838704 279.575301 -40.21386 276.841187 -52.478313 C 274.114885 -64.734956 271.021431 -56.110779 273.450886 -68.281492 C 275.880342 -80.460016 272.693146 -69.968831 276.419353 -81.631779 C 280.153371 -93.30254 279.715913 -85.537656 288.941594 -95.21642 C 298.167276 -104.887371 288.808795 -93.16974 300.37019 -100.059707 C 311.939398 -106.949674 299.924921 -111.621103 312.306551 -111.230515 C 324.695992 -110.832116 316.31398 -109.129154 328.422199 -107.012168 C 340.522606 -104.902995 336.241765 -113.16783 347.623491 -106.410663 C 358.997404 -99.645684 351.693414 -104.114008 359.130204 -93.896233 C 366.574806 -83.670647 364.153162 -88.638923 366.94977 -76.405716 C 369.75419 -64.172509 362.567376 -78.335219 359.630156 -65.188037 C 356.685125 -52.040855 364.051609 -53.08763 360.567567 -40.877859 C 357.083525 -28.668087 364.387515 -38.487462 354.997786 -29.03524 C 345.608058 -19.590829 352.169931 -25.996467 340.608535 -21.996849 Z M 340.608535 -21.996849 " transform="matrix(0.500048,0,0,0.500048,-18.347875,88.464319)"/>
<path style=" stroke:none;fill-rule:nonzero;fill:rgb(12.941177%,12.941177%,12.941177%);fill-opacity:1;" d="M 121.734375 22.417969 C 65.625 22.417969 20.433594 67.613281 20.433594 123.71875 C 20.433594 179.828125 65.625 225.019531 121.734375 225.019531 C 129.765625 225.019531 137.574219 224.09375 145.0625 222.34375 L 145.070312 222.339844 L 145.082031 222.335938 C 148.9375 221.308594 151.359375 219.476562 152.519531 217.023438 C 153.679688 214.566406 153.5625 211.621094 152.734375 208.410156 C 151.085938 201.984375 146.574219 194.296875 142.492188 186.542969 C 138.410156 178.792969 134.78125 170.984375 134.753906 164.6875 C 134.738281 161.542969 135.578125 158.792969 137.675781 156.464844 C 139.773438 154.136719 143.179688 152.207031 148.375 150.910156 C 169.417969 145.648438 187.84375 146.96875 201.191406 145.636719 C 207.867188 144.96875 213.320312 143.640625 217.152344 140.328125 C 220.984375 137.019531 223.035156 131.785156 223.035156 123.71875 C 223.035156 67.613281 177.839844 22.417969 121.734375 22.417969 Z M 121.734375 23.917969 C 177.035156 23.917969 221.535156 68.417969 221.535156 123.71875 C 221.535156 131.535156 219.617188 136.21875 216.171875 139.195312 C 212.726562 142.167969 207.597656 143.488281 201.042969 144.140625 C 187.929688 145.453125 169.308594 144.128906 148.011719 149.453125 C 142.625 150.800781 138.921875 152.839844 136.558594 155.460938 C 134.199219 158.085938 133.238281 161.269531 133.253906 164.695312 C 133.285156 171.546875 137.058594 179.453125 141.164062 187.242188 C 145.269531 195.035156 149.726562 202.722656 151.285156 208.78125 C 152.0625 211.8125 152.105469 214.386719 151.164062 216.382812 C 150.222656 218.378906 148.285156 219.929688 144.703125 220.886719 C 137.332031 222.609375 129.644531 223.519531 121.734375 223.519531 C 66.429688 223.519531 21.933594 179.023438 21.933594 123.71875 C 21.933594 68.417969 66.429688 23.917969 121.734375 23.917969 Z M 121.734375 23.917969 "/>
<path style=" stroke:none;fill-rule:nonzero;fill:url(#linear6);" d="M 127.105469 114.441406 C 132.167969 111.515625 148.121094 129.667969 162.734375 154.980469 L 164.058594 157.269531 C 178.671875 182.582031 186.414062 205.472656 181.351562 208.394531 C 176.289062 211.316406 160.339844 193.167969 145.726562 167.855469 L 144.402344 165.5625 C 129.789062 140.25 122.042969 117.363281 127.105469 114.441406 Z M 127.105469 114.441406 "/>
<path style=" stroke:none;fill-rule:nonzero;fill:rgb(0%,0%,0%);fill-opacity:0.235294;" d="M 125.609375 117.484375 C 124.792969 125.046875 132.183594 144.402344 144.402344 165.5625 L 145.726562 167.855469 C 160.382812 193.246094 176.273438 211.328125 181.351562 208.394531 C 182.625 207.660156 183.09375 205.671875 182.851562 202.703125 C 182.6875 204.21875 182.199219 205.261719 181.351562 205.75 C 176.273438 208.679688 160.382812 190.601562 145.726562 165.210938 L 144.402344 162.917969 C 133.421875 143.898438 126.339844 126.335938 125.609375 117.484375 Z M 125.609375 117.484375 "/>
<path style=" stroke:none;fill-rule:nonzero;fill:url(#linear7);" d="M 127.105469 114.441406 C 122.902344 116.867188 127.46875 132.914062 137.480469 152.773438 C 145.535156 158.121094 156.117188 150.179688 155.117188 142.589844 C 142.925781 123.988281 131.3125 112.011719 127.105469 114.441406 Z M 127.105469 114.441406 "/>
<path style=" stroke:none;fill-rule:nonzero;fill:rgb(100%,100%,100%);fill-opacity:0.392157;" d="M 128.335938 114.128906 C 127.875 114.132812 127.464844 114.234375 127.105469 114.441406 C 125.722656 115.238281 125.292969 117.511719 125.6875 120.910156 C 125.902344 119.699219 126.371094 118.851562 127.105469 118.429688 C 132.183594 115.496094 148.074219 133.578125 162.734375 158.96875 L 164.058594 161.257812 C 174.722656 179.734375 181.710938 196.835938 182.769531 205.914062 C 184.042969 198.785156 176.589844 178.976562 164.058594 157.269531 L 162.734375 154.980469 C 149.105469 131.375 134.414062 114.085938 128.335938 114.128906 Z M 128.335938 114.128906 "/>
<path style=" stroke:none;fill-rule:nonzero;fill:rgb(100%,100%,100%);fill-opacity:0.705882;" d="M 128.289062 114.128906 C 127.847656 114.140625 127.453125 114.242188 127.105469 114.441406 C 125.078125 115.613281 125.097656 119.960938 126.78125 126.375 L 126.832031 126.375 C 131.453125 126.375 135.417969 123.699219 137.277344 119.804688 C 133.625 116.246094 130.570312 114.207031 128.480469 114.128906 C 128.414062 114.128906 128.351562 114.128906 128.289062 114.128906 Z M 128.289062 114.128906 "/>
<path style=" stroke:none;fill-rule:nonzero;fill:rgb(12.941177%,12.941177%,12.941177%);fill-opacity:1;" d="M 128.316406 113.371094 C 128.164062 113.375 128.011719 113.386719 127.859375 113.40625 C 127.460938 113.460938 127.085938 113.585938 126.730469 113.789062 C 125.570312 114.460938 125.015625 115.789062 124.851562 117.503906 C 124.84375 117.566406 124.839844 117.628906 124.835938 117.695312 C 124.828125 117.765625 124.824219 117.835938 124.820312 117.910156 C 124.8125 118 124.808594 118.089844 124.804688 118.179688 C 124.804688 118.230469 124.804688 118.277344 124.800781 118.328125 C 124.800781 118.429688 124.796875 118.53125 124.796875 118.636719 C 124.796875 118.644531 124.796875 118.652344 124.796875 118.660156 C 124.796875 118.703125 124.796875 118.746094 124.796875 118.789062 C 124.796875 118.890625 124.796875 118.988281 124.800781 119.09375 C 124.800781 119.097656 124.800781 119.101562 124.800781 119.109375 C 124.804688 119.261719 124.8125 119.417969 124.820312 119.574219 C 124.820312 119.605469 124.824219 119.640625 124.824219 119.671875 C 124.832031 119.816406 124.84375 119.964844 124.855469 120.113281 C 124.855469 120.128906 124.855469 120.140625 124.859375 120.15625 C 124.859375 120.179688 124.863281 120.203125 124.863281 120.226562 C 124.878906 120.382812 124.894531 120.542969 124.910156 120.703125 C 124.914062 120.726562 124.914062 120.746094 124.917969 120.769531 C 124.9375 120.953125 124.957031 121.136719 124.980469 121.324219 C 124.984375 121.332031 124.984375 121.34375 124.984375 121.351562 C 125.039062 121.753906 125.101562 122.167969 125.171875 122.59375 C 125.179688 122.632812 125.1875 122.671875 125.195312 122.714844 C 125.21875 122.863281 125.246094 123.011719 125.277344 123.164062 C 125.292969 123.265625 125.316406 123.371094 125.335938 123.472656 C 125.355469 123.566406 125.371094 123.660156 125.390625 123.753906 C 125.417969 123.890625 125.449219 124.03125 125.480469 124.175781 C 125.484375 124.203125 125.492188 124.234375 125.496094 124.261719 C 125.949219 126.371094 126.617188 128.738281 127.480469 131.332031 C 127.484375 131.347656 127.492188 131.363281 127.496094 131.382812 C 127.542969 131.527344 127.59375 131.671875 127.640625 131.820312 C 127.753906 132.144531 127.867188 132.472656 127.980469 132.804688 C 127.980469 132.808594 127.984375 132.808594 127.984375 132.808594 C 128.148438 133.277344 128.316406 133.757812 128.496094 134.238281 C 128.507812 134.273438 128.519531 134.304688 128.53125 134.335938 C 128.703125 134.8125 128.882812 135.292969 129.066406 135.78125 C 129.085938 135.824219 129.101562 135.867188 129.117188 135.910156 C 129.308594 136.40625 129.5 136.910156 129.703125 137.417969 C 129.902344 137.929688 130.113281 138.449219 130.324219 138.972656 C 130.339844 139.003906 130.351562 139.035156 130.363281 139.066406 C 130.578125 139.585938 130.792969 140.113281 131.019531 140.640625 C 131.03125 140.675781 131.046875 140.707031 131.058594 140.742188 C 131.519531 141.832031 132.003906 142.945312 132.507812 144.074219 C 132.511719 144.082031 132.515625 144.089844 132.519531 144.097656 C 135.527344 150.832031 139.324219 158.265625 143.753906 165.9375 L 145.074219 168.230469 C 152.425781 180.960938 160.078125 191.859375 166.566406 199.242188 C 169.8125 202.933594 172.757812 205.746094 175.277344 207.484375 C 176.539062 208.355469 177.691406 208.960938 178.765625 209.257812 C 179.835938 209.554688 180.875 209.535156 181.726562 209.042969 C 182.578125 208.550781 183.117188 207.664062 183.394531 206.585938 C 183.671875 205.507812 183.722656 204.207031 183.601562 202.679688 C 183.355469 199.628906 182.390625 195.667969 180.816406 191.015625 C 177.667969 181.703125 172.058594 169.625 164.707031 156.894531 L 163.382812 154.605469 C 159.335938 147.59375 155.199219 141.144531 151.210938 135.523438 C 151.207031 135.519531 151.203125 135.511719 151.199219 135.507812 C 151.195312 135.503906 151.195312 135.5 151.191406 135.496094 C 150.828125 134.984375 150.46875 134.480469 150.109375 133.988281 C 150.082031 133.953125 150.058594 133.917969 150.035156 133.882812 C 149.679688 133.390625 149.324219 132.90625 148.972656 132.433594 C 148.625 131.964844 148.28125 131.507812 147.941406 131.054688 C 147.898438 131 147.855469 130.945312 147.816406 130.890625 C 147.488281 130.457031 147.160156 130.03125 146.835938 129.613281 C 146.789062 129.550781 146.738281 129.488281 146.6875 129.421875 C 146.378906 129.023438 146.070312 128.632812 145.765625 128.246094 C 145.742188 128.214844 145.714844 128.183594 145.691406 128.152344 C 145.375 127.753906 145.0625 127.367188 144.75 126.984375 C 144.6875 126.90625 144.625 126.828125 144.558594 126.75 C 144.257812 126.375 143.953125 126.011719 143.65625 125.652344 C 143.605469 125.59375 143.558594 125.539062 143.511719 125.484375 C 143.210938 125.125 142.914062 124.773438 142.617188 124.429688 C 142.597656 124.40625 142.578125 124.386719 142.5625 124.363281 C 142.335938 124.101562 142.113281 123.847656 141.890625 123.59375 C 141.804688 123.492188 141.714844 123.394531 141.628906 123.296875 C 141.589844 123.253906 141.550781 123.207031 141.511719 123.164062 C 141.195312 122.8125 140.886719 122.464844 140.578125 122.128906 C 140.578125 122.128906 140.574219 122.125 140.574219 122.125 C 140.570312 122.121094 140.566406 122.117188 140.5625 122.113281 C 139.914062 121.40625 139.273438 120.734375 138.652344 120.101562 C 138.042969 119.484375 137.445312 118.90625 136.863281 118.363281 C 136.847656 118.351562 136.835938 118.335938 136.820312 118.324219 C 136.816406 118.320312 136.8125 118.316406 136.8125 118.316406 C 136.722656 118.230469 136.632812 118.152344 136.542969 118.070312 C 136.453125 117.988281 136.359375 117.90625 136.269531 117.824219 C 136.214844 117.773438 136.160156 117.722656 136.101562 117.671875 C 135.980469 117.5625 135.855469 117.457031 135.734375 117.351562 C 135.699219 117.320312 135.660156 117.289062 135.625 117.257812 C 134.945312 116.671875 134.289062 116.148438 133.660156 115.6875 C 133.496094 115.570312 133.339844 115.457031 133.179688 115.351562 C 133.027344 115.246094 132.875 115.140625 132.726562 115.042969 C 132.722656 115.042969 132.71875 115.039062 132.714844 115.035156 C 132.710938 115.035156 132.710938 115.035156 132.710938 115.035156 C 132.570312 114.941406 132.429688 114.851562 132.289062 114.769531 C 132.289062 114.769531 132.289062 114.769531 132.285156 114.765625 C 132.203125 114.71875 132.125 114.671875 132.042969 114.625 C 132 114.597656 131.957031 114.570312 131.917969 114.546875 C 131.90625 114.542969 131.898438 114.539062 131.890625 114.535156 C 131.824219 114.496094 131.761719 114.460938 131.699219 114.425781 C 131.632812 114.390625 131.5625 114.351562 131.496094 114.316406 C 131.421875 114.277344 131.351562 114.242188 131.28125 114.207031 C 131.183594 114.15625 131.089844 114.113281 130.996094 114.066406 C 130.964844 114.050781 130.929688 114.035156 130.898438 114.023438 C 129.980469 113.601562 129.113281 113.363281 128.316406 113.371094 Z M 128.382812 114.882812 C 128.777344 114.890625 129.25 114.984375 129.792969 115.1875 C 129.800781 115.191406 129.808594 115.195312 129.816406 115.195312 C 129.878906 115.222656 129.945312 115.246094 130.015625 115.277344 C 130.023438 115.277344 130.027344 115.28125 130.035156 115.285156 C 130.109375 115.316406 130.1875 115.347656 130.261719 115.382812 C 130.296875 115.398438 130.332031 115.414062 130.363281 115.429688 C 130.492188 115.488281 130.621094 115.554688 130.753906 115.625 C 130.875 115.6875 130.996094 115.753906 131.121094 115.824219 C 131.207031 115.871094 131.296875 115.925781 131.382812 115.976562 C 131.421875 116 131.460938 116.019531 131.5 116.046875 C 131.546875 116.074219 131.597656 116.105469 131.648438 116.136719 C 131.832031 116.253906 132.015625 116.375 132.210938 116.503906 C 132.328125 116.585938 132.445312 116.667969 132.566406 116.753906 C 132.570312 116.753906 132.570312 116.757812 132.574219 116.757812 C 132.578125 116.757812 132.578125 116.761719 132.578125 116.761719 C 132.703125 116.847656 132.824219 116.9375 132.949219 117.03125 C 133.433594 117.390625 133.941406 117.796875 134.46875 118.246094 C 134.5 118.269531 134.527344 118.292969 134.558594 118.320312 C 134.648438 118.398438 134.742188 118.480469 134.835938 118.5625 C 134.914062 118.628906 134.988281 118.695312 135.066406 118.761719 C 135.132812 118.824219 135.199219 118.882812 135.269531 118.941406 C 135.394531 119.054688 135.519531 119.167969 135.644531 119.285156 C 135.667969 119.308594 135.691406 119.328125 135.71875 119.351562 C 136.371094 119.953125 137.050781 120.617188 137.753906 121.332031 C 137.980469 121.5625 138.210938 121.800781 138.445312 122.046875 C 138.515625 122.121094 138.585938 122.195312 138.65625 122.269531 C 138.878906 122.507812 139.105469 122.746094 139.332031 122.996094 C 139.390625 123.058594 139.449219 123.121094 139.507812 123.183594 C 139.792969 123.496094 140.082031 123.816406 140.371094 124.144531 C 140.40625 124.179688 140.441406 124.21875 140.476562 124.257812 C 144.699219 129.027344 149.488281 135.390625 154.367188 142.820312 C 154.746094 146.207031 152.578125 149.792969 149.289062 151.902344 C 146.007812 154.011719 141.777344 154.613281 138.054688 152.238281 C 133.425781 143.035156 129.972656 134.660156 128.050781 128.148438 C 127.933594 127.753906 127.824219 127.371094 127.722656 126.992188 C 127.6875 126.867188 127.652344 126.742188 127.617188 126.617188 C 127.597656 126.546875 127.582031 126.480469 127.5625 126.414062 C 127.511719 126.226562 127.464844 126.042969 127.417969 125.859375 C 127.40625 125.8125 127.394531 125.769531 127.382812 125.722656 C 127.324219 125.492188 127.269531 125.265625 127.214844 125.042969 C 127.214844 125.039062 127.214844 125.035156 127.210938 125.035156 C 127.210938 125.027344 127.210938 125.023438 127.207031 125.015625 C 127.160156 124.808594 127.113281 124.609375 127.066406 124.40625 C 127.042969 124.304688 127.023438 124.203125 127 124.101562 C 126.976562 124 126.957031 123.898438 126.933594 123.800781 C 126.910156 123.683594 126.886719 123.566406 126.863281 123.449219 C 126.847656 123.375 126.832031 123.300781 126.816406 123.230469 C 126.792969 123.09375 126.765625 122.957031 126.738281 122.820312 C 126.734375 122.792969 126.730469 122.765625 126.726562 122.738281 C 126.597656 122.054688 126.5 121.40625 126.429688 120.800781 C 126.429688 120.796875 126.429688 120.792969 126.429688 120.789062 C 126.414062 120.652344 126.398438 120.511719 126.386719 120.378906 C 126.382812 120.34375 126.378906 120.308594 126.375 120.273438 C 126.363281 120.152344 126.355469 120.035156 126.34375 119.921875 C 126.339844 119.859375 126.335938 119.796875 126.332031 119.738281 C 126.328125 119.652344 126.320312 119.566406 126.316406 119.484375 C 126.308594 119.328125 126.304688 119.171875 126.300781 119.023438 C 126.300781 119.015625 126.300781 119.011719 126.300781 119.003906 C 126.296875 118.851562 126.296875 118.703125 126.296875 118.5625 C 126.296875 118.550781 126.296875 118.542969 126.296875 118.53125 C 126.300781 118.394531 126.304688 118.257812 126.308594 118.128906 C 126.3125 118.117188 126.3125 118.101562 126.3125 118.089844 C 126.320312 117.96875 126.328125 117.851562 126.335938 117.738281 C 126.339844 117.714844 126.339844 117.691406 126.34375 117.671875 C 126.351562 117.582031 126.363281 117.492188 126.375 117.40625 C 126.511719 116.351562 126.820312 115.652344 127.234375 115.273438 C 127.269531 115.238281 127.308594 115.207031 127.347656 115.179688 C 127.390625 115.148438 127.4375 115.117188 127.480469 115.089844 C 127.527344 115.0625 127.574219 115.039062 127.625 115.019531 C 127.667969 115 127.714844 114.984375 127.761719 114.96875 C 127.761719 114.96875 127.765625 114.964844 127.765625 114.964844 C 127.867188 114.933594 127.980469 114.910156 128.097656 114.898438 C 128.1875 114.886719 128.285156 114.882812 128.382812 114.882812 Z M 155.816406 145.050781 C 157.910156 148.3125 160.007812 151.757812 162.085938 155.355469 L 163.410156 157.644531 C 170.71875 170.308594 176.292969 182.324219 179.394531 191.496094 C 180.945312 196.082031 181.875 199.960938 182.105469 202.800781 C 182.222656 204.222656 182.15625 205.378906 181.941406 206.210938 C 181.726562 207.039062 181.394531 207.503906 180.976562 207.746094 C 180.558594 207.984375 179.992188 208.042969 179.164062 207.8125 C 178.339844 207.582031 177.304688 207.058594 176.128906 206.25 C 173.785156 204.632812 170.890625 201.886719 167.695312 198.25 C 161.304688 190.980469 153.683594 180.140625 146.375 167.480469 L 145.050781 165.1875 C 142.957031 161.5625 141.003906 157.988281 139.210938 154.515625 C 142.960938 155.976562 146.980469 155.167969 150.101562 153.164062 C 153.058594 151.265625 155.296875 148.285156 155.816406 145.050781 Z M 155.816406 145.050781 "/>
<path style="fill-rule:nonzero;fill:url(#linear8);stroke-width:3;stroke-linecap:round;stroke-linejoin:round;stroke:rgb(12.941177%,12.941177%,12.941177%);stroke-opacity:1;stroke-miterlimit:4;" d="M 269.872666 -78.708328 C 224.892586 -76.060143 201.08236 -46.961359 223.986423 -9.347764 C 232.83714 5.955462 244.140748 15.782649 254.819416 27.562774 C 259.420539 28.843902 265.224672 26.070729 266.81827 21.680523 C 263.560769 14.813991 261.935924 8.603647 268.950879 0.737211 C 298.979261 -33.728248 247.382626 -61.506845 305.595817 -70.771586 C 291.042519 -73.41977 291.042519 -78.708328 269.872666 -78.708328 Z M 269.872666 -78.708328 " transform="matrix(0.500048,0,0,0.500048,0,107.510266)"/>
<path style=" stroke:none;fill-rule:nonzero;fill:rgb(100%,100%,100%);fill-opacity:0.196078;" d="M 119.074219 107.84375 C 107.226562 91.699219 112.078125 78.328125 123.042969 73.445312 C 127.550781 71.171875 136.273438 69.476562 144.210938 72.121094 C 137.597656 71.460938 130.980469 72.121094 125.6875 74.765625 C 120.398438 77.414062 117.089844 83.367188 119.074219 86.675781 C 121.105469 89.117188 121.71875 73.445312 137.597656 75.429688 C 125.6875 78.074219 128.335938 86.675781 125.6875 93.289062 C 121.71875 103.875 129.660156 121.074219 119.074219 107.84375 Z M 119.074219 107.84375 "/>
<path style=" stroke:none;fill-rule:nonzero;fill:url(#linear9);" d="M 201.101562 123.71875 C 193.554688 129.515625 199.484375 128.035156 191.59375 131.621094 C 189.722656 132.46875 189.714844 128.535156 187.472656 128.125 C 178.015625 126.40625 186.238281 129.59375 176.757812 127.609375 C 174.511719 127.136719 175.730469 126.703125 174.050781 125.183594 C 166.949219 118.785156 171.257812 128.488281 166.082031 121.386719 C 164.855469 119.703125 167.273438 119.992188 167.113281 117.773438 C 166.445312 108.40625 164.945312 114.105469 165.347656 105.59375 C 165.441406 103.578125 164.203125 108.839844 165.117188 106.832031 C 168.964844 98.359375 168.460938 103.902344 172.375 96.175781 C 173.300781 94.34375 170.199219 96.722656 172.136719 95.835938 C 180.308594 92.105469 172.792969 90.695312 182.253906 89.785156 C 184.496094 89.570312 183.421875 90.890625 185.308594 91.675781 C 193.265625 94.996094 190.175781 93.351562 198.945312 96.023438 C 201.023438 96.65625 198.722656 94.496094 199.492188 96.375 C 202.726562 104.3125 201.945312 97.464844 206.222656 105.433594 C 207.238281 107.320312 206.316406 109.578125 205.972656 111.734375 C 204.515625 120.824219 205.886719 112.898438 203.203125 121.179688 C 202.566406 123.140625 202.890625 122.347656 201.101562 123.71875 Z M 201.101562 123.71875 "/>
<path style=" stroke:none;fill-rule:nonzero;fill:rgb(0%,0%,0%);fill-opacity:0.235294;" d="M 74.964844 177.894531 C 74.546875 178.109375 74.050781 178.660156 73.394531 179.789062 C 71 183.90625 74.867188 182.097656 76.5625 184.203125 C 77.011719 183.660156 77.328125 182.808594 77.292969 181.332031 C 77.238281 178.992188 76.101562 178.269531 74.964844 177.894531 Z M 115.894531 183.933594 C 115.242188 184.671875 114 184.671875 112.855469 187.894531 C 112.003906 190.285156 112.84375 191.042969 113.625 191.480469 C 115.292969 188.605469 116.84375 190.625 116.210938 185.582031 C 116.121094 184.851562 116.011719 184.316406 115.894531 183.933594 Z M 78.570312 188.652344 C 77.042969 188.710938 76.488281 191.425781 75.410156 190.324219 C 74.253906 190.867188 73.226562 191.054688 74.507812 194.046875 C 76.824219 199.460938 76.78125 190.6875 80.824219 195.378906 C 80.863281 195.425781 80.902344 195.46875 80.9375 195.515625 C 81.859375 194.007812 82.710938 192.277344 80.824219 190.085938 C 79.875 188.988281 79.152344 188.625 78.570312 188.652344 Z M 112.542969 194.367188 C 108.246094 197.632812 109.636719 194.191406 103.929688 196.128906 C 98.074219 198.117188 105.789062 200.363281 99.703125 200.15625 C 93.617188 199.949219 97.582031 197.230469 91.578125 195.765625 C 85.570312 194.304688 86.566406 202.984375 81.457031 200.175781 C 81.417969 200.152344 81.378906 200.132812 81.339844 200.109375 C 80.253906 202.15625 78.375 203.773438 81.457031 205.46875 C 86.566406 208.277344 85.570312 199.597656 91.578125 201.058594 C 97.582031 202.519531 93.617188 205.242188 99.703125 205.449219 C 105.789062 205.65625 98.074219 203.40625 103.929688 201.421875 C 109.78125 199.4375 108.171875 203.105469 112.875 199.402344 C 117.1875 196.007812 111.96875 198.128906 112.542969 194.367188 Z M 112.542969 194.367188 "/>
<path style=" stroke:none;fill-rule:nonzero;fill:rgb(0%,0%,0%);fill-opacity:0.235294;" d="M 73.375 114.460938 C 71.179688 116.496094 67.226562 118.160156 68.683594 122.183594 C 68.859375 122.671875 69.050781 123.054688 69.253906 123.351562 C 71.460938 120.4375 76.816406 119.136719 73.855469 115.074219 C 73.691406 114.84375 73.53125 114.644531 73.375 114.460938 Z M 33.210938 119.199219 C 33.054688 119.582031 32.851562 120.175781 32.554688 121.070312 C 30.753906 126.535156 35.148438 122.992188 36.640625 126.578125 C 36.976562 126.039062 37.167969 125.152344 37.101562 123.699219 C 36.988281 121.226562 36.207031 120.230469 35.296875 119.765625 C 34.511719 120.121094 34.148438 119.761719 33.941406 119.351562 C 33.679688 119.304688 33.433594 119.257812 33.210938 119.199219 Z M 74.550781 127.101562 C 74.382812 127.089844 74.132812 127.269531 73.824219 127.535156 C 73.191406 130.539062 73.164062 129.867188 70.660156 134.730469 C 69.285156 137.394531 70.269531 138.15625 71.417969 138.578125 C 73.691406 134.316406 73.148438 136.035156 74.503906 129.53125 C 74.875 127.746094 74.84375 127.125 74.550781 127.101562 Z M 33.328125 132.683594 C 32.554688 132.824219 32.117188 133.441406 32.65625 135.796875 C 34.121094 142.183594 35.546875 137.191406 40.023438 140.914062 C 41.574219 139.675781 42.769531 138.214844 40.648438 136.183594 C 36.394531 132.109375 34.691406 135.730469 33.328125 132.683594 Z M 65.289062 139.179688 C 64.792969 139.191406 64.207031 139.316406 63.507812 139.597656 C 57.097656 142.144531 60.050781 148.460938 53.355469 148.914062 C 46.664062 149.367188 56.363281 146.375 49.335938 144.730469 C 42.792969 143.203125 45.265625 147.761719 40.25 146.019531 C 38.144531 147.78125 35.050781 149.070312 39.015625 150.824219 C 45.683594 153.765625 42.3125 148.382812 49.335938 150.023438 C 56.363281 151.667969 46.664062 154.660156 53.355469 154.207031 C 60.050781 153.753906 57.097656 147.433594 63.507812 144.890625 C 69.914062 142.34375 66.726562 152.453125 71.808594 147.316406 C 75.464844 143.617188 71.621094 144.652344 70.359375 143.230469 C 67.707031 144.785156 68.796875 139.09375 65.289062 139.179688 Z M 65.289062 139.179688 "/>
<path style=" stroke:none;fill-rule:nonzero;fill:rgb(0%,0%,0%);fill-opacity:0.235294;" d="M 96.417969 55.769531 C 95.226562 56.226562 94.199219 57.035156 95.105469 59.6875 C 95.34375 60.382812 95.582031 60.921875 95.816406 61.34375 C 97.480469 60.382812 100.261719 60.871094 97.730469 57.390625 C 97.199219 56.660156 96.773438 56.140625 96.417969 55.769531 Z M 57.132812 61.421875 C 56.945312 61.816406 56.707031 62.46875 56.371094 63.519531 C 55.179688 67.242188 56.65625 66.503906 57.675781 66.804688 C 57.863281 66.300781 58.054688 65.65625 58.238281 64.8125 C 58.933594 61.664062 58.011719 61.507812 57.132812 61.421875 Z M 97.625 68.109375 C 96.8125 72.140625 98.234375 67.535156 95.726562 73.449219 C 94.667969 75.941406 95.109375 77.421875 95.796875 78.574219 C 98.464844 72.3125 96.453125 78.554688 97.976562 71.742188 C 98.855469 67.820312 98.492188 68.210938 97.625 68.109375 Z M 56.777344 73.683594 C 56.027344 74.480469 55.664062 73.988281 56.582031 78.101562 C 58.007812 84.515625 56.886719 78.898438 61.800781 83.566406 C 61.816406 83.578125 61.828125 83.589844 61.839844 83.601562 C 62.996094 82.148438 64.113281 80.464844 61.800781 78.273438 C 57.136719 73.84375 57.90625 78.65625 56.777344 73.683594 Z M 86.429688 83.074219 C 85.761719 83.070312 85.007812 83.214844 84.140625 83.578125 C 77.96875 86.164062 83.214844 90.980469 76.808594 91.386719 C 70.398438 91.789062 77.511719 90.902344 71.328125 88.503906 C 65.140625 86.105469 69.089844 90.769531 62.609375 88.039062 C 62.574219 88.023438 62.539062 88.007812 62.503906 87.992188 C 61.171875 90.0625 58.5625 91.628906 62.609375 93.332031 C 69.089844 96.0625 65.140625 91.398438 71.328125 93.796875 C 77.511719 96.191406 70.398438 97.082031 76.808594 96.675781 C 83.214844 96.273438 77.96875 91.453125 84.140625 88.871094 C 90.308594 86.285156 90.75 94.765625 95.660156 89.820312 C 98.539062 86.925781 97.109375 85.875 95.992188 84.179688 C 95.890625 84.292969 95.78125 84.410156 95.660156 84.527344 C 91.441406 88.777344 90.523438 83.113281 86.429688 83.074219 Z M 86.429688 83.074219 "/>
<path style=" stroke:none;fill-rule:nonzero;fill:rgb(0%,0%,0%);fill-opacity:0.235294;" d="M 165.292969 110.417969 C 165.078125 110.464844 164.363281 113.785156 165.117188 112.121094 C 165.183594 111.976562 165.246094 111.839844 165.3125 111.699219 C 165.320312 111.445312 165.332031 111.175781 165.347656 110.886719 C 165.363281 110.542969 165.339844 110.410156 165.292969 110.417969 Z M 165.3125 111.699219 C 165.097656 117.644531 165.992188 115.46875 166.683594 119.273438 C 166.953125 118.933594 167.164062 118.480469 167.113281 117.773438 C 166.730469 112.367188 166.066406 111.976562 165.652344 110.980469 C 165.542969 111.207031 165.429688 111.449219 165.3125 111.699219 Z M 206.179688 110.648438 C 206.101562 111.011719 206.027344 111.375 205.972656 111.734375 C 204.515625 120.824219 205.886719 112.898438 203.203125 121.179688 C 202.566406 123.140625 202.890625 122.347656 201.101562 123.71875 C 193.554688 129.515625 199.484375 128.035156 191.59375 131.621094 C 189.722656 132.46875 189.714844 128.535156 187.472656 128.125 C 178.015625 126.40625 186.238281 129.59375 176.757812 127.609375 C 174.511719 127.136719 175.730469 126.703125 174.050781 125.183594 C 167.480469 119.261719 170.675781 127.121094 167.085938 122.699219 C 167.097656 122.824219 167.105469 122.9375 167.113281 123.066406 C 167.273438 125.285156 164.855469 124.996094 166.082031 126.679688 C 171.257812 133.777344 166.949219 124.078125 174.050781 130.476562 C 175.730469 131.992188 174.511719 132.429688 176.757812 132.902344 C 186.238281 134.886719 178.015625 131.695312 187.472656 133.417969 C 189.714844 133.828125 189.722656 137.761719 191.59375 136.914062 C 199.484375 133.328125 193.554688 134.804688 201.101562 129.011719 C 202.890625 127.640625 202.566406 128.433594 203.203125 126.472656 C 205.886719 118.191406 204.515625 126.117188 205.972656 117.023438 C 206.316406 114.871094 207.238281 112.613281 206.222656 110.722656 C 206.207031 110.699219 206.195312 110.675781 206.179688 110.648438 Z M 206.179688 110.648438 "/>
<path style="fill:none;stroke-width:1.089771;stroke-linecap:round;stroke-linejoin:round;stroke:rgb(0%,0%,0%);stroke-opacity:0.235294;stroke-miterlimit:4;" d="M 271.93299 -23.495083 C 261.469663 -19.82518 275.255567 -15.679414 264.380409 -16.061546 C 253.50525 -16.443677 260.590157 -21.461856 249.861583 -24.165616 C 239.126028 -26.862166 240.90598 -10.841486 231.775873 -16.025495 C 222.645765 -21.209505 237.869591 -25.982542 230.64508 -34.648995 C 223.420568 -43.308237 223.49735 -27.114517 219.351108 -37.107614 C 215.211847 -47.100711 224.579282 -40.135825 224.334975 -50.806665 C 224.097648 -61.477505 212.028874 -53.950237 217.36873 -63.424212 C 222.701607 -72.890977 221.961705 -60.28064 230.219287 -68.038629 C 238.469889 -75.796618 231.643249 -79.257431 241.129347 -84.39818 C 250.608465 -89.538929 236.766719 -82.783134 248.116532 -82.523573 C 259.466344 -82.264012 258.251789 -87.05868 268.53363 -83.388776 C 278.822452 -79.718873 268.987344 -81.254608 278.166313 -75.847088 C 287.338302 -70.439568 279.995126 -77.454924 285.886419 -68.932672 C 291.770731 -60.417631 284.5532 -71.297561 287.045133 -61.239574 C 289.537066 -51.174376 292.580435 -63.467472 293.878753 -52.731742 C 295.184052 -41.996012 291.303058 -48.607607 287.882758 -38.69382 C 284.455477 -28.772823 296.321825 -34.050563 287.917659 -27.215457 C 279.513492 -20.380352 282.389336 -27.157777 271.93299 -23.495083 Z M 271.93299 -23.495083 " transform="matrix(0.559618,0,0,0.54178,-48.24898,208.858078)"/>
<path style="fill:none;stroke-width:1.2;stroke-linecap:round;stroke-linejoin:round;stroke:rgb(0%,0%,0%);stroke-opacity:0.235294;stroke-miterlimit:4;" d="M 338.108248 -34.001925 C 325.28916 -28.908661 331.194846 -16.277055 317.8055 -15.370891 C 304.416153 -14.464728 323.82055 -20.448532 309.767205 -23.73728 C 295.721671 -27.018217 302.463215 -16.25362 289.128551 -22.13587 C 275.793887 -28.018121 302.346038 -31.30687 292.393864 -40.829398 C 282.449501 -50.351926 279.473223 -38.829589 276.411015 -52.187688 C 273.348808 -65.545787 285.980414 -50.984678 285.300791 -65.795764 C 284.621169 -80.606849 272.012998 -68.912653 276.20791 -81.638001 C 280.402821 -94.355536 275.825134 -77.364971 285.371097 -87.160911 C 294.91706 -96.949039 287.417777 -93.144714 300.002512 -100.526822 C 312.587248 -107.916741 303.361567 -96.339722 316.836842 -96.206922 C 330.31993 -96.06631 315.211997 -109.565021 328.429485 -107.182436 C 341.639161 -104.799851 324.304879 -99.316 336.709944 -93.386879 C 349.11501 -87.457758 350.685172 -104.768604 358.801585 -93.629043 C 366.917997 -82.497294 343.787394 -81.731742 348.458822 -68.826724 C 353.130251 -55.921707 363.074614 -79.00544 360.098336 -64.70993 C 357.122058 -50.41442 358.754714 -56.038883 352.41157 -43.73537 C 346.060614 -31.431858 364.871318 -39.423282 354.708226 -29.150826 C 344.545134 -18.878369 350.919525 -39.095188 338.108248 -34.001925 Z M 338.108248 -34.001925 " transform="matrix(0.500048,0,0,0.500048,-105.562456,156.600242)"/>
<path style="fill:none;stroke-width:1.2;stroke-linecap:round;stroke-linejoin:round;stroke:rgb(0%,0%,0%);stroke-opacity:0.235294;stroke-miterlimit:4;" d="M 331.957427 -30.93812 C 319.614856 -25.766739 330.106041 -16.134846 317.294765 -15.322424 C 304.475676 -14.517813 318.70088 -16.291082 306.334874 -21.087498 C 293.961055 -25.883915 301.858739 -16.556681 288.899039 -22.017097 C 275.939339 -27.477513 297.117004 -32.211436 287.282006 -41.546482 C 277.454819 -50.881528 279.696793 -39.648226 276.845502 -52.475126 C 273.9864 -65.302026 277.345455 -55.717004 280.157686 -68.465787 C 282.969918 -81.222381 272.517791 -69.426632 276.423668 -81.636404 C 280.329545 -93.838364 277.665737 -79.61316 287.000783 -89.776252 C 296.335829 -99.947155 288.274099 -92.854083 300.374505 -100.064332 C 312.474912 -107.266769 298.913707 -98.205134 312.740512 -101.915717 C 326.559505 -105.6263 315.755849 -109.219707 328.418702 -107.016793 C 341.081556 -104.806066 332.543309 -107.641733 343.651623 -100.384613 C 354.767749 -93.135306 351.354012 -104.587337 359.134519 -93.893046 C 366.915026 -83.198755 349.596368 -91.252673 353.88502 -78.714808 C 358.173673 -66.176943 362.704491 -78.941349 359.62666 -65.18485 C 356.548829 -51.436163 360.69687 -64.333369 355.127089 -51.193998 C 349.549497 -38.046816 364.821476 -38.921733 354.99429 -29.039864 C 345.174915 -19.150183 344.292187 -36.109501 331.957427 -30.93812 Z M 331.957427 -30.93812 " transform="matrix(0.500048,0,0,0.500048,-81.853939,99.048662)"/>
<path style="fill:none;stroke-width:1.446226;stroke-linecap:round;stroke-linejoin:round;stroke:rgb(0%,0%,0%);stroke-opacity:0.235294;stroke-miterlimit:4;" d="M 357.238269 -30.773051 C 339.313712 -16.595565 353.397293 -20.216365 334.656296 -11.446196 C 330.212267 -9.373073 330.193712 -18.993509 324.8683 -19.996633 C 302.406937 -24.2002 321.93654 -16.404494 299.41951 -21.257703 C 294.084821 -22.413684 296.97947 -23.47413 292.99005 -27.190465 C 276.123152 -42.839199 286.356479 -19.108152 274.063498 -36.476527 C 271.150294 -40.594112 276.893203 -39.887149 276.512817 -45.313572 C 274.926326 -68.223012 271.363681 -54.284366 272.319287 -75.101577 C 272.541952 -80.031215 269.600914 -67.162567 271.771901 -72.073098 C 280.910457 -92.794773 279.71363 -79.238269 289.009907 -98.135214 C 291.208727 -102.615834 283.842216 -96.797715 288.443966 -98.966374 C 307.852959 -108.090025 290.002623 -111.538861 312.473264 -113.764841 C 317.798676 -114.290287 315.247303 -111.061183 319.728442 -109.140917 C 338.627161 -101.02039 331.288483 -105.042439 352.116967 -98.507803 C 357.052715 -96.960126 351.588137 -102.243245 353.415848 -97.647982 C 361.097802 -78.235145 359.242257 -94.982539 369.401362 -75.493273 C 371.81357 -70.878903 369.624027 -65.356944 368.807588 -60.083378 C 365.346998 -37.85224 368.603478 -57.236417 362.229684 -36.982866 C 360.717415 -32.186978 361.487466 -34.126351 357.238269 -30.773051 Z M 357.238269 -30.773051 " transform="matrix(0.421035,0,0,0.408879,50.69157,136.301202)"/>
<path style=" stroke:none;fill-rule:nonzero;fill:rgb(100%,100%,100%);fill-opacity:0.392157;" d="M 88.675781 162.089844 C 88.644531 162.074219 88.183594 162.351562 86.691406 163.132812 C 81.382812 165.917969 85.203125 167.792969 80.585938 171.996094 C 75.964844 176.199219 76.378906 169.367188 73.394531 174.496094 C 72.003906 176.886719 72.730469 177.277344 73.910156 177.597656 C 76.347656 174.085938 76.25 179.859375 80.585938 175.914062 C 85.203125 171.710938 81.382812 169.835938 86.691406 167.050781 C 91.996094 164.265625 84.25 167.925781 90.601562 168.066406 C 96.953125 168.207031 96.273438 165.609375 102.027344 167.597656 C 107.785156 169.585938 102.28125 168.753906 107.417969 171.683594 C 112.550781 174.613281 108.441406 170.8125 111.738281 175.429688 C 112.25 176.148438 112.570312 176.589844 112.773438 176.882812 C 112.644531 176.570312 112.515625 176.175781 112.386719 175.679688 C 110.992188 170.230469 115.03125 176.125 111.738281 171.511719 C 108.441406 166.894531 112.550781 170.695312 107.417969 167.765625 C 102.28125 164.835938 107.785156 165.667969 102.027344 163.679688 C 96.273438 161.691406 96.953125 164.285156 90.601562 164.148438 C 86.035156 164.046875 88.753906 162.128906 88.675781 162.089844 Z M 112.4375 177.101562 C 112.105469 177.105469 111.867188 177.554688 112.386719 179.597656 C 113.726562 184.835938 115.351562 178.898438 116.121094 183.585938 C 116.378906 183.050781 116.445312 182.152344 116.210938 180.289062 C 115.585938 175.289062 114.238281 179.503906 112.988281 177.320312 C 112.871094 177.257812 112.640625 177.097656 112.4375 177.101562 Z M 76.96875 183.519531 C 75.886719 186.105469 72.578125 184.246094 74.507812 188.753906 C 74.585938 188.941406 74.664062 189.109375 74.738281 189.265625 C 75.761719 188.730469 77.371094 188.484375 77.292969 185.25 C 77.277344 184.535156 77.160156 183.96875 76.96875 183.519531 Z M 113.121094 191.132812 C 113.03125 191.34375 112.941406 191.566406 112.855469 191.816406 C 112.4375 192.988281 112.425781 193.769531 112.617188 194.3125 C 112.703125 194.246094 112.785156 194.183594 112.875 194.113281 C 115.945312 191.695312 114.183594 192.074219 113.121094 191.132812 Z M 81.375 194.753906 C 80.386719 196.648438 78.675781 198.175781 80.757812 199.730469 C 81.632812 198.324219 82.59375 196.734375 81.375 194.753906 Z M 81.375 194.753906 "/>
<path style="fill:none;stroke-width:2.724427;stroke-linecap:round;stroke-linejoin:round;stroke:rgb(12.941177%,12.941177%,12.941177%);stroke-opacity:0.96129;stroke-miterlimit:4;" d="M 271.93299 -23.495083 C 261.469663 -19.82518 275.255567 -15.679414 264.380409 -16.061546 C 253.50525 -16.443677 260.590157 -21.461856 249.861583 -24.165616 C 239.126028 -26.862166 240.90598 -10.841486 231.775873 -16.025495 C 222.645765 -21.209505 237.869591 -25.982542 230.64508 -34.648995 C 223.420568 -43.308237 223.49735 -27.114517 219.351108 -37.107614 C 215.211847 -47.100711 224.579282 -40.135825 224.334975 -50.806665 C 224.097648 -61.477505 212.028874 -53.950237 217.36873 -63.424212 C 222.701607 -72.890977 221.961705 -60.28064 230.219287 -68.038629 C 238.469889 -75.796618 231.643249 -79.257431 241.129347 -84.39818 C 250.608465 -89.538929 236.766719 -82.783134 248.116532 -82.523573 C 259.466344 -82.264012 258.251789 -87.05868 268.53363 -83.388776 C 278.822452 -79.718873 268.987344 -81.254608 278.166313 -75.847088 C 287.338302 -70.439568 279.995126 -77.454924 285.886419 -68.932672 C 291.770731 -60.417631 284.5532 -71.297561 287.045133 -61.239574 C 289.537066 -51.174376 292.580435 -63.467472 293.878753 -52.731742 C 295.184052 -41.996012 291.303058 -48.607607 287.882758 -38.69382 C 284.455477 -28.772823 296.321825 -34.050563 287.917659 -27.215457 C 279.513492 -20.380352 282.389336 -27.157777 271.93299 -23.495083 Z M 271.93299 -23.495083 " transform="matrix(0.559618,0,0,0.54178,-48.24898,208.858078)"/>
<path style=" stroke:none;fill-rule:nonzero;fill:rgb(100%,100%,100%);fill-opacity:0.392157;" d="M 57.363281 102.863281 C 53.148438 102.824219 59.085938 108.554688 52.871094 108.492188 C 46.132812 108.425781 50.746094 102.636719 44.453125 106.332031 C 38.160156 110.023438 41.910156 108.121094 37.136719 113.015625 C 32.363281 117.914062 34.652344 109.417969 32.554688 115.777344 C 31.835938 117.953125 32.101562 118.703125 32.777344 119.039062 C 34.46875 114.035156 32.554688 121.636719 37.136719 116.933594 C 41.910156 112.039062 38.160156 113.941406 44.453125 110.25 C 50.746094 106.558594 46.132812 112.34375 52.871094 112.410156 C 59.613281 112.480469 52.058594 105.730469 58.667969 106.921875 C 59.457031 107.066406 60.027344 107.230469 60.429688 107.414062 C 60.347656 105.476562 63.363281 103.851562 58.667969 103.003906 C 58.148438 102.910156 57.71875 102.867188 57.363281 102.863281 Z M 71.289062 107.867188 C 69.066406 107.8125 67.460938 112.125 62.808594 109.902344 C 62.105469 109.566406 61.59375 109.230469 61.226562 108.902344 C 60.8125 110.25 58.984375 111.992188 62.808594 113.820312 C 69.011719 116.785156 69.796875 108.128906 73.855469 113.699219 C 73.894531 113.75 73.925781 113.800781 73.960938 113.851562 C 74.863281 112.773438 75.132812 111.535156 73.855469 109.78125 C 72.839844 108.386719 72.03125 107.882812 71.289062 107.867188 Z M 74.550781 121.8125 C 73.699219 121.742188 70.632812 126.699219 68.851562 122.597656 C 68.328125 123.550781 68.167969 124.679688 68.683594 126.101562 C 70.238281 130.390625 72.953125 126.730469 74.164062 125.894531 C 74.265625 125.390625 74.367188 124.898438 74.503906 124.242188 C 74.875 122.453125 74.84375 121.835938 74.550781 121.8125 Z M 36.894531 126.015625 C 35.835938 129.347656 31.339844 124.753906 32.65625 130.503906 C 32.738281 130.859375 32.820312 131.175781 32.902344 131.464844 C 34.148438 130.675781 37.34375 132.945312 37.101562 127.617188 C 37.074219 126.992188 37 126.464844 36.894531 126.015625 Z M 70.835938 138.3125 C 70.773438 138.429688 70.722656 138.527344 70.660156 138.648438 C 69.3125 141.261719 70.230469 142.042969 71.34375 142.472656 C 71.492188 142.335938 71.644531 142.1875 71.808594 142.023438 C 75.082031 138.714844 72.351562 139.191406 70.835938 138.3125 Z M 40.789062 140.242188 C 38.753906 142.261719 34.691406 143.621094 39.015625 145.53125 C 39.035156 145.539062 39.050781 145.546875 39.070312 145.554688 C 40.929688 144.183594 43.109375 142.601562 40.789062 140.242188 Z M 40.789062 140.242188 "/>
<path style="fill:none;stroke-width:3;stroke-linecap:round;stroke-linejoin:round;stroke:rgb(12.941177%,12.941177%,12.941177%);stroke-opacity:0.96129;stroke-miterlimit:4;" d="M 338.108248 -34.001925 C 325.28916 -28.908661 331.194846 -16.277055 317.8055 -15.370891 C 304.416153 -14.464728 323.82055 -20.448532 309.767205 -23.73728 C 295.721671 -27.018217 302.463215 -16.25362 289.128551 -22.13587 C 275.793887 -28.018121 302.346038 -31.30687 292.393864 -40.829398 C 282.449501 -50.351926 279.473223 -38.829589 276.411015 -52.187688 C 273.348808 -65.545787 285.980414 -50.984678 285.300791 -65.795764 C 284.621169 -80.606849 272.012998 -68.912653 276.20791 -81.638001 C 280.402821 -94.355536 275.825134 -77.364971 285.371097 -87.160911 C 294.91706 -96.949039 287.417777 -93.144714 300.002512 -100.526822 C 312.587248 -107.916741 303.361567 -96.339722 316.836842 -96.206922 C 330.31993 -96.06631 315.211997 -109.565021 328.429485 -107.182436 C 341.639161 -104.799851 324.304879 -99.316 336.709944 -93.386879 C 349.11501 -87.457758 350.685172 -104.768604 358.801585 -93.629043 C 366.917997 -82.497294 343.787394 -81.731742 348.458822 -68.826724 C 353.130251 -55.921707 363.074614 -79.00544 360.098336 -64.70993 C 357.122058 -50.41442 358.754714 -56.038883 352.41157 -43.73537 C 346.060614 -31.431858 364.871318 -39.423282 354.708226 -29.150826 C 344.545134 -18.878369 350.919525 -39.095188 338.108248 -34.001925 Z M 338.108248 -34.001925 " transform="matrix(0.500048,0,0,0.500048,-105.562456,156.600242)"/>
<path style=" stroke:none;fill-rule:nonzero;fill:rgb(100%,100%,100%);fill-opacity:0.313726;" d="M 79.648438 45.199219 C 77.8125 45.222656 79.929688 46.636719 74.53125 48.085938 C 67.617188 49.941406 74.398438 45.410156 68.347656 49.011719 C 62.296875 52.617188 66.328125 49.070312 61.660156 54.15625 C 56.992188 59.238281 58.324219 52.125 56.371094 58.226562 C 55.574219 60.722656 55.976562 61.210938 56.632812 61.355469 C 58.199219 56.746094 57.226562 62.90625 61.660156 58.074219 C 66.328125 52.988281 62.296875 56.535156 68.347656 52.933594 C 74.398438 49.328125 67.617188 53.859375 74.53125 52.003906 C 81.441406 50.148438 76.039062 48.351562 82.371094 49.457031 C 88.703125 50.5625 84.433594 49.144531 89.988281 52.769531 C 95.339844 56.261719 93.957031 51.089844 97.320312 55.46875 C 98.609375 55.054688 99.558594 54.609375 97.730469 52.097656 C 93.839844 46.75 95.546875 52.476562 89.988281 48.851562 C 84.433594 45.222656 88.703125 46.640625 82.371094 45.535156 C 80.984375 45.296875 80.164062 45.191406 79.648438 45.199219 Z M 95.339844 60.324219 C 94.753906 60.894531 94.5 61.84375 95.105469 63.609375 C 96.171875 66.726562 97.265625 66.714844 97.910156 66.761719 C 97.933594 66.652344 97.949219 66.566406 97.976562 66.453125 C 99.457031 59.824219 97.410156 65.503906 95.339844 60.324219 Z M 58.042969 65.613281 C 56.707031 70.683594 55.269531 66.835938 56.527344 72.554688 C 56.964844 72.164062 57.628906 71.507812 58.238281 68.730469 C 58.675781 66.75 58.472656 65.953125 58.042969 65.613281 Z M 95.488281 77.984375 C 94.476562 80.882812 95.628906 82.304688 96.519531 83.5625 C 98.511719 80.960938 96.414062 80.046875 95.488281 77.984375 Z M 62.40625 82.847656 C 61.160156 84.679688 59.050781 86.121094 61.757812 87.628906 C 62.824219 86.296875 63.921875 84.777344 62.40625 82.847656 Z M 62.40625 82.847656 "/>
<path style="fill:none;stroke-width:3;stroke-linecap:round;stroke-linejoin:round;stroke:rgb(12.941177%,12.941177%,12.941177%);stroke-opacity:0.96129;stroke-miterlimit:4;" d="M 331.957427 -30.93812 C 319.614856 -25.766739 330.106041 -16.134846 317.294765 -15.322424 C 304.475676 -14.517813 318.70088 -16.291082 306.334874 -21.087498 C 293.961055 -25.883915 301.858739 -16.556681 288.899039 -22.017097 C 275.939339 -27.477513 297.117004 -32.211436 287.282006 -41.546482 C 277.454819 -50.881528 279.696793 -39.648226 276.845502 -52.475126 C 273.9864 -65.302026 277.345455 -55.717004 280.157686 -68.465787 C 282.969918 -81.222381 272.517791 -69.426632 276.423668 -81.636404 C 280.329545 -93.838364 277.665737 -79.61316 287.000783 -89.776252 C 296.335829 -99.947155 288.274099 -92.854083 300.374505 -100.064332 C 312.474912 -107.266769 298.913707 -98.205134 312.740512 -101.915717 C 326.559505 -105.6263 315.755849 -109.219707 328.418702 -107.016793 C 341.081556 -104.806066 332.543309 -107.641733 343.651623 -100.384613 C 354.767749 -93.135306 351.354012 -104.587337 359.134519 -93.893046 C 366.915026 -83.198755 349.596368 -91.252673 353.88502 -78.714808 C 358.173673 -66.176943 362.704491 -78.941349 359.62666 -65.18485 C 356.548829 -51.436163 360.69687 -64.333369 355.127089 -51.193998 C 349.549497 -38.046816 364.821476 -38.921733 354.99429 -29.039864 C 345.174915 -19.150183 344.292187 -36.109501 331.957427 -30.93812 Z M 331.957427 -30.93812 " transform="matrix(0.500048,0,0,0.500048,-81.853939,99.048662)"/>
<path style=" stroke:none;fill-rule:nonzero;fill:rgb(100%,100%,100%);fill-opacity:0.392157;" d="M 182.636719 89.761719 C 182.523438 89.765625 182.394531 89.773438 182.253906 89.785156 C 172.964844 90.679688 180.035156 92.058594 172.550781 95.640625 C 172.550781 95.753906 172.5 95.921875 172.375 96.175781 C 168.527344 103.769531 168.945312 98.558594 165.3125 106.410156 C 165.269531 107.558594 165.269531 108.402344 165.300781 109.046875 C 165.339844 109.054688 165.359375 109.1875 165.347656 109.515625 C 165.34375 109.542969 165.34375 109.570312 165.34375 109.597656 C 165.359375 109.792969 165.382812 109.964844 165.410156 110.117188 C 168.941406 102.566406 168.5625 107.621094 172.375 100.09375 C 172.5 99.84375 172.550781 99.671875 172.550781 99.558594 C 172.414062 99.625 172.285156 99.691406 172.136719 99.757812 C 170.464844 100.519531 172.542969 98.855469 172.550781 99.558594 C 180.035156 95.976562 172.964844 94.601562 182.253906 93.703125 C 184.496094 93.488281 183.421875 94.808594 185.308594 95.59375 C 193.265625 98.917969 190.175781 97.269531 198.945312 99.941406 C 199.132812 100 199.28125 100.03125 199.402344 100.050781 C 198.984375 98.753906 200.570312 100.210938 199.402344 100.050781 C 199.425781 100.121094 199.453125 100.203125 199.492188 100.292969 C 202.726562 108.230469 201.945312 101.386719 206.222656 109.351562 C 206.285156 109.464844 206.335938 109.578125 206.386719 109.695312 C 206.699219 108.203125 206.917969 106.730469 206.222656 105.433594 C 201.945312 97.464844 202.726562 104.3125 199.492188 96.375 C 199.453125 96.285156 199.425781 96.203125 199.402344 96.128906 C 199.28125 96.113281 199.132812 96.078125 198.945312 96.023438 C 190.175781 93.351562 193.265625 94.996094 185.308594 91.675781 C 183.539062 90.9375 184.375 89.730469 182.636719 89.761719 Z M 199.402344 96.128906 C 200.570312 96.292969 198.984375 94.835938 199.402344 96.128906 Z M 165.3125 106.410156 C 165.320312 106.152344 165.332031 105.882812 165.347656 105.59375 C 165.441406 103.578125 164.203125 108.839844 165.117188 106.832031 C 165.183594 106.683594 165.246094 106.546875 165.3125 106.410156 Z M 172.550781 95.640625 C 172.542969 94.9375 170.464844 96.601562 172.136719 95.839844 C 172.285156 95.769531 172.414062 95.707031 172.550781 95.640625 Z M 166.855469 119.023438 C 166.304688 119.972656 165.160156 120.121094 166.082031 121.386719 C 166.433594 121.871094 166.738281 122.269531 167.011719 122.605469 C 167.097656 122.355469 167.140625 122.058594 167.113281 121.691406 C 167.039062 120.617188 166.949219 119.746094 166.855469 119.023438 Z M 166.855469 119.023438 "/>
<path style="fill:none;stroke-width:3.615564;stroke-linecap:round;stroke-linejoin:round;stroke:rgb(12.941177%,12.941177%,12.941177%);stroke-opacity:0.96129;stroke-miterlimit:4;" d="M 357.238269 -30.773051 C 339.313712 -16.595565 353.397293 -20.216365 334.656296 -11.446196 C 330.212267 -9.373073 330.193712 -18.993509 324.8683 -19.996633 C 302.406937 -24.2002 321.93654 -16.404494 299.41951 -21.257703 C 294.084821 -22.413684 296.97947 -23.47413 292.99005 -27.190465 C 276.123152 -42.839199 286.356479 -19.108152 274.063498 -36.476527 C 271.150294 -40.594112 276.893203 -39.887149 276.512817 -45.313572 C 274.926326 -68.223012 271.363681 -54.284366 272.319287 -75.101577 C 272.541952 -80.031215 269.600914 -67.162567 271.771901 -72.073098 C 280.910457 -92.794773 279.71363 -79.238269 289.009907 -98.135214 C 291.208727 -102.615834 283.842216 -96.797715 288.443966 -98.966374 C 307.852959 -108.090025 290.002623 -111.538861 312.473264 -113.764841 C 317.798676 -114.290287 315.247303 -111.061183 319.728442 -109.140917 C 338.627161 -101.02039 331.288483 -105.042439 352.116967 -98.507803 C 357.052715 -96.960126 351.588137 -102.243245 353.415848 -97.647982 C 361.097802 -78.235145 359.242257 -94.982539 369.401362 -75.493273 C 371.81357 -70.878903 369.624027 -65.356944 368.807588 -60.083378 C 365.346998 -37.85224 368.603478 -57.236417 362.229684 -36.982866 C 360.717415 -32.186978 361.487466 -34.126351 357.238269 -30.773051 Z M 357.238269 -30.773051 " transform="matrix(0.421035,0,0,0.408879,50.69157,136.301202)"/>
<path style=" stroke:none;fill-rule:nonzero;fill:rgb(0%,0%,0%);fill-opacity:0.235294;" d="M 140.207031 78.171875 C 137.410156 80.933594 137.957031 84.503906 138.707031 88.683594 C 140.015625 85.628906 143.757812 83.289062 152.8125 81.851562 C 147.003906 80.792969 145.824219 78.898438 140.207031 78.171875 Z M 108.039062 94.65625 C 106.832031 99.835938 107.964844 105.9375 112.003906 112.566406 C 115.914062 119.332031 120.789062 123.960938 125.558594 129.011719 C 125.5625 129.089844 125.5625 129.167969 125.566406 129.246094 C 125.570312 129.316406 125.578125 129.382812 125.582031 129.453125 C 125.585938 129.546875 125.59375 129.644531 125.601562 129.742188 C 125.605469 129.820312 125.613281 129.902344 125.621094 129.980469 C 125.628906 130.074219 125.636719 130.164062 125.644531 130.257812 C 125.65625 130.339844 125.664062 130.421875 125.671875 130.503906 C 125.683594 130.601562 125.695312 130.703125 125.707031 130.800781 C 125.71875 130.886719 125.726562 130.96875 125.738281 131.050781 C 125.753906 131.15625 125.769531 131.265625 125.785156 131.371094 C 125.804688 131.515625 125.828125 131.660156 125.851562 131.804688 C 125.867188 131.917969 125.886719 132.03125 125.90625 132.148438 C 125.921875 132.246094 125.941406 132.347656 125.957031 132.449219 C 125.976562 132.546875 125.992188 132.644531 126.011719 132.742188 C 126.03125 132.851562 126.054688 132.960938 126.074219 133.070312 C 126.09375 133.160156 126.109375 133.246094 126.128906 133.335938 C 126.152344 133.453125 126.175781 133.574219 126.203125 133.695312 C 126.21875 133.777344 126.238281 133.863281 126.257812 133.949219 C 126.285156 134.074219 126.3125 134.203125 126.34375 134.332031 C 126.355469 134.390625 126.367188 134.449219 126.382812 134.507812 C 126.460938 134.84375 126.542969 135.183594 126.628906 135.535156 C 126.632812 135.539062 126.632812 135.546875 126.632812 135.550781 C 126.671875 135.707031 126.714844 135.863281 126.753906 136.019531 C 126.773438 136.089844 126.792969 136.160156 126.808594 136.230469 C 126.851562 136.390625 126.894531 136.554688 126.941406 136.71875 C 126.953125 136.757812 126.964844 136.800781 126.976562 136.839844 C 127.320312 138.101562 127.730469 139.433594 128.195312 140.835938 C 128.195312 140.839844 128.199219 140.847656 128.203125 140.855469 C 129.890625 145.933594 132.347656 151.890625 135.441406 158.355469 C 136.058594 157.191406 136.886719 156.105469 137.960938 155.109375 C 133.664062 146.683594 130.328125 138.90625 128.203125 132.515625 C 128.199219 132.511719 128.195312 132.503906 128.195312 132.496094 C 127.730469 131.09375 127.320312 129.761719 126.976562 128.5 C 126.964844 128.460938 126.953125 128.421875 126.941406 128.378906 C 126.894531 128.214844 126.851562 128.054688 126.808594 127.890625 C 126.792969 127.820312 126.773438 127.75 126.753906 127.679688 C 126.714844 127.523438 126.671875 127.367188 126.632812 127.214844 C 126.632812 127.207031 126.632812 127.203125 126.628906 127.195312 C 126.542969 126.847656 126.460938 126.503906 126.382812 126.167969 C 126.367188 126.109375 126.355469 126.050781 126.34375 125.996094 C 126.3125 125.863281 126.285156 125.738281 126.257812 125.609375 C 126.238281 125.523438 126.21875 125.441406 126.203125 125.355469 C 126.175781 125.234375 126.152344 125.117188 126.128906 124.996094 C 126.109375 124.90625 126.09375 124.820312 126.074219 124.734375 C 126.054688 124.621094 126.03125 124.511719 126.011719 124.40625 C 125.992188 124.304688 125.976562 124.207031 125.957031 124.109375 C 125.941406 124.007812 125.921875 123.90625 125.90625 123.808594 C 125.886719 123.691406 125.867188 123.578125 125.851562 123.464844 C 125.828125 123.320312 125.804688 123.175781 125.785156 123.03125 C 125.769531 122.925781 125.753906 122.816406 125.738281 122.710938 C 125.726562 122.628906 125.71875 122.546875 125.707031 122.464844 C 125.695312 122.363281 125.683594 122.261719 125.671875 122.164062 C 125.664062 122.082031 125.65625 122 125.644531 121.921875 C 125.636719 121.828125 125.628906 121.734375 125.621094 121.640625 C 125.613281 121.5625 125.605469 121.480469 125.601562 121.402344 C 125.59375 121.304688 125.585938 121.210938 125.582031 121.113281 C 125.578125 121.046875 125.570312 120.976562 125.566406 120.910156 C 125.5625 120.828125 125.5625 120.75 125.558594 120.671875 C 120.789062 115.621094 115.914062 110.996094 112.003906 104.226562 C 109.96875 100.886719 108.671875 97.679688 108.039062 94.65625 Z M 139.234375 100.101562 C 138.640625 103.019531 137.261719 106.085938 134.488281 109.269531 C 131.894531 112.179688 131.664062 114.632812 132.378906 117.105469 C 132.382812 117.109375 132.390625 117.113281 132.394531 117.117188 C 132.496094 117.183594 132.601562 117.253906 132.707031 117.324219 C 132.753906 117.355469 132.800781 117.390625 132.847656 117.421875 C 132.941406 117.488281 133.035156 117.554688 133.132812 117.625 C 133.1875 117.664062 133.242188 117.707031 133.300781 117.746094 C 133.390625 117.8125 133.484375 117.882812 133.578125 117.953125 C 133.628906 117.992188 133.683594 118.03125 133.738281 118.074219 C 133.808594 118.128906 133.882812 118.1875 133.953125 118.246094 C 134.121094 118.035156 134.296875 117.820312 134.488281 117.605469 C 140.0625 111.210938 140.011719 105.273438 139.234375 100.101562 Z M 139.234375 100.101562 "/>
</g>
</svg>
